{
.appVersion = "1045";
copyright = "Copyright 2017 The Mardoto Project Authors (https://github.com/vahanhovh/mardoto)";
customParameters = (
{
name = license;
value = "This Font Software is licensed under the SIL Open Font License, Version 1.1. This license is available with a FAQ at: http://scripts.sil.org/OFL";
},
{
name = licenseURL;
value = "http://scripts.sil.org/OFL";
},
{
name = vendorID;
value = GOOG;
},
{
name = fsType;
value = (
);
},
{
name = "Disable Last Change";
value = 1;
},
{
name = "Use Line Breaks";
value = 1;
}
);
date = "2017-07-27 09:57:37 +0000";
designer = "Christian Robertson, Vahan Hovhannisyan";
designerURL = "http://Google.com";
disablesNiceNames = 1;
familyName = Mardoto;
featurePrefixes = (
{
automatic = 1;
code = "languagesystem DFLT dflt;
";
name = Languagesystems;
}
);
features = (
{
automatic = 1;
code = "feature sups;
feature frac;
feature ordn;
";
name = aalt;
},
{
automatic = 1;
code = "sub one by onesuperior;
sub two by twosuperior;
sub three by threesuperior;
sub four by foursuperior;
";
name = sups;
},
{
automatic = 1;
code = "sub one slash four by onequarter;
sub one slash two by onehalf;
sub three slash four by threequarters;
";
name = frac;
},
{
automatic = 1;
code = "sub [zero one two three four five six seven eight nine] [A a]' by ordfeminine;
sub [zero one two three four five six seven eight nine] [O o]' by ordmasculine;
";
name = ordn;
},
{
automatic = 1;
code = "sub ech-arm yiwn-arm by ech_yiwn-arm;
";
name = dlig;
},
{
automatic = 1;
code = "sub vo-arm emphasis-arm yiwn-arm by vo_emphasis_yiwn-arm.liga;
sub vo-arm exclam-arm yiwn-arm by vo_exclam_yiwn-arm.liga;
sub vo-arm question-arm yiwn-arm by vo_question_yiwn-arm.liga;
sub Ech-arm Vew-arm by Ech_Vew-arm.liga;
sub To-arm Yi-arm by To_Yi-arm.liga;
sub Men-arm Ca-arm by Men_Ca-arm.liga;
sub Men-arm Now-arm by Men_Now-arm.liga;
sub Men-arm now-arm by Men_now-arm.liga;
sub men-arm ken-arm by men_ken-arm.liga;
sub men-arm now-arm by men_now-arm.liga;

glyphs = (
{
color = 1;
glyphname = A;
layers = (
{
layerId = "E48BBF63-6980-4D0E-B72F-9E9EC78D2D9A";
paths = (
{
closed = 1;
nodes = (
"254 435 LINE",
"968 435 LINE",
"1130 0 LINE",
"1189 0 LINE",
"644 1456 LINE",
"578 1456 LINE",
"33 0 LINE",
"92 0 LINE"
);
},
{
closed = 1;
nodes = (
"948 489 LINE",
"274 489 LINE",
"611 1391 LINE"
);
}
);
width = 1223;
},
{
hints = (
{
horizontal = 1;
origin = "{0, 0}";
type = Anchor;
},
{
horizontal = 1;
origin = "{0, 1}";
type = Anchor;
},
{
horizontal = 1;
origin = "{0, 2}";
type = Anchor;
},
{
horizontal = 1;
origin = "{0, 3}";
type = Anchor;
},
{
horizontal = 1;
origin = "{0, 4}";
type = Anchor;
},
{
horizontal = 1;
origin = "{0, 5}";
type = Anchor;
},
{
horizontal = 1;
origin = "{0, 6}";
type = Anchor;
},
{
horizontal = 1;
origin = "{0, 7}";
type = Anchor;
},
{
horizontal = 1;
origin = "{1, 0}";
type = Anchor;
},
{
horizontal = 1;
origin = "{1, 1}";
type = Anchor;
},
{
horizontal = 1;
origin = "{1, 2}";
type = Anchor;
}
);
layerId = "10767FFE-EA3C-45A9-8421-483827593C6E";
paths = (
{
closed = 1;
nodes = (
"309 408 LINE",
"971 408 LINE",
"1121 0 LINE",
"1249 0 LINE",
"698 1456 LINE",
"581 1456 LINE",
"31 0 LINE",
"159 0 LINE"
);
},
{
closed = 1;
nodes = (
"932 513 LINE",
"348 513 LINE",
"640 1307 LINE"
);
}
);
width = 1280;
},
{
hints = (
{
horizontal = 1;
origin = "{0, 0}";
type = Anchor;
},
{
horizontal = 1;
origin = "{0, 1}";
type = Anchor;
},
{
horizontal = 1;
origin = "{0, 2}";
type = Anchor;
},
{
horizontal = 1;
origin = "{0, 3}";
type = Anchor;
},
{
horizontal = 1;
origin = "{0, 4}";
type = Anchor;
},
{
horizontal = 1;
origin = "{0, 5}";
type = Anchor;
},
{
horizontal = 1;
origin = "{0, 6}";
type = Anchor;
},
{
horizontal = 1;
origin = "{0, 7}";
type = Anchor;
},
{
horizontal = 1;
origin = "{1, 0}";
type = Anchor;
},
{
horizontal = 1;
origin = "{1, 1}";
type = Anchor;
},
{
horizontal = 1;
origin = "{1, 2}";
type = Anchor;
}
);
layerId = "EFC0C7B3-D173-4BF6-BF18-C95D96D5B447";
paths = (
{
closed = 1;
nodes = (
"364 381 LINE",
"973 381 LINE",
"1112 0 LINE",
"1310 0 LINE",
"753 1456 LINE",
"584 1456 LINE",
"29 0 LINE",
"226 0 LINE"
);
},
{
closed = 1;
nodes = (
"916 539 LINE",
"422 539 LINE",
"669 1218 LINE"
);
}
);
width = 1336;
},
{
hints = (
{
horizontal = 1;
origin = "{0, 0}";
type = Anchor;
},
{
horizontal = 1;
origin = "{0, 1}";
type = Anchor;
},
{
horizontal = 1;
origin = "{0, 2}";
type = Anchor;
},
{
horizontal = 1;
origin = "{0, 3}";
type = Anchor;
},
{
horizontal = 1;
origin = "{0, 4}";
type = Anchor;
},
{
horizontal = 1;
origin = "{0, 5}";
type = Anchor;
},
{
horizontal = 1;
origin = "{0, 6}";
type = Anchor;
},
{
horizontal = 1;
origin = "{0, 7}";
type = Anchor;
},
{
horizontal = 1;
origin = "{1, 0}";
type = Anchor;
},
{
horizontal = 1;
origin = "{1, 1}";
type = Anchor;
},
{
horizontal = 1;
origin = "{1, 2}";
type = Anchor;
}
);
layerId = "D68CFE38-7B02-4705-B0C1-3A2279678377";
paths = (
{
closed = 1;
nodes = (
"400 340 LINE",
"964 340 LINE",
"1083 0 LINE",
"1347 0 LINE",
"795 1456 LINE",
"568 1456 LINE",
"18 0 LINE",
"282 0 LINE"
);
},
{
closed = 1;
nodes = (
"894 543 LINE",
"471 543 LINE",
"682 1149 LINE"
);
}
);
width = 1363;
},
{
hints = (
{
horizontal = 1;
origin = "{0, 0}";
type = Anchor;
},
{
horizontal = 1;
origin = "{0, 1}";
type = Anchor;
},
{
horizontal = 1;
origin = "{0, 2}";
type = Anchor;
},
{
horizontal = 1;
origin = "{0, 3}";
type = Anchor;
},
{
horizontal = 1;
origin = "{0, 4}";
type = Anchor;
},
{
horizontal = 1;
origin = "{0, 5}";
type = Anchor;
},
{
horizontal = 1;
origin = "{0, 6}";
type = Anchor;
},
{
horizontal = 1;
origin = "{0, 7}";
type = Anchor;
},
{
horizontal = 1;
origin = "{1, 0}";
type = Anchor;
},
{
horizontal = 1;
origin = "{1, 1}";
type = Anchor;
},
{
horizontal = 1;
origin = "{1, 2}";
type = Anchor;
}
);
layerId = "8F63CED7-3680-4993-9CF4-CD4CD6484F7E";
paths = (
{
closed = 1;
nodes = (
"426 300 LINE",
"953 300 LINE",
"1053 0 LINE",
"1373 0 LINE",
"828 1456 LINE",
"550 1456 LINE",
"8 0 LINE",
"326 0 LINE"
);
},
{
closed = 1;
nodes = (
"872 543 LINE",
"507 543 LINE",
"690 1090 LINE"
);
}
);
width = 1379;
},
{
hints = (
{
horizontal = 1;
origin = "{0, 0}";
type = Anchor;
},
{
horizontal = 1;
origin = "{0, 1}";
type = Anchor;
},
{
horizontal = 1;
origin = "{0, 2}";
type = Anchor;
},
{
horizontal = 1;
origin = "{0, 3}";
type = Anchor;
},
{
horizontal = 1;
origin = "{0, 4}";
type = Anchor;
},
{
horizontal = 1;
origin = "{0, 5}";
type = Anchor;
},
{
horizontal = 1;
origin = "{0, 6}";
type = Anchor;
},
{
horizontal = 1;
origin = "{0, 7}";
type = Anchor;
},
{
horizontal = 1;
origin = "{1, 0}";
type = Anchor;
},
{
horizontal = 1;
origin = "{1, 1}";
type = Anchor;
},
{
horizontal = 1;
origin = "{1, 2}";
type = Anchor;
}
);
layerId = "D40DD59D-1539-4674-98F2-408D5EBDB9DF";
paths = (
{
closed = 1;
nodes = (
"457 272 LINE",
"938 272 LINE",
"1022 0 LINE",
"1400 0 LINE",
"862 1456 LINE",
"531 1456 LINE",
"-4 0 LINE",
"373 0 LINE"
);
},
{
closed = 1;
nodes = (
"854 543 LINE",
"541 543 LINE",
"697 1050 LINE"
);
}
);
width = 1395;
}
);
leftKerningGroup = A;
note = A;
rightKerningGroup = A;
unicode = 0041;
},
{
color = 1;
glyphname = Aacute;
layers = (
{
layerId = "E48BBF63-6980-4D0E-B72F-9E9EC78D2D9A";
paths = (
{
closed = 1;
nodes = (
"254 435 LINE",
"968 435 LINE",
"1130 0 LINE",
"1189 0 LINE",
"644 1456 LINE",
"578 1456 LINE",
"33 0 LINE",
"92 0 LINE"
);
},
{
closed = 1;
nodes = (
"948 489 LINE",
"274 489 LINE",
"611 1391 LINE"
);
},
{
closed = 1;
nodes = (
"827 1855 LINE",
"761 1855 LINE",
"572 1589 LINE",
"632 1589 LINE"
);
}
);
width = 1223;
},
{
layerId = "10767FFE-EA3C-45A9-8421-483827593C6E";
paths = (
{
closed = 1;
nodes = (
"309 408 LINE",
"971 408 LINE",
"1121 0 LINE",
"1249 0 LINE",
"698 1456 LINE",
"581 1456 LINE",
"31 0 LINE",
"159 0 LINE"
);
},
{
closed = 1;
nodes = (
"932 513 LINE",
"348 513 LINE",
"640 1307 LINE"
);
},
{
closed = 1;
nodes = (
"907 1851 LINE",
"762 1851 LINE",
"571 1572 LINE",
"675 1572 LINE"
);
}
);
width = 1280;
},
{
layerId = "EFC0C7B3-D173-4BF6-BF18-C95D96D5B447";
paths = (
{
closed = 1;
nodes = (
"364 381 LINE",
"973 381 LINE",
"1112 0 LINE",
"1310 0 LINE",
"753 1456 LINE",
"584 1456 LINE",
"29 0 LINE",
"226 0 LINE"
);
},
{
closed = 1;
nodes = (
"916 539 LINE",
"422 539 LINE",
"669 1218 LINE"
);
},
{
closed = 1;
nodes = (
"987 1847 LINE",
"764 1847 LINE",
"570 1553 LINE",
"719 1553 LINE"
);
}
);
width = 1336;
},
{
layerId = "D68CFE38-7B02-4705-B0C1-3A2279678377";
paths = (
{
closed = 1;
nodes = (
"400 340 LINE",
"964 340 LINE",
"1083 0 LINE",
"1347 0 LINE",
"795 1456 LINE",
"568 1456 LINE",
"18 0 LINE",
"282 0 LINE"
);
},
{
closed = 1;
nodes = (
"894 543 LINE",
"471 543 LINE",
"682 1149 LINE"
);
},
{
closed = 1;
nodes = (
"1034 1846 LINE",
"757 1846 LINE",
"562 1544 LINE",
"757 1544 LINE"
);
}
);
width = 1363;
},
{
layerId = "8F63CED7-3680-4993-9CF4-CD4CD6484F7E";
paths = (
{
closed = 1;
nodes = (
"426 300 LINE",
"953 300 LINE",
"1053 0 LINE",
"1373 0 LINE",
"828 1456 LINE",
"550 1456 LINE",
"8 0 LINE",
"326 0 LINE"
);
},
{
closed = 1;
nodes = (
"872 543 LINE",
"507 543 LINE",
"690 1090 LINE"
);
},
{
closed = 1;
nodes = (
"1065 1846 LINE",
"750 1846 LINE",
"554 1537 LINE",
"788 1537 LINE"
);
}
);
width = 1379;
},
{
layerId = "D40DD59D-1539-4674-98F2-408D5EBDB9DF";
paths = (
{
closed = 1;
nodes = (
"457 272 LINE",
"938 272 LINE",
"1022 0 LINE",
"1400 0 LINE",
"862 1456 LINE",
"531 1456 LINE",
"-4 0 LINE",
"373 0 LINE"
);
},
{
closed = 1;
nodes = (
"854 543 LINE",
"541 543 LINE",
"697 1050 LINE"
);
},
{
closed = 1;
nodes = (
"1099 1846 LINE",
"743 1846 LINE",
"545 1532 LINE",
"820 1532 LINE"
);
}
);
width = 1395;
}
);
leftKerningGroup = A;
note = Aacute;
rightKerningGroup = A;
unicode = 00C1;
},
{
color = 1;
glyphname = Acircumflex;
layers = (
{
layerId = "E48BBF63-6980-4D0E-B72F-9E9EC78D2D9A";
paths = (
{
closed = 1;
nodes = (
"254 435 LINE",
"968 435 LINE",
"1130 0 LINE",
"1189 0 LINE",
"644 1456 LINE",
"578 1456 LINE",
"33 0 LINE",
"92 0 LINE"
);
},
{
closed = 1;
nodes = (
"948 489 LINE",
"274 489 LINE",
"611 1391 LINE"
);
},
{
closed = 1;
nodes = (
"362 1597 LINE",
"362 1583 LINE",
"426 1583 LINE",
"611 1779 LINE",
"798 1583 LINE",
"866 1583 LINE",
"866 1593 LINE",
"632 1836 LINE",
"592 1836 LINE"
);
}
);
width = 1223;
},
{
layerId = "10767FFE-EA3C-45A9-8421-483827593C6E";
paths = (
{
closed = 1;
nodes = (
"309 408 LINE",
"971 408 LINE",
"1121 0 LINE",
"1249 0 LINE",
"698 1456 LINE",
"581 1456 LINE",
"31 0 LINE",
"159 0 LINE"
);
},
{
closed = 1;
nodes = (
"932 513 LINE",
"348 513 LINE",
"640 1307 LINE"
);
},
{
closed = 1;
nodes = (
"366 1586 LINE",
"366 1574 LINE",
"474 1574 LINE",
"641 1757 LINE",
"810 1574 LINE",
"920 1574 LINE",
"920 1584 LINE",
"680 1841 LINE",
"604 1841 LINE"
);
}
);
width = 1280;
},
{
layerId = "EFC0C7B3-D173-4BF6-BF18-C95D96D5B447";
paths = (
{
closed = 1;
nodes = (
"364 381 LINE",
"973 381 LINE",
"1112 0 LINE",
"1310 0 LINE",
"753 1456 LINE",
"584 1456 LINE",
"29 0 LINE",
"226 0 LINE"
);
},
{
closed = 1;
nodes = (
"916 539 LINE",
"422 539 LINE",
"669 1218 LINE"
);
},
{
closed = 1;
nodes = (
"371 1575 LINE",
"371 1564 LINE",
"523 1564 LINE",
"672 1733 LINE",
"822 1564 LINE",
"976 1564 LINE",
"976 1574 LINE",
"728 1847 LINE",
"616 1847 LINE"
);
}
);
width = 1336;
},
{
layerId = "D68CFE38-7B02-4705-B0C1-3A2279678377";
paths = (
{
closed = 1;
nodes = (
"400 340 LINE",
"964 340 LINE",
"1083 0 LINE",
"1347 0 LINE",
"795 1456 LINE",
"568 1456 LINE",
"18 0 LINE",
"282 0 LINE"
);
},
{
closed = 1;
nodes = (
"894 543 LINE",
"471 543 LINE",
"682 1149 LINE"
);
},
{
closed = 1;
nodes = (
"343 1572 LINE",
"343 1559 LINE",
"535 1559 LINE",
"685 1715 LINE",
"835 1559 LINE",
"1030 1559 LINE",
"1030 1570 LINE",
"756 1847 LINE",
"613 1847 LINE"
);
}
);
width = 1363;
},
{
layerId = "8F63CED7-3680-4993-9CF4-CD4CD6484F7E";
paths = (
{
closed = 1;
nodes = (
"426 300 LINE",
"953 300 LINE",
"1053 0 LINE",
"1373 0 LINE",
"828 1456 LINE",
"550 1456 LINE",
"8 0 LINE",
"326 0 LINE"
);
},
{
closed = 1;
nodes = (
"872 543 LINE",
"507 543 LINE",
"690 1090 LINE"
);
},
{
closed = 1;
nodes = (
"313 1570 LINE",
"313 1555 LINE",
"538 1555 LINE",
"692 1699 LINE",
"847 1555 LINE",
"1076 1555 LINE",
"1076 1567 LINE",
"776 1847 LINE",
"609 1847 LINE"
);
}
);
width = 1379;
},
{
layerId = "D40DD59D-1539-4674-98F2-408D5EBDB9DF";
paths = (
{
closed = 1;
nodes = (
"457 272 LINE",
"938 272 LINE",
"1022 0 LINE",
"1400 0 LINE",
"862 1456 LINE",
"531 1456 LINE",
"-4 0 LINE",
"373 0 LINE"
);
},
{
closed = 1;
nodes = (
"854 543 LINE",
"541 543 LINE",
"697 1050 LINE"
);
},
{
closed = 1;
nodes = (
"281 1569 LINE",
"281 1552 LINE",
"541 1552 LINE",
"699 1688 LINE",
"859 1552 LINE",
"1124 1552 LINE",
"1124 1565 LINE",
"796 1846 LINE",
"603 1846 LINE"
);
}
);
width = 1395;
}
);
leftKerningGroup = A;
note = Acircumflex;
rightKerningGroup = A;
unicode = 00C2;
},
{
color = 1;
glyphname = Adieresis;
layers = (
{
layerId = "E48BBF63-6980-4D0E-B72F-9E9EC78D2D9A";
paths = (
{
closed = 1;
nodes = (
"254 435 LINE",
"968 435 LINE",
"1130 0 LINE",
"1189 0 LINE",
"644 1456 LINE",
"578 1456 LINE",
"33 0 LINE",
"92 0 LINE"
);
},
{
closed = 1;
nodes = (
"948 489 LINE",
"274 489 LINE",
"611 1391 LINE"
);
},
{
closed = 1;
nodes = (
"336 1703 OFFCURVE",
"354 1685 OFFCURVE",
"391 1685 CURVE SMOOTH",
"428 1685 OFFCURVE",
"447 1703 OFFCURVE",
"447 1740 CURVE SMOOTH",
"447 1777 OFFCURVE",
"428 1796 OFFCURVE",
"391 1796 CURVE SMOOTH",
"354 1796 OFFCURVE",
"336 1777 OFFCURVE",
"336 1740 CURVE SMOOTH"
);
},
{
closed = 1;
nodes = (
"781 1703 OFFCURVE",
"799 1685 OFFCURVE",
"836 1685 CURVE SMOOTH",
"873 1685 OFFCURVE",
"892 1703 OFFCURVE",
"892 1740 CURVE SMOOTH",
"892 1777 OFFCURVE",
"873 1796 OFFCURVE",
"836 1796 CURVE SMOOTH",
"799 1796 OFFCURVE",
"781 1777 OFFCURVE",
"781 1740 CURVE SMOOTH"
);
}
);
width = 1223;
},
{
layerId = "10767FFE-EA3C-45A9-8421-483827593C6E";
paths = (
{
closed = 1;
nodes = (
"309 408 LINE",
"971 408 LINE",
"1121 0 LINE",
"1249 0 LINE",
"698 1456 LINE",
"581 1456 LINE",
"31 0 LINE",
"159 0 LINE"
);
},
{
closed = 1;
nodes = (
"932 513 LINE",
"348 513 LINE",
"640 1307 LINE"
);
},
{
closed = 1;
nodes = (
"343 1659 OFFCURVE",
"370 1632 OFFCURVE",
"425 1632 CURVE SMOOTH",
"480 1632 OFFCURVE",
"508 1659 OFFCURVE",
"508 1712 CURVE SMOOTH",
"508 1765 OFFCURVE",
"480 1792 OFFCURVE",
"425 1792 CURVE SMOOTH",
"370 1792 OFFCURVE",
"343 1765 OFFCURVE",
"343 1712 CURVE SMOOTH"
);
},
{
closed = 1;
nodes = (
"780 1658 OFFCURVE",
"807 1632 OFFCURVE",
"862 1632 CURVE SMOOTH",
"917 1632 OFFCURVE",
"945 1658 OFFCURVE",
"945 1711 CURVE SMOOTH",
"945 1765 OFFCURVE",
"917 1792 OFFCURVE",
"862 1792 CURVE SMOOTH",
"807 1792 OFFCURVE",
"780 1765 OFFCURVE",
"780 1711 CURVE SMOOTH"
);
}
);
width = 1280;
},
{
layerId = "EFC0C7B3-D173-4BF6-BF18-C95D96D5B447";
paths = (
{
closed = 1;
nodes = (
"364 381 LINE",
"973 381 LINE",
"1112 0 LINE",
"1310 0 LINE",
"753 1456 LINE",
"584 1456 LINE",
"29 0 LINE",
"226 0 LINE"
);
},
{
closed = 1;
nodes = (
"916 539 LINE",
"422 539 LINE",
"669 1218 LINE"
);
},
{
closed = 1;
nodes = (
"350 1625 OFFCURVE",
"388 1578 OFFCURVE",
"459 1578 CURVE SMOOTH",
"531 1578 OFFCURVE",
"569 1625 OFFCURVE",
"569 1682 CURVE SMOOTH",
"569 1742 OFFCURVE",
"531 1789 OFFCURVE",
"459 1789 CURVE SMOOTH",
"388 1789 OFFCURVE",
"350 1742 OFFCURVE",
"350 1682 CURVE SMOOTH"
);
},
{
closed = 1;
nodes = (
"781 1623 OFFCURVE",
"818 1576 OFFCURVE",
"890 1576 CURVE SMOOTH",
"961 1576 OFFCURVE",
"1000 1623 OFFCURVE",
"1000 1680 CURVE SMOOTH",
"1000 1740 OFFCURVE",
"961 1787 OFFCURVE",
"890 1787 CURVE SMOOTH",
"818 1787 OFFCURVE",
"781 1740 OFFCURVE",
"781 1680 CURVE SMOOTH"
);
}
);
width = 1336;
},
{
layerId = "D68CFE38-7B02-4705-B0C1-3A2279678377";
paths = (
{
closed = 1;
nodes = (
"400 340 LINE",
"964 340 LINE",
"1083 0 LINE",
"1347 0 LINE",
"795 1456 LINE",
"568 1456 LINE",
"18 0 LINE",
"282 0 LINE"
);
},
{
closed = 1;
nodes = (
"894 543 LINE",
"471 543 LINE",
"682 1149 LINE"
);
},
{
closed = 1;
nodes = (
"332 1609 OFFCURVE",
"381 1559 OFFCURVE",
"458 1559 CURVE SMOOTH",
"535 1559 OFFCURVE",
"585 1609 OFFCURVE",
"585 1676 CURVE SMOOTH",
"585 1743 OFFCURVE",
"535 1795 OFFCURVE",
"458 1795 CURVE SMOOTH",
"381 1795 OFFCURVE",
"332 1743 OFFCURVE",
"332 1676 CURVE SMOOTH"
);
},
{
closed = 1;
nodes = (
"789 1610 OFFCURVE",
"836 1558 OFFCURVE",
"915 1558 CURVE SMOOTH",
"994 1558 OFFCURVE",
"1042 1610 OFFCURVE",
"1042 1675 CURVE SMOOTH",
"1042 1742 OFFCURVE",
"994 1794 OFFCURVE",
"915 1794 CURVE SMOOTH",
"836 1794 OFFCURVE",
"789 1742 OFFCURVE",
"789 1675 CURVE SMOOTH"
);
}
);
width = 1363;
},
{
layerId = "8F63CED7-3680-4993-9CF4-CD4CD6484F7E";
paths = (
{
closed = 1;
nodes = (
"426 300 LINE",
"953 300 LINE",
"1053 0 LINE",
"1373 0 LINE",
"828 1456 LINE",
"550 1456 LINE",
"8 0 LINE",
"326 0 LINE"
);
},
{
closed = 1;
nodes = (
"872 543 LINE",
"507 543 LINE",
"690 1090 LINE"
);
},
{
closed = 1;
nodes = (
"309 1604 OFFCURVE",
"367 1549 OFFCURVE",
"448 1549 CURVE SMOOTH",
"528 1549 OFFCURVE",
"586 1604 OFFCURVE",
"586 1676 CURVE SMOOTH",
"586 1747 OFFCURVE",
"528 1803 OFFCURVE",
"448 1803 CURVE SMOOTH",
"367 1803 OFFCURVE",
"309 1747 OFFCURVE",
"309 1676 CURVE SMOOTH"
);
},
{
closed = 1;
nodes = (
"797 1604 OFFCURVE",
"855 1548 OFFCURVE",
"935 1548 CURVE SMOOTH",
"1016 1548 OFFCURVE",
"1074 1604 OFFCURVE",
"1074 1675 CURVE SMOOTH",
"1074 1746 OFFCURVE",
"1016 1802 OFFCURVE",
"935 1802 CURVE SMOOTH",
"855 1802 OFFCURVE",
"797 1746 OFFCURVE",
"797 1675 CURVE SMOOTH"
);
}
);
width = 1379;
},
{
layerId = "D40DD59D-1539-4674-98F2-408D5EBDB9DF";
paths = (
{
closed = 1;
nodes = (
"457 272 LINE",
"938 272 LINE",
"1022 0 LINE",
"1400 0 LINE",
"862 1456 LINE",
"531 1456 LINE",
"-4 0 LINE",
"373 0 LINE"
);
},
{
closed = 1;
nodes = (
"854 543 LINE",
"541 543 LINE",
"697 1050 LINE"
);
},
{
closed = 1;
nodes = (
"286 1600 OFFCURVE",
"354 1542 OFFCURVE",
"437 1542 CURVE SMOOTH",
"520 1542 OFFCURVE",
"588 1600 OFFCURVE",
"588 1675 CURVE SMOOTH",
"588 1750 OFFCURVE",
"520 1808 OFFCURVE",
"437 1808 CURVE SMOOTH",
"354 1808 OFFCURVE",
"286 1750 OFFCURVE",
"286 1675 CURVE SMOOTH"
);
},
{
closed = 1;
nodes = (
"805 1600 OFFCURVE",
"875 1542 OFFCURVE",
"956 1542 CURVE SMOOTH",
"1039 1542 OFFCURVE",
"1107 1600 OFFCURVE",
"1107 1675 CURVE SMOOTH",
"1107 1750 OFFCURVE",
"1039 1808 OFFCURVE",
"956 1808 CURVE SMOOTH",
"875 1808 OFFCURVE",
"805 1750 OFFCURVE",
"805 1675 CURVE SMOOTH"
);
}
);
width = 1395;
}
);
leftKerningGroup = A;
note = Adieresis;
rightKerningGroup = A;
unicode = 00C4;
},
{
color = 1;
glyphname = Agrave;
layers = (
{
layerId = "E48BBF63-6980-4D0E-B72F-9E9EC78D2D9A";
paths = (
{
closed = 1;
nodes = (
"254 435 LINE",
"968 435 LINE",
"1130 0 LINE",
"1189 0 LINE",
"644 1456 LINE",
"578 1456 LINE",
"33 0 LINE",
"92 0 LINE"
);
},
{
closed = 1;
nodes = (
"948 489 LINE",
"274 489 LINE",
"611 1391 LINE"
);
},
{
closed = 1;
nodes = (
"596 1589 LINE",
"655 1589 LINE",
"467 1855 LINE",
"401 1855 LINE"
);
}
);
width = 1223;
},
{
layerId = "10767FFE-EA3C-45A9-8421-483827593C6E";
paths = (
{
closed = 1;
nodes = (
"309 408 LINE",
"971 408 LINE",
"1121 0 LINE",
"1249 0 LINE",
"698 1456 LINE",
"581 1456 LINE",
"31 0 LINE",
"159 0 LINE"
);
},
{
closed = 1;
nodes = (
"932 513 LINE",
"348 513 LINE",
"640 1307 LINE"
);
},
{
closed = 1;
nodes = (
"607 1572 LINE",
"716 1572 LINE",
"525 1851 LINE",
"380 1851 LINE"
);
}
);
width = 1280;
},
{
layerId = "EFC0C7B3-D173-4BF6-BF18-C95D96D5B447";
paths = (
{
closed = 1;
nodes = (
"364 381 LINE",
"973 381 LINE",
"1112 0 LINE",
"1310 0 LINE",
"753 1456 LINE",
"584 1456 LINE",
"29 0 LINE",
"226 0 LINE"
);
},
{
closed = 1;
nodes = (
"916 539 LINE",
"422 539 LINE",
"669 1218 LINE"
);
},
{
closed = 1;
nodes = (
"618 1553 LINE",
"777 1553 LINE",
"584 1847 LINE",
"360 1847 LINE"
);
}
);
width = 1336;
},
{
layerId = "D68CFE38-7B02-4705-B0C1-3A2279678377";
paths = (
{
closed = 1;
nodes = (
"400 340 LINE",
"964 340 LINE",
"1083 0 LINE",
"1347 0 LINE",
"795 1456 LINE",
"568 1456 LINE",
"18 0 LINE",
"282 0 LINE"
);
},
{
closed = 1;
nodes = (
"894 543 LINE",
"471 543 LINE",
"682 1149 LINE"
);
},
{
closed = 1;
nodes = (
"610 1544 LINE",
"812 1544 LINE",
"616 1846 LINE",
"339 1846 LINE"
);
}
);
width = 1363;
},
{
layerId = "8F63CED7-3680-4993-9CF4-CD4CD6484F7E";
paths = (
{
closed = 1;
nodes = (
"426 300 LINE",
"953 300 LINE",
"1053 0 LINE",
"1373 0 LINE",
"828 1456 LINE",
"550 1456 LINE",
"8 0 LINE",
"326 0 LINE"
);
},
{
closed = 1;
nodes = (
"872 543 LINE",
"507 543 LINE",
"690 1090 LINE"
);
},
{
closed = 1;
nodes = (
"598 1537 LINE",
"835 1537 LINE",
"638 1846 LINE",
"322 1846 LINE"
);
}
);
width = 1379;
},
{
layerId = "D40DD59D-1539-4674-98F2-408D5EBDB9DF";
paths = (
{
closed = 1;
nodes = (
"457 272 LINE",
"938 272 LINE",
"1022 0 LINE",
"1400 0 LINE",
"862 1456 LINE",
"531 1456 LINE",
"-4 0 LINE",
"373 0 LINE"
);
},
{
closed = 1;
nodes = (
"854 543 LINE",
"541 543 LINE",
"697 1050 LINE"
);
},
{
closed = 1;
nodes = (
"586 1532 LINE",
"859 1532 LINE",
"660 1846 LINE",
"304 1846 LINE"
);
}
);
width = 1395;
}
);
leftKerningGroup = A;
note = Agrave;
rightKerningGroup = A;
unicode = 00C0;
},
{
color = 1;
glyphname = Aring;
layers = (
{
layerId = "E48BBF63-6980-4D0E-B72F-9E9EC78D2D9A";
paths = (
{
closed = 1;
nodes = (
"254 435 LINE",
"968 435 LINE",
"1130 0 LINE",
"1189 0 LINE",
"644 1456 LINE",
"578 1456 LINE",
"33 0 LINE",
"92 0 LINE"
);
},
{
closed = 1;
nodes = (
"948 489 LINE",
"274 489 LINE",
"611 1391 LINE"
);
},
{
closed = 1;
nodes = (
"443 1602 OFFCURVE",
"518 1531 OFFCURVE",
"614 1531 CURVE SMOOTH",
"709 1531 OFFCURVE",
"785 1602 OFFCURVE",
"785 1701 CURVE SMOOTH",
"785 1800 OFFCURVE",
"709 1875 OFFCURVE",
"614 1875 CURVE SMOOTH",
"518 1875 OFFCURVE",
"443 1800 OFFCURVE",
"443 1701 CURVE SMOOTH"
);
},
{
closed = 1;
nodes = (
"497 1772 OFFCURVE",
"546 1821 OFFCURVE",
"614 1821 CURVE SMOOTH",
"682 1821 OFFCURVE",
"731 1772 OFFCURVE",
"731 1701 CURVE SMOOTH",
"731 1632 OFFCURVE",
"682 1585 OFFCURVE",
"614 1585 CURVE SMOOTH",
"546 1585 OFFCURVE",
"497 1632 OFFCURVE",
"497 1701 CURVE SMOOTH"
);
}
);
width = 1223;
},
{
layerId = "10767FFE-EA3C-45A9-8421-483827593C6E";
paths = (
{
closed = 1;
nodes = (
"309 408 LINE",
"971 408 LINE",
"1121 0 LINE",
"1249 0 LINE",
"698 1456 LINE",
"581 1456 LINE",
"31 0 LINE",
"159 0 LINE"
);
},
{
closed = 1;
nodes = (
"932 513 LINE",
"348 513 LINE",
"640 1307 LINE"
);
},
{
closed = 1;
nodes = (
"450 1609 OFFCURVE",
"534 1529 OFFCURVE",
"643 1529 CURVE SMOOTH",
"751 1529 OFFCURVE",
"836 1609 OFFCURVE",
"836 1716 CURVE SMOOTH",
"836 1823 OFFCURVE",
"751 1907 OFFCURVE",
"643 1907 CURVE SMOOTH",
"534 1907 OFFCURVE",
"450 1823 OFFCURVE",
"450 1716 CURVE SMOOTH"
);
},
{
closed = 1;
nodes = (
"526 1783 OFFCURVE",
"575 1835 OFFCURVE",
"643 1835 CURVE SMOOTH",
"711 1835 OFFCURVE",
"759 1783 OFFCURVE",
"759 1716 CURVE SMOOTH",
"759 1651 OFFCURVE",
"711 1601 OFFCURVE",
"643 1601 CURVE SMOOTH",
"575 1601 OFFCURVE",
"526 1652 OFFCURVE",
"526 1716 CURVE SMOOTH"
);
}
);
width = 1280;
},
{
layerId = "EFC0C7B3-D173-4BF6-BF18-C95D96D5B447";
paths = (
{
closed = 1;
nodes = (
"364 381 LINE",
"973 381 LINE",
"1112 0 LINE",
"1310 0 LINE",
"753 1456 LINE",
"584 1456 LINE",
"29 0 LINE",
"226 0 LINE"
);
},
{
closed = 1;
nodes = (
"916 539 LINE",
"422 539 LINE",
"669 1218 LINE"
);
},
{
closed = 1;
nodes = (
"457 1614 OFFCURVE",
"549 1527 OFFCURVE",
"672 1527 CURVE SMOOTH",
"793 1527 OFFCURVE",
"887 1614 OFFCURVE",
"887 1731 CURVE SMOOTH",
"887 1846 OFFCURVE",
"793 1939 OFFCURVE",
"672 1939 CURVE SMOOTH",
"549 1939 OFFCURVE",
"457 1846 OFFCURVE",
"457 1731 CURVE SMOOTH"
);
},
{
closed = 1;
nodes = (
"556 1794 OFFCURVE",
"604 1849 OFFCURVE",
"672 1849 CURVE SMOOTH",
"740 1849 OFFCURVE",
"788 1794 OFFCURVE",
"788 1731 CURVE SMOOTH",
"788 1670 OFFCURVE",
"740 1616 OFFCURVE",
"672 1616 CURVE SMOOTH",
"604 1616 OFFCURVE",
"556 1672 OFFCURVE",
"556 1731 CURVE SMOOTH"
);
}
);
width = 1336;
},
{
layerId = "D68CFE38-7B02-4705-B0C1-3A2279678377";
paths = (
{
closed = 1;
nodes = (
"400 340 LINE",
"964 340 LINE",
"1083 0 LINE",
"1347 0 LINE",
"795 1456 LINE",
"568 1456 LINE",
"18 0 LINE",
"282 0 LINE"
);
},
{
closed = 1;
nodes = (
"894 543 LINE",
"471 543 LINE",
"682 1149 LINE"
);
},
{
closed = 1;
nodes = (
"464 1617 OFFCURVE",
"560 1528 OFFCURVE",
"685 1528 CURVE SMOOTH",
"810 1528 OFFCURVE",
"907 1617 OFFCURVE",
"907 1732 CURVE SMOOTH",
"907 1847 OFFCURVE",
"810 1940 OFFCURVE",
"685 1940 CURVE SMOOTH",
"560 1940 OFFCURVE",
"464 1847 OFFCURVE",
"464 1732 CURVE SMOOTH"
);
},
{
closed = 1;
nodes = (
"573 1793 OFFCURVE",
"618 1846 OFFCURVE",
"685 1846 CURVE SMOOTH",
"752 1846 OFFCURVE",
"798 1793 OFFCURVE",
"798 1732 CURVE SMOOTH",
"798 1673 OFFCURVE",
"752 1621 OFFCURVE",
"685 1621 CURVE SMOOTH",
"618 1621 OFFCURVE",
"573 1673 OFFCURVE",
"573 1732 CURVE SMOOTH"
);
}
);
width = 1363;
},
{
layerId = "8F63CED7-3680-4993-9CF4-CD4CD6484F7E";
paths = (
{
closed = 1;
nodes = (
"426 300 LINE",
"953 300 LINE",
"1053 0 LINE",
"1373 0 LINE",
"828 1456 LINE",
"550 1456 LINE",
"8 0 LINE",
"326 0 LINE"
);
},
{
closed = 1;
nodes = (
"872 543 LINE",
"507 543 LINE",
"690 1090 LINE"
);
},
{
closed = 1;
nodes = (
"471 1617 OFFCURVE",
"565 1528 OFFCURVE",
"694 1528 CURVE SMOOTH",
"822 1528 OFFCURVE",
"917 1617 OFFCURVE",
"917 1730 CURVE SMOOTH",
"917 1841 OFFCURVE",
"822 1935 OFFCURVE",
"694 1935 CURVE SMOOTH",
"565 1935 OFFCURVE",
"471 1841 OFFCURVE",
"471 1730 CURVE SMOOTH"
);
},
{
closed = 1;
nodes = (
"586 1789 OFFCURVE",
"629 1839 OFFCURVE",
"694 1839 CURVE SMOOTH",
"759 1839 OFFCURVE",
"802 1789 OFFCURVE",
"802 1730 CURVE SMOOTH",
"802 1671 OFFCURVE",
"759 1623 OFFCURVE",
"694 1623 CURVE SMOOTH",
"629 1623 OFFCURVE",
"586 1671 OFFCURVE",
"586 1730 CURVE SMOOTH"
);
}
);
width = 1379;
},
{
layerId = "D40DD59D-1539-4674-98F2-408D5EBDB9DF";
paths = (
{
closed = 1;
nodes = (
"457 272 LINE",
"938 272 LINE",
"1022 0 LINE",
"1400 0 LINE",
"862 1456 LINE",
"531 1456 LINE",
"-4 0 LINE",
"373 0 LINE"
);
},
{
closed = 1;
nodes = (
"854 543 LINE",
"541 543 LINE",
"697 1050 LINE"
);
},
{
closed = 1;
nodes = (
"477 1620 OFFCURVE",
"572 1530 OFFCURVE",
"701 1530 CURVE SMOOTH",
"832 1530 OFFCURVE",
"926 1620 OFFCURVE",
"926 1729 CURVE SMOOTH",
"926 1838 OFFCURVE",
"832 1932 OFFCURVE",
"701 1932 CURVE SMOOTH",
"572 1932 OFFCURVE",
"477 1838 OFFCURVE",
"477 1729 CURVE SMOOTH"
);
},
{
closed = 1;
nodes = (
"598 1788 OFFCURVE",
"637 1835 OFFCURVE",
"701 1835 CURVE SMOOTH",
"766 1835 OFFCURVE",
"805 1788 OFFCURVE",
"805 1729 CURVE SMOOTH",
"805 1670 OFFCURVE",
"766 1625 OFFCURVE",
"701 1625 CURVE SMOOTH",
"637 1625 OFFCURVE",
"598 1670 OFFCURVE",
"598 1729 CURVE SMOOTH"
);
}
);
width = 1395;
}
);
leftKerningGroup = A;
note = Aring;
rightKerningGroup = A;
unicode = 00C5;
},
{
color = 1;
glyphname = Atilde;
layers = (
{
layerId = "E48BBF63-6980-4D0E-B72F-9E9EC78D2D9A";
paths = (
{
closed = 1;
nodes = (
"254 435 LINE",
"968 435 LINE",
"1130 0 LINE",
"1189 0 LINE",
"644 1456 LINE",
"578 1456 LINE",
"33 0 LINE",
"92 0 LINE"
);
},
{
closed = 1;
nodes = (
"948 489 LINE",
"274 489 LINE",
"611 1391 LINE"
);
},
{
closed = 1;
nodes = (
"885 1722 OFFCURVE",
"829 1675 OFFCURVE",
"764 1675 CURVE SMOOTH",
"760 1675 LINE SMOOTH",
"725 1676 OFFCURVE",
"695 1686 OFFCURVE",
"670 1707 CURVE SMOOTH",
"620 1747 OFFCURVE",
"570 1799 OFFCURVE",
"477 1799 CURVE SMOOTH",
"378 1799 OFFCURVE",
"301 1729 OFFCURVE",
"301 1620 CURVE",
"356 1620 LINE",
"356 1704 OFFCURVE",
"410 1745 OFFCURVE",
"477 1745 CURVE SMOOTH",
"481 1745 LINE SMOOTH",
"518 1744 OFFCURVE",
"549 1734 OFFCURVE",
"574 1713 CURVE SMOOTH",
"622 1672 OFFCURVE",
"668 1620 OFFCURVE",
"764 1620 CURVE SMOOTH",
"861 1620 OFFCURVE",
"940 1695 OFFCURVE",
"940 1806 CURVE",
"885 1806 LINE"
);
}
);
width = 1223;
},
{
layerId = "10767FFE-EA3C-45A9-8421-483827593C6E";
paths = (
{
closed = 1;
nodes = (
"309 408 LINE",
"971 408 LINE",
"1121 0 LINE",
"1249 0 LINE",
"698 1456 LINE",
"581 1456 LINE",
"31 0 LINE",
"159 0 LINE"
);
},
{
closed = 1;
nodes = (
"932 513 LINE",
"348 513 LINE",
"640 1307 LINE"
);
},
{
closed = 1;
nodes = (
"894 1742 OFFCURVE",
"845 1695 OFFCURVE",
"784 1695 CURVE SMOOTH",
"749 1695 OFFCURVE",
"718 1704 OFFCURVE",
"692 1722 CURVE SMOOTH",
"610 1778 LINE SMOOTH",
"583 1796 OFFCURVE",
"548 1805 OFFCURVE",
"506 1805 CURVE SMOOTH",
"397 1805 OFFCURVE",
"311 1720 OFFCURVE",
"311 1593 CURVE",
"400 1589 LINE",
"400 1664 OFFCURVE",
"448 1708 OFFCURVE",
"511 1708 CURVE SMOOTH",
"549 1708 OFFCURVE",
"580 1699 OFFCURVE",
"604 1680 CURVE SMOOTH",
"651 1644 OFFCURVE",
"695 1598 OFFCURVE",
"788 1598 CURVE SMOOTH",
"897 1598 OFFCURVE",
"984 1682 OFFCURVE",
"984 1811 CURVE",
"894 1817 LINE"
);
}
);
width = 1280;
},
{
layerId = "EFC0C7B3-D173-4BF6-BF18-C95D96D5B447";
paths = (
{
closed = 1;
nodes = (
"364 381 LINE",
"973 381 LINE",
"1112 0 LINE",
"1310 0 LINE",
"753 1456 LINE",
"584 1456 LINE",
"29 0 LINE",
"226 0 LINE"
);
},
{
closed = 1;
nodes = (
"916 539 LINE",
"422 539 LINE",
"669 1218 LINE"
);
},
{
closed = 1;
nodes = (
"902 1764 OFFCURVE",
"858 1715 OFFCURVE",
"802 1715 CURVE SMOOTH",
"767 1715 OFFCURVE",
"736 1723 OFFCURVE",
"710 1739 CURVE SMOOTH",
"662 1768 OFFCURVE",
"610 1810 OFFCURVE",
"534 1810 CURVE SMOOTH",
"413 1810 OFFCURVE",
"319 1710 OFFCURVE",
"319 1563 CURVE",
"444 1557 LINE",
"444 1620 OFFCURVE",
"487 1668 OFFCURVE",
"543 1668 CURVE SMOOTH",
"580 1668 OFFCURVE",
"610 1660 OFFCURVE",
"633 1644 CURVE SMOOTH",
"705 1597 LINE SMOOTH",
"730 1581 OFFCURVE",
"766 1573 OFFCURVE",
"811 1573 CURVE SMOOTH",
"932 1573 OFFCURVE",
"1027 1669 OFFCURVE",
"1027 1816 CURVE",
"902 1827 LINE"
);
}
);
width = 1336;
},
{
layerId = "D68CFE38-7B02-4705-B0C1-3A2279678377";
paths = (
{
closed = 1;
nodes = (
"400 340 LINE",
"964 340 LINE",
"1083 0 LINE",
"1347 0 LINE",
"795 1456 LINE",
"568 1456 LINE",
"18 0 LINE",
"282 0 LINE"
);
},
{
closed = 1;
nodes = (
"894 543 LINE",
"471 543 LINE",
"682 1149 LINE"
);
},
{
closed = 1;
nodes = (
"903 1774 OFFCURVE",
"862 1732 OFFCURVE",
"811 1732 CURVE SMOOTH",
"760 1732 OFFCURVE",
"716 1747 OFFCURVE",
"679 1777 CURVE SMOOTH",
"642 1806 OFFCURVE",
"596 1821 OFFCURVE",
"541 1821 CURVE SMOOTH",
"413 1821 OFFCURVE",
"318 1708 OFFCURVE",
"318 1561 CURVE",
"468 1553 LINE",
"468 1614 OFFCURVE",
"507 1656 OFFCURVE",
"558 1656 CURVE SMOOTH",
"594 1656 OFFCURVE",
"624 1649 OFFCURVE",
"648 1634 CURVE SMOOTH",
"696 1604 OFFCURVE",
"743 1567 OFFCURVE",
"828 1567 CURVE SMOOTH",
"955 1567 OFFCURVE",
"1052 1675 OFFCURVE",
"1052 1823 CURVE",
"903 1835 LINE"
);
}
);
width = 1363;
},
{
layerId = "8F63CED7-3680-4993-9CF4-CD4CD6484F7E";
paths = (
{
closed = 1;
nodes = (
"426 300 LINE",
"953 300 LINE",
"1053 0 LINE",
"1373 0 LINE",
"828 1456 LINE",
"550 1456 LINE",
"8 0 LINE",
"326 0 LINE"
);
},
{
closed = 1;
nodes = (
"872 543 LINE",
"507 543 LINE",
"690 1090 LINE"
);
},
{
closed = 1;
nodes = (
"901 1782 OFFCURVE",
"863 1747 OFFCURVE",
"816 1747 CURVE SMOOTH",
"766 1747 OFFCURVE",
"721 1761 OFFCURVE",
"682 1790 CURVE SMOOTH",
"642 1819 OFFCURVE",
"595 1833 OFFCURVE",
"542 1833 CURVE SMOOTH",
"411 1833 OFFCURVE",
"316 1709 OFFCURVE",
"316 1565 CURVE",
"483 1556 LINE",
"483 1619 OFFCURVE",
"511 1651 OFFCURVE",
"567 1651 CURVE SMOOTH",
"602 1651 OFFCURVE",
"632 1644 OFFCURVE",
"657 1630 CURVE SMOOTH",
"706 1601 OFFCURVE",
"757 1565 OFFCURVE",
"841 1565 CURVE SMOOTH",
"973 1565 OFFCURVE",
"1068 1684 OFFCURVE",
"1068 1831 CURVE",
"901 1843 LINE"
);
}
);
width = 1379;
},
{
layerId = "D40DD59D-1539-4674-98F2-408D5EBDB9DF";
paths = (
{
closed = 1;
nodes = (
"457 272 LINE",
"938 272 LINE",
"1022 0 LINE",
"1400 0 LINE",
"862 1456 LINE",
"531 1456 LINE",
"-4 0 LINE",
"373 0 LINE"
);
},
{
closed = 1;
nodes = (
"854 543 LINE",
"541 543 LINE",
"697 1050 LINE"
);
},
{
closed = 1;
nodes = (
"899 1787 OFFCURVE",
"863 1758 OFFCURVE",
"820 1758 CURVE SMOOTH",
"771 1758 OFFCURVE",
"726 1772 OFFCURVE",
"684 1800 CURVE SMOOTH",
"641 1827 OFFCURVE",
"594 1841 OFFCURVE",
"542 1841 CURVE SMOOTH",
"406 1841 OFFCURVE",
"311 1711 OFFCURVE",
"311 1568 CURVE",
"499 1558 LINE",
"499 1618 OFFCURVE",
"524 1648 OFFCURVE",
"575 1648 CURVE SMOOTH",
"626 1648 OFFCURVE",
"669 1634 OFFCURVE",
"706 1606 CURVE SMOOTH",
"743 1578 OFFCURVE",
"792 1564 OFFCURVE",
"854 1564 CURVE SMOOTH",
"990 1564 OFFCURVE",
"1085 1690 OFFCURVE",
"1085 1837 CURVE",
"899 1848 LINE"
);
}
);
width = 1395;
}
);
leftKerningGroup = A;
note = Atilde;
rightKerningGroup = A;
unicode = 00C3;
},
{
color = 1;
glyphname = AE;
layers = (
{
layerId = "E48BBF63-6980-4D0E-B72F-9E9EC78D2D9A";
paths = (
{
closed = 1;
nodes = (
"1039 732 LINE",
"1625 732 LINE",
"1625 786 LINE",
"1037 786 LINE",
"1011 1402 LINE",
"1707 1402 LINE",
"1707 1456 LINE",
"931 1456 LINE",
"50 0 LINE",
"115 0 LINE",
"371 425 LINE",
"998 425 LINE",
"1016 0 LINE",
"1768 0 LINE",
"1768 54 LINE",
"1068 54 LINE"
);
},
{
closed = 1;
nodes = (
"996 478 LINE",
"403 478 LINE",
"957 1399 LINE"
);
}
);
width = 1816;
},
{
layerId = "10767FFE-EA3C-45A9-8421-483827593C6E";
paths = (
{
closed = 1;
nodes = (
"1096 708 LINE",
"1681 708 LINE",
"1681 809 LINE",
"1092 809 LINE",
"1069 1354 LINE",
"1762 1354 LINE",
"1762 1456 LINE",
"899 1456 LINE",
"18 0 LINE",
"164 0 LINE",
"394 390 LINE",
"990 390 LINE",
"1006 0 LINE",
"1824 0 LINE",
"1824 102 LINE",
"1122 102 LINE"
);
},
{
closed = 1;
nodes = (
"985 502 LINE",
"461 502 LINE",
"950 1331 LINE"
);
}
);
width = 1865;
},
{
layerId = "EFC0C7B3-D173-4BF6-BF18-C95D96D5B447";
paths = (
{
closed = 1;
nodes = (
"1153 682 LINE",
"1737 682 LINE",
"1737 834 LINE",
"1147 834 LINE",
"1127 1304 LINE",
"1818 1304 LINE",
"1818 1456 LINE",
"866 1456 LINE",
"-15 0 LINE",
"212 0 LINE",
"417 353 LINE",
"981 353 LINE",
"996 0 LINE",
"1880 0 LINE",
"1880 152 LINE",
"1176 152 LINE"
);
},
{
closed = 1;
nodes = (
"974 528 LINE",
"518 528 LINE",
"943 1261 LINE"
);
}
);
width = 1914;
},
{
layerId = "D68CFE38-7B02-4705-B0C1-3A2279678377";
paths = (
{
closed = 1;
nodes = (
"1197 655 LINE",
"1737 655 LINE",
"1737 851 LINE",
"1188 851 LINE",
"1171 1260 LINE",
"1818 1260 LINE",
"1818 1456 LINE",
"825 1456 LINE",
"-10 0 LINE",
"280 0 LINE",
"464 341 LINE",
"968 341 LINE",
"982 0 LINE",
"1879 0 LINE",
"1879 196 LINE",
"1216 196 LINE"
);
},
{
closed = 1;
nodes = (
"959 555 LINE",
"580 555 LINE",
"932 1205 LINE"
);
}
);
width = 1925;
},
{
layerId = "8F63CED7-3680-4993-9CF4-CD4CD6484F7E";
paths = (
{
closed = 1;
nodes = (
"1232 630 LINE",
"1723 630 LINE",
"1723 866 LINE",
"1222 866 LINE",
"1207 1220 LINE",
"1804 1220 LINE",
"1804 1456 LINE",
"789 1456 LINE",
"3 0 LINE",
"342 0 LINE",
"510 334 LINE",
"954 334 LINE",
"968 0 LINE",
"1866 0 LINE",
"1866 236 LINE",
"1248 236 LINE"
);
},
{
closed = 1;
nodes = (
"944 581 LINE",
"634 581 LINE",
"920 1150 LINE"
);
}
);
width = 1926;
},
{
layerId = "D40DD59D-1539-4674-98F2-408D5EBDB9DF";
paths = (
{
closed = 1;
nodes = (
"1266 612 LINE",
"1710 612 LINE",
"1710 876 LINE",
"1255 876 LINE",
"1242 1192 LINE",
"1791 1192 LINE",
"1791 1456 LINE",
"751 1456 LINE",
"16 0 LINE",
"406 0 LINE",
"558 329 LINE",
"941 329 LINE",
"955 0 LINE",
"1852 0 LINE",
"1852 264 LINE",
"1281 264 LINE"
);
},
{
closed = 1;
nodes = (
"930 599 LINE",
"683 599 LINE",
"909 1087 LINE"
);
}
);
width = 1926;
}
);
note = AE;
unicode = 00C6;
},
{
color = 1;
glyphname = B;
layers = (
{
layerId = "E48BBF63-6980-4D0E-B72F-9E9EC78D2D9A";
paths = (
{
closed = 1;
nodes = (
"1125 578 OFFCURVE",
"986 730 OFFCURVE",
"803 754 CURVE",
"968 785 OFFCURVE",
"1059 914 OFFCURVE",
"1059 1083 CURVE SMOOTH",
"1059 1340 OFFCURVE",
"878 1456 OFFCURVE",
"583 1456 CURVE SMOOTH",
"200 1456 LINE",
"200 0 LINE",
"675 0 LINE SMOOTH",
"940 0 OFFCURVE",
"1125 142 OFFCURVE",
"1125 401 CURVE SMOOTH"
);
},
{
closed = 1;
nodes = (
"870 1397 OFFCURVE",
"1004 1292 OFFCURVE",
"1004 1087 CURVE SMOOTH",
"1004 878 OFFCURVE",
"870 773 OFFCURVE",
"603 773 CURVE SMOOTH",
"254 773 LINE",
"254 1402 LINE",
"601 1402 LINE SMOOTH"
);
},
{
closed = 1;
nodes = (
"1071 182 OFFCURVE",
"920 54 OFFCURVE",
"675 54 CURVE SMOOTH",
"254 54 LINE",
"254 719 LINE",
"685 719 LINE SMOOTH",
"942 719 OFFCURVE",
"1071 566 OFFCURVE",
"1071 399 CURVE SMOOTH"
);
}
);
width = 1235;
},
{
hints = (
{
horizontal = 1;
origin = "{0, 0}";
type = Anchor;
},
{
horizontal = 1;
origin = "{0, 1}";
type = Anchor;
},
{
horizontal = 1;
origin = "{0, 2}";
type = Anchor;
},
{
horizontal = 1;
origin = "{0, 3}";
type = Anchor;
},
{
horizontal = 1;
origin = "{0, 4}";
type = Anchor;
},
{
horizontal = 1;
origin = "{0, 5}";
type = Anchor;
},
{
horizontal = 1;
origin = "{0, 6}";
type = Anchor;
},
{
horizontal = 1;
origin = "{0, 7}";
type = Anchor;
},
{
horizontal = 1;
origin = "{0, 8}";
type = Anchor;
},
{
horizontal = 1;
origin = "{0, 9}";
type = Anchor;
},
{
horizontal = 1;
origin = "{0, 10}";
type = Anchor;
},
{
horizontal = 1;
origin = "{0, 11}";
type = Anchor;
},
{
horizontal = 1;
origin = "{0, 12}";
type = Anchor;
},
{
horizontal = 1;
origin = "{0, 13}";
type = Anchor;
},
{
horizontal = 1;
origin = "{0, 14}";
type = Anchor;
},
{
horizontal = 1;
origin = "{1, 0}";
type = Anchor;
},
{
horizontal = 1;
origin = "{1, 1}";
type = Anchor;
},
{
horizontal = 1;
origin = "{1, 2}";
type = Anchor;
},
{
horizontal = 1;
origin = "{1, 3}";
type = Anchor;
},
{
horizontal = 1;
origin = "{1, 4}";
type = Anchor;
},
{
horizontal = 1;
origin = "{1, 5}";
type = Anchor;
},
{
horizontal = 1;
origin = "{1, 6}";
type = Anchor;
},
{
horizontal = 1;
origin = "{1, 7}";
type = Anchor;
},
{
horizontal = 1;
origin = "{1, 8}";
type = Anchor;
},
{
horizontal = 1;
origin = "{2, 0}";
type = Anchor;
},
{
horizontal = 1;
origin = "{2, 1}";
type = Anchor;
},
{
horizontal = 1;
origin = "{2, 2}";
type = Anchor;
},
{
horizontal = 1;
origin = "{2, 3}";
type = Anchor;
},
{
horizontal = 1;
origin = "{2, 4}";
type = Anchor;
},
{
horizontal = 1;
origin = "{2, 5}";
type = Anchor;
},
{
horizontal = 1;
origin = "{2, 6}";
type = Anchor;
},
{
horizontal = 1;
origin = "{2, 7}";
type = Anchor;
},
{
horizontal = 1;
origin = "{2, 8}";
type = Anchor;
}
);
layerId = "10767FFE-EA3C-45A9-8421-483827593C6E";
paths = (
{
closed = 1;
nodes = (
"1143 579 OFFCURVE",
"1032 723 OFFCURVE",
"860 760 CURVE",
"1005 808 OFFCURVE",
"1090 927 OFFCURVE",
"1090 1076 CURVE SMOOTH",
"1090 1340 OFFCURVE",
"910 1456 OFFCURVE",
"615 1456 CURVE SMOOTH",
"185 1456 LINE",
"185 0 LINE",
"677 0 LINE SMOOTH",
"956 0 OFFCURVE",
"1143 145 OFFCURVE",
"1143 410 CURVE SMOOTH"
);
},
{
closed = 1;
nodes = (
"855 1346 OFFCURVE",
"966 1255 OFFCURVE",
"966 1078 CURVE SMOOTH",
"966 898 OFFCURVE",
"842 804 OFFCURVE",
"627 804 CURVE SMOOTH",
"308 804 LINE",
"308 1351 LINE",
"632 1351 LINE SMOOTH"
);
},
{
closed = 1;
nodes = (
"1019 219 OFFCURVE",
"892 104 OFFCURVE",
"677 104 CURVE SMOOTH",
"308 104 LINE",
"308 701 LINE",
"686 701 LINE SMOOTH",
"913 701 OFFCURVE",
"1019 573 OFFCURVE",
"1019 408 CURVE SMOOTH"
);
}
);
width = 1255;
},
{
hints = (
{
horizontal = 1;
origin = "{0, 0}";
type = Anchor;
},
{
horizontal = 1;
origin = "{0, 1}";
type = Anchor;
},
{
horizontal = 1;
origin = "{0, 2}";
type = Anchor;
},
{
horizontal = 1;
origin = "{0, 3}";
type = Anchor;
},
{
horizontal = 1;
origin = "{0, 4}";
type = Anchor;
},
{
horizontal = 1;
origin = "{0, 5}";
type = Anchor;
},
{
horizontal = 1;
origin = "{0, 6}";
type = Anchor;
},
{
horizontal = 1;
origin = "{0, 7}";
type = Anchor;
},
{
horizontal = 1;
origin = "{0, 8}";
type = Anchor;
},
{
horizontal = 1;
origin = "{0, 9}";
type = Anchor;
},
{
horizontal = 1;
origin = "{0, 10}";
type = Anchor;
},
{
horizontal = 1;
origin = "{0, 11}";
type = Anchor;
},
{
horizontal = 1;
origin = "{0, 12}";
type = Anchor;
},
{
horizontal = 1;
origin = "{0, 13}";
type = Anchor;
},
{
horizontal = 1;
origin = "{0, 14}";
type = Anchor;
},
{
horizontal = 1;
origin = "{1, 0}";
type = Anchor;
},
{
horizontal = 1;
origin = "{1, 1}";
type = Anchor;
},
{
horizontal = 1;
origin = "{1, 2}";
type = Anchor;
},
{
horizontal = 1;
origin = "{1, 3}";
type = Anchor;
},
{
horizontal = 1;
origin = "{1, 4}";
type = Anchor;
},
{
horizontal = 1;
origin = "{1, 5}";
type = Anchor;
},
{
horizontal = 1;
origin = "{1, 6}";
type = Anchor;
},
{
horizontal = 1;
origin = "{1, 7}";
type = Anchor;
},
{
horizontal = 1;
origin = "{1, 8}";
type = Anchor;
},
{
horizontal = 1;
origin = "{2, 0}";
type = Anchor;
},
{
horizontal = 1;
origin = "{2, 1}";
type = Anchor;
},
{
horizontal = 1;
origin = "{2, 2}";
type = Anchor;
},
{
horizontal = 1;
origin = "{2, 3}";
type = Anchor;
},
{
horizontal = 1;
origin = "{2, 4}";
type = Anchor;
},
{
horizontal = 1;
origin = "{2, 5}";
type = Anchor;
},
{
horizontal = 1;
origin = "{2, 6}";
type = Anchor;
},
{
horizontal = 1;
origin = "{2, 7}";
type = Anchor;
},
{
horizontal = 1;
origin = "{2, 8}";
type = Anchor;
}
);
layerId = "EFC0C7B3-D173-4BF6-BF18-C95D96D5B447";
paths = (
{
closed = 1;
nodes = (
"1160 584 OFFCURVE",
"1070 722 OFFCURVE",
"906 767 CURVE",
"1039 824 OFFCURVE",
"1121 933 OFFCURVE",
"1121 1068 CURVE SMOOTH",
"1121 1339 OFFCURVE",
"945 1456 OFFCURVE",
"646 1456 CURVE SMOOTH",
"169 1456 LINE",
"169 0 LINE",
"679 0 LINE SMOOTH",
"970 0 OFFCURVE",
"1160 148 OFFCURVE",
"1160 420 CURVE SMOOTH"
);
},
{
closed = 1;
nodes = (
"838 1295 OFFCURVE",
"928 1219 OFFCURVE",
"928 1070 CURVE SMOOTH",
"928 923 OFFCURVE",
"817 836 OFFCURVE",
"652 836 CURVE SMOOTH",
"362 836 LINE",
"362 1298 LINE",
"658 1298 LINE SMOOTH"
);
},
{
closed = 1;
nodes = (
"968 258 OFFCURVE",
"862 157 OFFCURVE",
"679 157 CURVE SMOOTH",
"362 157 LINE",
"362 681 LINE",
"688 681 LINE SMOOTH",
"884 681 OFFCURVE",
"968 581 OFFCURVE",
"968 418 CURVE SMOOTH"
);
}
);
width = 1276;
},
{
hints = (
{
horizontal = 1;
origin = "{0, 0}";
type = Anchor;
},
{
horizontal = 1;
origin = "{0, 1}";
type = Anchor;
},
{
horizontal = 1;
origin = "{0, 2}";
type = Anchor;
},
{
horizontal = 1;
origin = "{0, 3}";
type = Anchor;
},
{
horizontal = 1;
origin = "{0, 4}";
type = Anchor;
},
{
horizontal = 1;
origin = "{0, 5}";
type = Anchor;
},
{
horizontal = 1;
origin = "{0, 6}";
type = Anchor;
},
{
horizontal = 1;
origin = "{0, 7}";
type = Anchor;
},
{
horizontal = 1;
origin = "{0, 8}";
type = Anchor;
},
{
horizontal = 1;
origin = "{0, 9}";
type = Anchor;
},
{
horizontal = 1;
origin = "{0, 10}";
type = Anchor;
},
{
horizontal = 1;
origin = "{0, 11}";
type = Anchor;
},
{
horizontal = 1;
origin = "{0, 12}";
type = Anchor;
},
{
horizontal = 1;
origin = "{0, 13}";
type = Anchor;
},
{
horizontal = 1;
origin = "{0, 14}";
type = Anchor;
},
{
horizontal = 1;
origin = "{1, 0}";
type = Anchor;
},
{
horizontal = 1;
origin = "{1, 1}";
type = Anchor;
},
{
horizontal = 1;
origin = "{1, 2}";
type = Anchor;
},
{
horizontal = 1;
origin = "{1, 3}";
type = Anchor;
},
{
horizontal = 1;
origin = "{1, 4}";
type = Anchor;
},
{
horizontal = 1;
origin = "{1, 5}";
type = Anchor;
},
{
horizontal = 1;
origin = "{1, 6}";
type = Anchor;
},
{
horizontal = 1;
origin = "{1, 7}";
type = Anchor;
},
{
horizontal = 1;
origin = "{1, 8}";
type = Anchor;
},
{
horizontal = 1;
origin = "{2, 0}";
type = Anchor;
},
{
horizontal = 1;
origin = "{2, 1}";
type = Anchor;
},
{
horizontal = 1;
origin = "{2, 2}";
type = Anchor;
},
{
horizontal = 1;
origin = "{2, 3}";
type = Anchor;
},
{
horizontal = 1;
origin = "{2, 4}";
type = Anchor;
},
{
horizontal = 1;
origin = "{2, 5}";
type = Anchor;
},
{
horizontal = 1;
origin = "{2, 6}";
type = Anchor;
},
{
horizontal = 1;
origin = "{2, 7}";
type = Anchor;
},
{
horizontal = 1;
origin = "{2, 8}";
type = Anchor;
}
);
layerId = "D68CFE38-7B02-4705-B0C1-3A2279678377";
paths = (
{
closed = 1;
nodes = (
"1187 577 OFFCURVE",
"1108 715 OFFCURVE",
"941 759 CURVE",
"1080 816 OFFCURVE",
"1153 930 OFFCURVE",
"1153 1062 CURVE SMOOTH",
"1153 1334 OFFCURVE",
"964 1456 OFFCURVE",
"647 1456 CURVE SMOOTH",
"149 1456 LINE",
"149 0 LINE",
"683 0 LINE SMOOTH",
"996 0 OFFCURVE",
"1187 146 OFFCURVE",
"1187 425 CURVE SMOOTH"
);
},
{
closed = 1;
nodes = (
"820 1250 OFFCURVE",
"900 1181 OFFCURVE",
"900 1048 CURVE SMOOTH",
"900 919 OFFCURVE",
"808 844 OFFCURVE",
"649 844 CURVE SMOOTH",
"401 844 LINE",
"401 1253 LINE",
"659 1253 LINE SMOOTH"
);
},
{
closed = 1;
nodes = (
"935 293 OFFCURVE",
"848 202 OFFCURVE",
"683 202 CURVE SMOOTH",
"401 202 LINE",
"401 657 LINE",
"708 657 LINE SMOOTH",
"859 652 OFFCURVE",
"935 575 OFFCURVE",
"935 426 CURVE SMOOTH"
);
}
);
width = 1293;
},
{
hints = (
{
horizontal = 1;
origin = "{0, 0}";
type = Anchor;
},
{
horizontal = 1;
origin = "{0, 1}";
type = Anchor;
},
{
horizontal = 1;
origin = "{0, 2}";
type = Anchor;
},
{
horizontal = 1;
origin = "{0, 3}";
type = Anchor;
},
{
horizontal = 1;
origin = "{0, 4}";
type = Anchor;
},
{
horizontal = 1;
origin = "{0, 5}";
type = Anchor;
},
{
horizontal = 1;
origin = "{0, 6}";
type = Anchor;
},
{
horizontal = 1;
origin = "{0, 7}";
type = Anchor;
},
{
horizontal = 1;
origin = "{0, 8}";
type = Anchor;
},
{
horizontal = 1;
origin = "{0, 9}";
type = Anchor;
},
{
horizontal = 1;
origin = "{0, 10}";
type = Anchor;
},
{
horizontal = 1;
origin = "{0, 11}";
type = Anchor;
},
{
horizontal = 1;
origin = "{0, 12}";
type = Anchor;
},
{
horizontal = 1;
origin = "{0, 13}";
type = Anchor;
},
{
horizontal = 1;
origin = "{0, 14}";
type = Anchor;
},
{
horizontal = 1;
origin = "{1, 0}";
type = Anchor;
},
{
horizontal = 1;
origin = "{1, 1}";
type = Anchor;
},
{
horizontal = 1;
origin = "{1, 2}";
type = Anchor;
},
{
horizontal = 1;
origin = "{1, 3}";
type = Anchor;
},
{
horizontal = 1;
origin = "{1, 4}";
type = Anchor;
},
{
horizontal = 1;
origin = "{1, 5}";
type = Anchor;
},
{
horizontal = 1;
origin = "{1, 6}";
type = Anchor;
},
{
horizontal = 1;
origin = "{1, 7}";
type = Anchor;
},
{
horizontal = 1;
origin = "{1, 8}";
type = Anchor;
},
{
horizontal = 1;
origin = "{2, 0}";
type = Anchor;
},
{
horizontal = 1;
origin = "{2, 1}";
type = Anchor;
},
{
horizontal = 1;
origin = "{2, 2}";
type = Anchor;
},
{
horizontal = 1;
origin = "{2, 3}";
type = Anchor;
},
{
horizontal = 1;
origin = "{2, 4}";
type = Anchor;
},
{
horizontal = 1;
origin = "{2, 5}";
type = Anchor;
},
{
horizontal = 1;
origin = "{2, 6}";
type = Anchor;
},
{
horizontal = 1;
origin = "{2, 7}";
type = Anchor;
},
{
horizontal = 1;
origin = "{2, 8}";
type = Anchor;
},
{
horizontal = 1;
origin = "{1, 0}";
type = Delta;
settings = {
deltaV = {
"{100, 100, 0, 0, 0}" = {
"12" = 4;
};
};
};
},
{
horizontal = 1;
origin = "{1, 7}";
type = Delta;
settings = {
deltaV = {
"{100, 100, 0, 0, 0}" = {
"12" = 4;
};
};
};
},
{
horizontal = 1;
origin = "{1, 8}";
type = Delta;
settings = {
deltaV = {
"{100, 100, 0, 0, 0}" = {
"12" = 4;
};
};
};
},
{
horizontal = 1;
origin = "{1, 7}";
type = Delta;
settings = {
deltaV = {
"{100, 100, 0, 0, 0}" = {
"12" = 4;
};
};
};
}
);
layerId = "8F63CED7-3680-4993-9CF4-CD4CD6484F7E";
paths = (
{
closed = 1;
nodes = (
"1212 569 OFFCURVE",
"1143 707 OFFCURVE",
"972 750 CURVE",
"1116 807 OFFCURVE",
"1180 926 OFFCURVE",
"1180 1058 CURVE SMOOTH",
"1180 1330 OFFCURVE",
"978 1456 OFFCURVE",
"641 1456 CURVE SMOOTH",
"130 1456 LINE",
"130 0 LINE",
"696 0 LINE SMOOTH",
"1027 3 OFFCURVE",
"1212 149 OFFCURVE",
"1212 429 CURVE SMOOTH"
);
},
{
closed = 1;
nodes = (
"803 1210 OFFCURVE",
"879 1148 OFFCURVE",
"879 1027 CURVE SMOOTH",
"879 907 OFFCURVE",
"800 847 OFFCURVE",
"641 847 CURVE SMOOTH",
"431 847 LINE",
"431 1213 LINE",
"651 1213 LINE SMOOTH"
);
},
{
closed = 1;
nodes = (
"912 323 OFFCURVE",
"840 242 OFFCURVE",
"687 242 CURVE SMOOTH",
"431 242 LINE",
"431 635 LINE",
"714 635 LINE",
"846 630 OFFCURVE",
"912 563 OFFCURVE",
"912 432 CURVE SMOOTH"
);
}
);
width = 1307;
},
{
hints = (
{
horizontal = 1;
origin = "{0, 0}";
type = Anchor;
},
{
horizontal = 1;
origin = "{0, 1}";
type = Anchor;
},
{
horizontal = 1;
origin = "{0, 2}";
type = Anchor;
},
{
horizontal = 1;
origin = "{0, 3}";
type = Anchor;
},
{
horizontal = 1;
origin = "{0, 4}";
type = Anchor;
},
{
horizontal = 1;
origin = "{0, 5}";
type = Anchor;
},
{
horizontal = 1;
origin = "{0, 6}";
type = Anchor;
},
{
horizontal = 1;
origin = "{0, 7}";
type = Anchor;
},
{
horizontal = 1;
origin = "{0, 8}";
type = Anchor;
},
{
horizontal = 1;
origin = "{0, 9}";
type = Anchor;
},
{
horizontal = 1;
origin = "{0, 10}";
type = Anchor;
},
{
horizontal = 1;
origin = "{0, 11}";
type = Anchor;
},
{
horizontal = 1;
origin = "{0, 12}";
type = Anchor;
},
{
horizontal = 1;
origin = "{0, 13}";
type = Anchor;
},
{
horizontal = 1;
origin = "{0, 14}";
type = Anchor;
},
{
horizontal = 1;
origin = "{1, 0}";
type = Anchor;
},
{
horizontal = 1;
origin = "{1, 1}";
type = Anchor;
},
{
horizontal = 1;
origin = "{1, 2}";
type = Anchor;
},
{
horizontal = 1;
origin = "{1, 3}";
type = Anchor;
},
{
horizontal = 1;
origin = "{1, 4}";
type = Anchor;
},
{
horizontal = 1;
origin = "{1, 5}";
type = Anchor;
},
{
horizontal = 1;
origin = "{1, 6}";
type = Anchor;
},
{
horizontal = 1;
origin = "{1, 7}";
type = Anchor;
},
{
horizontal = 1;
origin = "{1, 8}";
type = Anchor;
},
{
horizontal = 1;
origin = "{2, 0}";
type = Anchor;
},
{
horizontal = 1;
origin = "{2, 1}";
type = Anchor;
},
{
horizontal = 1;
origin = "{2, 2}";
type = Anchor;
},
{
horizontal = 1;
origin = "{2, 3}";
type = Anchor;
},
{
horizontal = 1;
origin = "{2, 4}";
type = Anchor;
},
{
horizontal = 1;
origin = "{2, 5}";
type = Anchor;
},
{
horizontal = 1;
origin = "{2, 6}";
type = Anchor;
},
{
horizontal = 1;
origin = "{2, 7}";
type = Anchor;
},
{
horizontal = 1;
origin = "{2, 8}";
type = Anchor;
}
);
layerId = "D40DD59D-1539-4674-98F2-408D5EBDB9DF";
paths = (
{
closed = 1;
nodes = (
"1238 564 OFFCURVE",
"1175 699 OFFCURVE",
"1003 743 CURVE",
"1154 800 OFFCURVE",
"1208 922 OFFCURVE",
"1208 1054 CURVE SMOOTH",
"1208 1326 OFFCURVE",
"993 1456 OFFCURVE",
"634 1456 CURVE SMOOTH",
"111 1456 LINE",
"111 0 LINE",
"701 0 LINE SMOOTH",
"1058 3 OFFCURVE",
"1238 146 OFFCURVE",
"1238 431 CURVE SMOOTH"
);
},
{
closed = 1;
nodes = (
"786 1182 OFFCURVE",
"857 1125 OFFCURVE",
"857 1012 CURVE SMOOTH",
"857 904 OFFCURVE",
"795 849 OFFCURVE",
"632 849 CURVE SMOOTH",
"462 849 LINE",
"462 1185 LINE",
"644 1185 LINE SMOOTH"
);
},
{
closed = 1;
nodes = (
"889 344 OFFCURVE",
"834 270 OFFCURVE",
"691 270 CURVE SMOOTH",
"462 270 LINE",
"462 619 LINE",
"717 619 LINE SMOOTH",
"832 616 OFFCURVE",
"889 555 OFFCURVE",
"889 436 CURVE SMOOTH"
);
}
);
width = 1322;
}
);
note = B;
rightKerningGroup = B;
unicode = 0042;
},
{
color = 1;
glyphname = C;
layers = (
{
layerId = "E48BBF63-6980-4D0E-B72F-9E9EC78D2D9A";
paths = (
{
closed = 1;
nodes = (
"1107 161 OFFCURVE",
"942 34 OFFCURVE",
"671 34 CURVE SMOOTH",
"388 34 OFFCURVE",
"198 266 OFFCURVE",
"198 619 CURVE SMOOTH",
"198 839 LINE SMOOTH",
"198 1190 OFFCURVE",
"388 1422 OFFCURVE",
"671 1422 CURVE SMOOTH",
"950 1422 OFFCURVE",
"1105 1285 OFFCURVE",
"1136 1012 CURVE",
"1190 1012 LINE",
"1161 1323 OFFCURVE",
"963 1476 OFFCURVE",
"671 1476 CURVE SMOOTH",
"351 1476 OFFCURVE",
"144 1217 OFFCURVE",
"144 837 CURVE SMOOTH",
"144 619 LINE SMOOTH",
"144 239 OFFCURVE",
"351 -20 OFFCURVE",
"671 -20 CURVE SMOOTH",
"963 -20 OFFCURVE",
"1161 131 OFFCURVE",
"1190 446 CURVE",
"1136 446 LINE"
);
}
);
width = 1327;
},
{
hints = (
{
horizontal = 1;
origin = "{0, 0}";
type = Anchor;
},
{
horizontal = 1;
origin = "{0, 1}";
type = Anchor;
},
{
horizontal = 1;
origin = "{0, 2}";
type = Anchor;
},
{
horizontal = 1;
origin = "{0, 3}";
type = Anchor;
},
{
horizontal = 1;
origin = "{0, 4}";
type = Anchor;
},
{
horizontal = 1;
origin = "{0, 5}";
type = Anchor;
},
{
horizontal = 1;
origin = "{0, 6}";
type = Anchor;
},
{
horizontal = 1;
origin = "{0, 7}";
type = Anchor;
},
{
horizontal = 1;
origin = "{0, 8}";
type = Anchor;
},
{
horizontal = 1;
origin = "{0, 9}";
type = Anchor;
},
{
horizontal = 1;
origin = "{0, 10}";
type = Anchor;
},
{
horizontal = 1;
origin = "{0, 11}";
type = Anchor;
},
{
horizontal = 1;
origin = "{0, 12}";
type = Anchor;
},
{
horizontal = 1;
origin = "{0, 13}";
type = Anchor;
},
{
horizontal = 1;
origin = "{0, 14}";
type = Anchor;
},
{
horizontal = 1;
origin = "{0, 15}";
type = Anchor;
},
{
horizontal = 1;
origin = "{0, 16}";
type = Anchor;
},
{
horizontal = 1;
origin = "{0, 17}";
type = Anchor;
},
{
horizontal = 1;
origin = "{0, 18}";
type = Anchor;
},
{
horizontal = 1;
origin = "{0, 19}";
type = Anchor;
},
{
horizontal = 1;
origin = "{0, 20}";
type = Anchor;
},
{
horizontal = 1;
origin = "{0, 21}";
type = Anchor;
},
{
horizontal = 1;
origin = "{0, 22}";
type = Anchor;
},
{
horizontal = 1;
origin = "{0, 23}";
type = Anchor;
},
{
horizontal = 1;
origin = "{0, 24}";
type = Anchor;
},
{
horizontal = 1;
origin = "{0, 25}";
type = Anchor;
},
{
horizontal = 1;
origin = "{0, 26}";
type = Anchor;
},
{
horizontal = 1;
origin = "{0, 27}";
type = Anchor;
}
);
layerId = "10767FFE-EA3C-45A9-8421-483827593C6E";
paths = (
{
closed = 1;
nodes = (
"1061 209 OFFCURVE",
"937 84 OFFCURVE",
"680 84 CURVE SMOOTH",
"409 84 OFFCURVE",
"255 316 OFFCURVE",
"255 637 CURVE SMOOTH",
"255 821 LINE SMOOTH",
"255 1150 OFFCURVE",
"419 1371 OFFCURVE",
"688 1371 CURVE SMOOTH",
"939 1371 OFFCURVE",
"1063 1236 OFFCURVE",
"1092 1001 CURVE",
"1215 1001 LINE",
"1184 1300 OFFCURVE",
"999 1476 OFFCURVE",
"688 1476 CURVE SMOOTH",
"348 1476 OFFCURVE",
"132 1212 OFFCURVE",
"132 819 CURVE SMOOTH",
"132 626 LINE SMOOTH",
"136 239 OFFCURVE",
"351 -20 OFFCURVE",
"680 -20 CURVE SMOOTH",
"1000 -20 OFFCURVE",
"1184 158 OFFCURVE",
"1215 454 CURVE",
"1092 454 LINE"
);
}
);
width = 1330;
},
{
hints = (
{
horizontal = 1;
origin = "{0, 0}";
type = Anchor;
},
{
horizontal = 1;
origin = "{0, 1}";
type = Anchor;
},
{
horizontal = 1;
origin = "{0, 2}";
type = Anchor;
},
{
horizontal = 1;
origin = "{0, 3}";
type = Anchor;
},
{
horizontal = 1;
origin = "{0, 4}";
type = Anchor;
},
{
horizontal = 1;
origin = "{0, 5}";
type = Anchor;
},
{
horizontal = 1;
origin = "{0, 6}";
type = Anchor;
},
{
horizontal = 1;
origin = "{0, 7}";
type = Anchor;
},
{
horizontal = 1;
origin = "{0, 8}";
type = Anchor;
},
{
horizontal = 1;
origin = "{0, 9}";
type = Anchor;
},
{
horizontal = 1;
origin = "{0, 10}";
type = Anchor;
},
{
horizontal = 1;
origin = "{0, 11}";
type = Anchor;
},
{
horizontal = 1;
origin = "{0, 12}";
type = Anchor;
},
{
horizontal = 1;
origin = "{0, 13}";
type = Anchor;
},
{
horizontal = 1;
origin = "{0, 14}";
type = Anchor;
},
{
horizontal = 1;
origin = "{0, 15}";
type = Anchor;
},
{
horizontal = 1;
origin = "{0, 16}";
type = Anchor;
},
{
horizontal = 1;
origin = "{0, 17}";
type = Anchor;
},
{
horizontal = 1;
origin = "{0, 18}";
type = Anchor;
},
{
horizontal = 1;
origin = "{0, 19}";
type = Anchor;
},
{
horizontal = 1;
origin = "{0, 20}";
type = Anchor;
},
{
horizontal = 1;
origin = "{0, 21}";
type = Anchor;
},
{
horizontal = 1;
origin = "{0, 22}";
type = Anchor;
},
{
horizontal = 1;
origin = "{0, 23}";
type = Anchor;
},
{
horizontal = 1;
origin = "{0, 24}";
type = Anchor;
},
{
horizontal = 1;
origin = "{0, 25}";
type = Anchor;
},
{
horizontal = 1;
origin = "{0, 26}";
type = Anchor;
},
{
horizontal = 1;
origin = "{0, 27}";
type = Anchor;
}
);
layerId = "EFC0C7B3-D173-4BF6-BF18-C95D96D5B447";
paths = (
{
closed = 1;
nodes = (
"1015 258 OFFCURVE",
"933 137 OFFCURVE",
"688 137 CURVE SMOOTH",
"429 137 OFFCURVE",
"312 368 OFFCURVE",
"312 655 CURVE SMOOTH",
"312 802 LINE SMOOTH",
"312 1111 OFFCURVE",
"448 1318 OFFCURVE",
"705 1318 CURVE SMOOTH",
"930 1318 OFFCURVE",
"1019 1192 OFFCURVE",
"1048 989 CURVE",
"1240 989 LINE",
"1211 1276 OFFCURVE",
"1034 1476 OFFCURVE",
"705 1476 CURVE SMOOTH",
"345 1476 OFFCURVE",
"120 1208 OFFCURVE",
"120 800 CURVE SMOOTH",
"120 644 LINE SMOOTH",
"124 243 OFFCURVE",
"349 -20 OFFCURVE",
"688 -20 CURVE SMOOTH",
"1037 -20 OFFCURVE",
"1211 187 OFFCURVE",
"1240 463 CURVE",
"1048 463 LINE"
);
}
);
width = 1333;
},
{
hints = (
{
horizontal = 1;
origin = "{0, 0}";
type = Anchor;
},
{
horizontal = 1;
origin = "{0, 1}";
type = Anchor;
},
{
horizontal = 1;
origin = "{0, 2}";
type = Anchor;
},
{
horizontal = 1;
origin = "{0, 3}";
type = Anchor;
},
{
horizontal = 1;
origin = "{0, 4}";
type = Anchor;
},
{
horizontal = 1;
origin = "{0, 5}";
type = Anchor;
},
{
horizontal = 1;
origin = "{0, 6}";
type = Anchor;
},
{
horizontal = 1;
origin = "{0, 7}";
type = Anchor;
},
{
horizontal = 1;
origin = "{0, 8}";
type = Anchor;
},
{
horizontal = 1;
origin = "{0, 9}";
type = Anchor;
},
{
horizontal = 1;
origin = "{0, 10}";
type = Anchor;
},
{
horizontal = 1;
origin = "{0, 11}";
type = Anchor;
},
{
horizontal = 1;
origin = "{0, 12}";
type = Anchor;
},
{
horizontal = 1;
origin = "{0, 13}";
type = Anchor;
},
{
horizontal = 1;
origin = "{0, 14}";
type = Anchor;
},
{
horizontal = 1;
origin = "{0, 15}";
type = Anchor;
},
{
horizontal = 1;
origin = "{0, 16}";
type = Anchor;
},
{
horizontal = 1;
origin = "{0, 17}";
type = Anchor;
},
{
horizontal = 1;
origin = "{0, 18}";
type = Anchor;
},
{
horizontal = 1;
origin = "{0, 19}";
type = Anchor;
},
{
horizontal = 1;
origin = "{0, 20}";
type = Anchor;
},
{
horizontal = 1;
origin = "{0, 21}";
type = Anchor;
},
{
horizontal = 1;
origin = "{0, 22}";
type = Anchor;
},
{
horizontal = 1;
origin = "{0, 23}";
type = Anchor;
},
{
horizontal = 1;
origin = "{0, 24}";
type = Anchor;
},
{
horizontal = 1;
origin = "{0, 25}";
type = Anchor;
},
{
horizontal = 1;
origin = "{0, 26}";
type = Anchor;
},
{
horizontal = 1;
origin = "{0, 27}";
type = Anchor;
},
{
horizontal = 1;
origin = "{0, 14}";
type = Delta;
settings = {
deltaV = {
"{100, 100, 0, 0, 0}" = {
"14" = 7;
};
};
};
},
{
horizontal = 1;
origin = "{0, 21}";
type = Delta;
settings = {
deltaV = {
"{100, 100, 0, 0, 0}" = {
"14" = -7;
};
};
};
}
);
layerId = "D68CFE38-7B02-4705-B0C1-3A2279678377";
paths = (
{
closed = 1;
nodes = (
"983 287 OFFCURVE",
"906 184 OFFCURVE",
"689 184 CURVE SMOOTH",
"453 184 OFFCURVE",
"357 378 OFFCURVE",
"357 669 CURVE SMOOTH",
"357 794 LINE SMOOTH",
"358 1097 OFFCURVE",
"472 1272 OFFCURVE",
"701 1272 CURVE SMOOTH",
"909 1272 OFFCURVE",
"987 1160 OFFCURVE",
"1008 975 CURVE",
"1260 975 LINE",
"1231 1266 OFFCURVE",
"1049 1476 OFFCURVE",
"701 1476 CURVE SMOOTH",
"334 1476 OFFCURVE",
"102 1206 OFFCURVE",
"102 787 CURVE SMOOTH",
"102 669 LINE SMOOTH",
"102 249 OFFCURVE",
"330 -20 OFFCURVE",
"689 -20 CURVE SMOOTH",
"1046 -20 OFFCURVE",
"1234 191 OFFCURVE",
"1259 474 CURVE",
"1007 474 LINE"
);
}
);
width = 1337;
},
{
hints = (
{
horizontal = 1;
origin = "{0, 0}";
type = Anchor;
},
{
horizontal = 1;
origin = "{0, 1}";
type = Anchor;
},
{
horizontal = 1;
origin = "{0, 2}";
type = Anchor;
},
{
horizontal = 1;
origin = "{0, 3}";
type = Anchor;
},
{
horizontal = 1;
origin = "{0, 4}";
type = Anchor;
},
{
horizontal = 1;
origin = "{0, 5}";
type = Anchor;
},
{
horizontal = 1;
origin = "{0, 6}";
type = Anchor;
},
{
horizontal = 1;
origin = "{0, 7}";
type = Anchor;
},
{
horizontal = 1;
origin = "{0, 8}";
type = Anchor;
},
{
horizontal = 1;
origin = "{0, 9}";
type = Anchor;
},
{
horizontal = 1;
origin = "{0, 10}";
type = Anchor;
},
{
horizontal = 1;
origin = "{0, 11}";
type = Anchor;
},
{
horizontal = 1;
origin = "{0, 12}";
type = Anchor;
},
{
horizontal = 1;
origin = "{0, 13}";
type = Anchor;
},
{
horizontal = 1;
origin = "{0, 14}";
type = Anchor;
},
{
horizontal = 1;
origin = "{0, 15}";
type = Anchor;
},
{
horizontal = 1;
origin = "{0, 16}";
type = Anchor;
},
{
horizontal = 1;
origin = "{0, 17}";
type = Anchor;
},
{
horizontal = 1;
origin = "{0, 18}";
type = Anchor;
},
{
horizontal = 1;
origin = "{0, 19}";
type = Anchor;
},
{
horizontal = 1;
origin = "{0, 20}";
type = Anchor;
},
{
horizontal = 1;
origin = "{0, 21}";
type = Anchor;
},
{
horizontal = 1;
origin = "{0, 22}";
type = Anchor;
},
{
horizontal = 1;
origin = "{0, 23}";
type = Anchor;
},
{
horizontal = 1;
origin = "{0, 24}";
type = Anchor;
},
{
horizontal = 1;
origin = "{0, 25}";
type = Anchor;
},
{
horizontal = 1;
origin = "{0, 26}";
type = Anchor;
},
{
horizontal = 1;
origin = "{0, 27}";
type = Anchor;
},
{
horizontal = 1;
origin = "{0, 9}";
type = Delta;
settings = {
deltaV = {
"{100, 100, 0, 0, 0}" = {
"12" = 8;
};
};
};
},
{
horizontal = 1;
origin = "{0, 10}";
type = Delta;
settings = {
deltaV = {
"{100, 100, 0, 0, 0}" = {
"12" = 8;
};
};
};
},
{
horizontal = 1;
origin = "{0, 8}";
type = Delta;
settings = {
deltaV = {
"{100, 100, 0, 0, 0}" = {
"12" = 8;
};
};
};
}
);
layerId = "8F63CED7-3680-4993-9CF4-CD4CD6484F7E";
paths = (
{
closed = 1;
nodes = (
"959 312 OFFCURVE",
"877 226 OFFCURVE",
"688 226 CURVE SMOOTH",
"475 226 OFFCURVE",
"391 379 OFFCURVE",
"391 680 CURVE SMOOTH",
"391 800 LINE SMOOTH",
"396 1087 OFFCURVE",
"496 1231 OFFCURVE",
"691 1231 CURVE SMOOTH",
"890 1231 OFFCURVE",
"962 1135 OFFCURVE",
"975 962 CURVE",
"1275 962 LINE",
"1247 1261 OFFCURVE",
"1055 1477 OFFCURVE",
"691 1477 CURVE SMOOTH",
"324 1477 OFFCURVE",
"86 1206 OFFCURVE",
"86 775 CURVE SMOOTH",
"86 680 LINE SMOOTH",
"86 249 OFFCURVE",
"315 -20 OFFCURVE",
"688 -20 CURVE SMOOTH",
"1045 -20 OFFCURVE",
"1254 189 OFFCURVE",
"1274 485 CURVE",
"974 485 LINE"
);
}
);
width = 1341;
},
{
hints = (
{
horizontal = 1;
origin = "{0, 0}";
type = Anchor;
},
{
horizontal = 1;
origin = "{0, 1}";
type = Anchor;
},
{
horizontal = 1;
origin = "{0, 2}";
type = Anchor;
},
{
horizontal = 1;
origin = "{0, 3}";
type = Anchor;
},
{
horizontal = 1;
origin = "{0, 4}";
type = Anchor;
},
{
horizontal = 1;
origin = "{0, 5}";
type = Anchor;
},
{
horizontal = 1;
origin = "{0, 6}";
type = Anchor;
},
{
horizontal = 1;
origin = "{0, 7}";
type = Anchor;
},
{
horizontal = 1;
origin = "{0, 8}";
type = Anchor;
},
{
horizontal = 1;
origin = "{0, 9}";
type = Anchor;
},
{
horizontal = 1;
origin = "{0, 10}";
type = Anchor;
},
{
horizontal = 1;
origin = "{0, 11}";
type = Anchor;
},
{
horizontal = 1;
origin = "{0, 12}";
type = Anchor;
},
{
horizontal = 1;
origin = "{0, 13}";
type = Anchor;
},
{
horizontal = 1;
origin = "{0, 14}";
type = Anchor;
},
{
horizontal = 1;
origin = "{0, 15}";
type = Anchor;
},
{
horizontal = 1;
origin = "{0, 16}";
type = Anchor;
},
{
horizontal = 1;
origin = "{0, 17}";
type = Anchor;
},
{
horizontal = 1;
origin = "{0, 18}";
type = Anchor;
},
{
horizontal = 1;
origin = "{0, 19}";
type = Anchor;
},
{
horizontal = 1;
origin = "{0, 20}";
type = Anchor;
},
{
horizontal = 1;
origin = "{0, 21}";
type = Anchor;
},
{
horizontal = 1;
origin = "{0, 22}";
type = Anchor;
},
{
horizontal = 1;
origin = "{0, 23}";
type = Anchor;
},
{
horizontal = 1;
origin = "{0, 24}";
type = Anchor;
},
{
horizontal = 1;
origin = "{0, 25}";
type = Anchor;
},
{
horizontal = 1;
origin = "{0, 26}";
type = Anchor;
},
{
horizontal = 1;
origin = "{0, 27}";
type = Anchor;
}
);
layerId = "D40DD59D-1539-4674-98F2-408D5EBDB9DF";
paths = (
{
closed = 1;
nodes = (
"934 334 OFFCURVE",
"850 255 OFFCURVE",
"687 255 CURVE SMOOTH",
"496 255 OFFCURVE",
"426 379 OFFCURVE",
"426 688 CURVE SMOOTH",
"426 777 LINE SMOOTH",
"427 1081 OFFCURVE",
"510 1202 OFFCURVE",
"682 1202 CURVE SMOOTH",
"869 1202 OFFCURVE",
"936 1117 OFFCURVE",
"941 953 CURVE",
"1291 953 LINE",
"1264 1256 OFFCURVE",
"1062 1477 OFFCURVE",
"682 1477 CURVE SMOOTH",
"313 1477 OFFCURVE",
"70 1206 OFFCURVE",
"70 767 CURVE SMOOTH",
"70 672 LINE SMOOTH",
"75 245 OFFCURVE",
"302 -20 OFFCURVE",
"687 -20 CURVE SMOOTH",
"1046 -20 OFFCURVE",
"1274 188 OFFCURVE",
"1289 493 CURVE",
"939 493 LINE"
);
}
);
width = 1344;
}
);
leftKerningGroup = C;
note = C;
rightKerningGroup = C;
unicode = 0043;
},
{
color = 1;
glyphname = Ccedilla;
layers = (
{
layerId = "E48BBF63-6980-4D0E-B72F-9E9EC78D2D9A";
paths = (
{
closed = 1;
nodes = (
"1107 161 OFFCURVE",
"942 34 OFFCURVE",
"671 34 CURVE SMOOTH",
"388 34 OFFCURVE",
"198 266 OFFCURVE",
"198 619 CURVE SMOOTH",
"198 839 LINE SMOOTH",
"198 1190 OFFCURVE",
"388 1422 OFFCURVE",
"671 1422 CURVE SMOOTH",
"950 1422 OFFCURVE",
"1105 1285 OFFCURVE",
"1136 1012 CURVE",
"1190 1012 LINE",
"1161 1323 OFFCURVE",
"963 1476 OFFCURVE",
"671 1476 CURVE SMOOTH",
"351 1476 OFFCURVE",
"144 1217 OFFCURVE",
"144 837 CURVE SMOOTH",
"144 619 LINE SMOOTH",
"144 239 OFFCURVE",
"351 -20 OFFCURVE",
"671 -20 CURVE SMOOTH",
"963 -20 OFFCURVE",
"1161 131 OFFCURVE",
"1190 446 CURVE",
"1136 446 LINE"
);
},
{
closed = 1;
nodes = (
"752 -144 OFFCURVE",
"817 -167 OFFCURVE",
"817 -255 CURVE SMOOTH",
"817 -354 OFFCURVE",
"687 -396 OFFCURVE",
"580 -396 CURVE",
"587 -445 LINE",
"763 -445 OFFCURVE",
"872 -368 OFFCURVE",
"872 -255 CURVE SMOOTH",
"872 -134 OFFCURVE",
"784 -95 OFFCURVE",
"695 -86 CURVE",
"706 -10 LINE",
"653 -10 LINE",
"628 -131 LINE"
);
}
);
width = 1327;
},
{
layerId = "10767FFE-EA3C-45A9-8421-483827593C6E";
paths = (
{
closed = 1;
nodes = (
"1061 209 OFFCURVE",
"937 84 OFFCURVE",
"680 84 CURVE SMOOTH",
"409 84 OFFCURVE",
"255 316 OFFCURVE",
"255 637 CURVE SMOOTH",
"255 821 LINE SMOOTH",
"255 1150 OFFCURVE",
"419 1371 OFFCURVE",
"688 1371 CURVE SMOOTH",
"939 1371 OFFCURVE",
"1063 1236 OFFCURVE",
"1092 1001 CURVE",
"1215 1001 LINE",
"1184 1300 OFFCURVE",
"999 1476 OFFCURVE",
"688 1476 CURVE SMOOTH",
"348 1476 OFFCURVE",
"132 1212 OFFCURVE",
"132 819 CURVE SMOOTH",
"132 626 LINE SMOOTH",
"136 239 OFFCURVE",
"351 -20 OFFCURVE",
"680 -20 CURVE SMOOTH",
"1000 -20 OFFCURVE",
"1184 158 OFFCURVE",
"1215 454 CURVE",
"1092 454 LINE"
);
},
{
closed = 1;
nodes = (
"727 -149 OFFCURVE",
"783 -170 OFFCURVE",
"783 -247 CURVE SMOOTH",
"783 -332 OFFCURVE",
"681 -368 OFFCURVE",
"582 -368 CURVE",
"589 -445 LINE",
"776 -445 OFFCURVE",
"883 -365 OFFCURVE",
"883 -246 CURVE SMOOTH",
"883 -127 OFFCURVE",
"799 -86 OFFCURVE",
"718 -75 CURVE",
"729 -10 LINE",
"636 -10 LINE",
"608 -138 LINE"
);
}
);
width = 1330;
},
{
layerId = "EFC0C7B3-D173-4BF6-BF18-C95D96D5B447";
paths = (
{
closed = 1;
nodes = (
"1015 258 OFFCURVE",
"933 137 OFFCURVE",
"688 137 CURVE SMOOTH",
"429 137 OFFCURVE",
"312 368 OFFCURVE",
"312 655 CURVE SMOOTH",
"312 802 LINE SMOOTH",
"312 1111 OFFCURVE",
"448 1318 OFFCURVE",
"705 1318 CURVE SMOOTH",
"930 1318 OFFCURVE",
"1019 1192 OFFCURVE",
"1048 989 CURVE",
"1240 989 LINE",
"1211 1276 OFFCURVE",
"1034 1476 OFFCURVE",
"705 1476 CURVE SMOOTH",
"345 1476 OFFCURVE",
"120 1208 OFFCURVE",
"120 800 CURVE SMOOTH",
"120 644 LINE SMOOTH",
"124 243 OFFCURVE",
"349 -20 OFFCURVE",
"688 -20 CURVE SMOOTH",
"1037 -20 OFFCURVE",
"1211 187 OFFCURVE",
"1240 463 CURVE",
"1048 463 LINE"
);
},
{
closed = 1;
nodes = (
"700 -154 OFFCURVE",
"749 -174 OFFCURVE",
"749 -239 CURVE SMOOTH",
"749 -310 OFFCURVE",
"675 -338 OFFCURVE",
"583 -338 CURVE",
"590 -445 LINE",
"789 -445 OFFCURVE",
"893 -361 OFFCURVE",
"893 -236 CURVE SMOOTH",
"893 -120 OFFCURVE",
"817 -76 OFFCURVE",
"740 -63 CURVE",
"752 -10 LINE",
"619 -10 LINE",
"588 -145 LINE"
);
}
);
width = 1333;
},
{
layerId = "D68CFE38-7B02-4705-B0C1-3A2279678377";
paths = (
{
closed = 1;
nodes = (
"983 287 OFFCURVE",
"906 184 OFFCURVE",
"689 184 CURVE SMOOTH",
"453 184 OFFCURVE",
"357 378 OFFCURVE",
"357 669 CURVE SMOOTH",
"357 794 LINE SMOOTH",
"358 1097 OFFCURVE",
"472 1272 OFFCURVE",
"701 1272 CURVE SMOOTH",
"909 1272 OFFCURVE",
"987 1160 OFFCURVE",
"1008 975 CURVE",
"1260 975 LINE",
"1231 1266 OFFCURVE",
"1049 1476 OFFCURVE",
"701 1476 CURVE SMOOTH",
"334 1476 OFFCURVE",
"102 1206 OFFCURVE",
"102 787 CURVE SMOOTH",
"102 669 LINE SMOOTH",
"102 249 OFFCURVE",
"330 -20 OFFCURVE",
"689 -20 CURVE SMOOTH",
"1046 -20 OFFCURVE",
"1234 191 OFFCURVE",
"1259 474 CURVE",
"1007 474 LINE"
);
},
{
closed = 1;
nodes = (
"674 -151 OFFCURVE",
"717 -168 OFFCURVE",
"717 -228 CURVE SMOOTH",
"717 -287 OFFCURVE",
"672 -317 OFFCURVE",
"581 -317 CURVE",
"588 -455 LINE",
"803 -455 OFFCURVE",
"914 -364 OFFCURVE",
"914 -231 CURVE SMOOTH",
"914 -116 OFFCURVE",
"839 -71 OFFCURVE",
"764 -58 CURVE",
"776 -3 LINE",
"598 -3 LINE",
"567 -143 LINE"
);
}
);
width = 1337;
},
{
layerId = "8F63CED7-3680-4993-9CF4-CD4CD6484F7E";
paths = (
{
closed = 1;
nodes = (
"959 312 OFFCURVE",
"877 226 OFFCURVE",
"688 226 CURVE SMOOTH",
"475 226 OFFCURVE",
"391 379 OFFCURVE",
"391 680 CURVE SMOOTH",
"391 800 LINE SMOOTH",
"396 1087 OFFCURVE",
"496 1231 OFFCURVE",
"691 1231 CURVE SMOOTH",
"890 1231 OFFCURVE",
"962 1135 OFFCURVE",
"975 962 CURVE",
"1275 962 LINE",
"1247 1261 OFFCURVE",
"1055 1477 OFFCURVE",
"691 1477 CURVE SMOOTH",
"324 1477 OFFCURVE",
"86 1206 OFFCURVE",
"86 775 CURVE SMOOTH",
"86 680 LINE SMOOTH",
"86 249 OFFCURVE",
"315 -20 OFFCURVE",
"688 -20 CURVE SMOOTH",
"1045 -20 OFFCURVE",
"1254 189 OFFCURVE",
"1274 485 CURVE",
"974 485 LINE"
);
},
{
closed = 1;
nodes = (
"650 -146 OFFCURVE",
"692 -162 OFFCURVE",
"692 -217 CURVE SMOOTH",
"692 -272 OFFCURVE",
"654 -299 OFFCURVE",
"579 -299 CURVE",
"586 -465 LINE",
"817 -465 OFFCURVE",
"936 -370 OFFCURVE",
"936 -227 CURVE SMOOTH",
"936 -112 OFFCURVE",
"859 -67 OFFCURVE",
"786 -54 CURVE",
"797 4 LINE",
"580 4 LINE",
"549 -139 LINE"
);
}
);
width = 1341;
},
{
layerId = "D40DD59D-1539-4674-98F2-408D5EBDB9DF";
paths = (
{
closed = 1;
nodes = (
"934 334 OFFCURVE",
"850 255 OFFCURVE",
"687 255 CURVE SMOOTH",
"496 255 OFFCURVE",
"426 379 OFFCURVE",
"426 688 CURVE SMOOTH",
"426 777 LINE SMOOTH",
"427 1081 OFFCURVE",
"510 1202 OFFCURVE",
"682 1202 CURVE SMOOTH",
"869 1202 OFFCURVE",
"936 1117 OFFCURVE",
"941 953 CURVE",
"1291 953 LINE",
"1264 1256 OFFCURVE",
"1062 1477 OFFCURVE",
"682 1477 CURVE SMOOTH",
"313 1477 OFFCURVE",
"70 1206 OFFCURVE",
"70 767 CURVE SMOOTH",
"70 672 LINE SMOOTH",
"75 245 OFFCURVE",
"302 -20 OFFCURVE",
"687 -20 CURVE SMOOTH",
"1046 -20 OFFCURVE",
"1274 188 OFFCURVE",
"1289 493 CURVE",
"939 493 LINE"
);
},
{
closed = 1;
nodes = (
"621 -141 OFFCURVE",
"666 -166 OFFCURVE",
"666 -209 CURVE SMOOTH",
"666 -260 OFFCURVE",
"636 -286 OFFCURVE",
"577 -286 CURVE",
"584 -472 LINE",
"829 -472 OFFCURVE",
"958 -373 OFFCURVE",
"958 -224 CURVE SMOOTH",
"958 -109 OFFCURVE",
"881 -64 OFFCURVE",
"808 -51 CURVE",
"819 10 LINE",
"562 10 LINE",
"531 -136 LINE"
);
}
);
width = 1344;
}
);
leftKerningGroup = C;
note = Ccedilla;
rightKerningGroup = C;
unicode = 00C7;
},
{
color = 1;
glyphname = D;
layers = (
{
layerId = "E48BBF63-6980-4D0E-B72F-9E9EC78D2D9A";
paths = (
{
closed = 1;
nodes = (
"947 0 OFFCURVE",
"1204 260 OFFCURVE",
"1204 639 CURVE SMOOTH",
"1204 817 LINE SMOOTH",
"1204 1196 OFFCURVE",
"947 1456 OFFCURVE",
"603 1456 CURVE SMOOTH",
"200 1456 LINE",
"200 0 LINE",
"603 0 LINE SMOOTH"
);
},
{
closed = 1;
nodes = (
"916 1402 OFFCURVE",
"1150 1159 OFFCURVE",
"1150 820 CURVE SMOOTH",
"1150 639 LINE SMOOTH",
"1150 296 OFFCURVE",
"916 54 OFFCURVE",
"603 54 CURVE SMOOTH",
"254 54 LINE",
"254 1402 LINE",
"603 1402 LINE SMOOTH"
);
}
);
width = 1340;
},
{
hints = (
{
horizontal = 1;
origin = "{0, 0}";
type = Anchor;
},
{
horizontal = 1;
origin = "{0, 1}";
type = Anchor;
},
{
horizontal = 1;
origin = "{0, 2}";
type = Anchor;
},
{
horizontal = 1;
origin = "{0, 3}";
type = Anchor;
},
{
horizontal = 1;
origin = "{0, 4}";
type = Anchor;
},
{
horizontal = 1;
origin = "{0, 5}";
type = Anchor;
},
{
horizontal = 1;
origin = "{0, 6}";
type = Anchor;
},
{
horizontal = 1;
origin = "{0, 7}";
type = Anchor;
},
{
horizontal = 1;
origin = "{0, 8}";
type = Anchor;
},
{
horizontal = 1;
origin = "{0, 9}";
type = Anchor;
},
{
horizontal = 1;
origin = "{1, 0}";
type = Anchor;
},
{
horizontal = 1;
origin = "{1, 1}";
type = Anchor;
},
{
horizontal = 1;
origin = "{1, 2}";
type = Anchor;
},
{
horizontal = 1;
origin = "{1, 3}";
type = Anchor;
},
{
horizontal = 1;
origin = "{1, 4}";
type = Anchor;
},
{
horizontal = 1;
origin = "{1, 5}";
type = Anchor;
},
{
horizontal = 1;
origin = "{1, 6}";
type = Anchor;
},
{
horizontal = 1;
origin = "{1, 7}";
type = Anchor;
},
{
horizontal = 1;
origin = "{1, 8}";
type = Anchor;
},
{
horizontal = 1;
origin = "{1, 9}";
type = Anchor;
}
);
layerId = "10767FFE-EA3C-45A9-8421-483827593C6E";
paths = (
{
closed = 1;
nodes = (
"958 0 OFFCURVE",
"1213 261 OFFCURVE",
"1213 661 CURVE SMOOTH",
"1213 795 LINE SMOOTH",
"1213 1194 OFFCURVE",
"955 1456 OFFCURVE",
"592 1456 CURVE SMOOTH",
"185 1456 LINE",
"185 0 LINE",
"583 0 LINE SMOOTH"
);
},
{
closed = 1;
nodes = (
"892 1351 OFFCURVE",
"1091 1133 OFFCURVE",
"1091 797 CURVE SMOOTH",
"1091 661 LINE SMOOTH",
"1091 330 OFFCURVE",
"895 104 OFFCURVE",
"583 104 CURVE SMOOTH",
"308 104 LINE",
"308 1351 LINE",
"592 1351 LINE SMOOTH"
);
}
);
width = 1342;
},
{
hints = (
{
horizontal = 1;
origin = "{0, 0}";
type = Anchor;
},
{
horizontal = 1;
origin = "{0, 1}";
type = Anchor;
},
{
horizontal = 1;
origin = "{0, 2}";
type = Anchor;
},
{
horizontal = 1;
origin = "{0, 3}";
type = Anchor;
},
{
horizontal = 1;
origin = "{0, 4}";
type = Anchor;
},
{
horizontal = 1;
origin = "{0, 5}";
type = Anchor;
},
{
horizontal = 1;
origin = "{0, 6}";
type = Anchor;
},
{
horizontal = 1;
origin = "{0, 7}";
type = Anchor;
},
{
horizontal = 1;
origin = "{0, 8}";
type = Anchor;
},
{
horizontal = 1;
origin = "{0, 9}";
type = Anchor;
},
{
horizontal = 1;
origin = "{1, 0}";
type = Anchor;
},
{
horizontal = 1;
origin = "{1, 1}";
type = Anchor;
},
{
horizontal = 1;
origin = "{1, 2}";
type = Anchor;
},
{
horizontal = 1;
origin = "{1, 3}";
type = Anchor;
},
{
horizontal = 1;
origin = "{1, 4}";
type = Anchor;
},
{
horizontal = 1;
origin = "{1, 5}";
type = Anchor;
},
{
horizontal = 1;
origin = "{1, 6}";
type = Anchor;
},
{
horizontal = 1;
origin = "{1, 7}";
type = Anchor;
},
{
horizontal = 1;
origin = "{1, 8}";
type = Anchor;
},
{
horizontal = 1;
origin = "{1, 9}";
type = Anchor;
}
);
layerId = "EFC0C7B3-D173-4BF6-BF18-C95D96D5B447";
paths = (
{
closed = 1;
nodes = (
"967 0 OFFCURVE",
"1223 263 OFFCURVE",
"1223 684 CURVE SMOOTH",
"1223 771 LINE SMOOTH",
"1223 1192 OFFCURVE",
"964 1456 OFFCURVE",
"581 1456 CURVE SMOOTH",
"169 1456 LINE",
"169 0 LINE",
"563 0 LINE SMOOTH"
);
},
{
closed = 1;
nodes = (
"868 1298 OFFCURVE",
"1032 1108 OFFCURVE",
"1032 773 CURVE SMOOTH",
"1032 684 LINE SMOOTH",
"1032 365 OFFCURVE",
"874 157 OFFCURVE",
"563 157 CURVE SMOOTH",
"362 157 LINE",
"362 1298 LINE",
"581 1298 LINE SMOOTH"
);
}
);
width = 1344;
},
{
hints = (
{
horizontal = 1;
origin = "{0, 0}";
type = Anchor;
},
{
horizontal = 1;
origin = "{0, 1}";
type = Anchor;
},
{
horizontal = 1;
origin = "{0, 2}";
type = Anchor;
},
{
horizontal = 1;
origin = "{0, 3}";
type = Anchor;
},
{
horizontal = 1;
origin = "{0, 4}";
type = Anchor;
},
{
horizontal = 1;
origin = "{0, 5}";
type = Anchor;
},
{
horizontal = 1;
origin = "{0, 6}";
type = Anchor;
},
{
horizontal = 1;
origin = "{0, 7}";
type = Anchor;
},
{
horizontal = 1;
origin = "{0, 8}";
type = Anchor;
},
{
horizontal = 1;
origin = "{0, 9}";
type = Anchor;
},
{
horizontal = 1;
origin = "{1, 0}";
type = Anchor;
},
{
horizontal = 1;
origin = "{1, 1}";
type = Anchor;
},
{
horizontal = 1;
origin = "{1, 2}";
type = Anchor;
},
{
horizontal = 1;
origin = "{1, 3}";
type = Anchor;
},
{
horizontal = 1;
origin = "{1, 4}";
type = Anchor;
},
{
horizontal = 1;
origin = "{1, 5}";
type = Anchor;
},
{
horizontal = 1;
origin = "{1, 6}";
type = Anchor;
},
{
horizontal = 1;
origin = "{1, 7}";
type = Anchor;
},
{
horizontal = 1;
origin = "{1, 8}";
type = Anchor;
},
{
horizontal = 1;
origin = "{1, 9}";
type = Anchor;
}
);
layerId = "D68CFE38-7B02-4705-B0C1-3A2279678377";
paths = (
{
closed = 1;
nodes = (
"970 0 OFFCURVE",
"1234 271 OFFCURVE",
"1234 691 CURVE SMOOTH",
"1234 764 LINE SMOOTH",
"1234 1184 OFFCURVE",
"967 1456 OFFCURVE",
"578 1456 CURVE SMOOTH",
"149 1456 LINE",
"149 0 LINE",
"567 0 LINE SMOOTH"
);
},
{
closed = 1;
nodes = (
"839 1253 OFFCURVE",
"981 1081 OFFCURVE",
"981 766 CURVE SMOOTH",
"981 683 LINE SMOOTH",
"978 383 OFFCURVE",
"839 202 OFFCURVE",
"567 202 CURVE SMOOTH",
"401 202 LINE",
"401 1253 LINE",
"578 1253 LINE SMOOTH"
);
}
);
width = 1338;
},
{
hints = (
{
horizontal = 1;
origin = "{0, 0}";
type = Anchor;
},
{
horizontal = 1;
origin = "{0, 1}";
type = Anchor;
},
{
horizontal = 1;
origin = "{0, 2}";
type = Anchor;
},
{
horizontal = 1;
origin = "{0, 3}";
type = Anchor;
},
{
horizontal = 1;
origin = "{0, 4}";
type = Anchor;
},
{
horizontal = 1;
origin = "{0, 5}";
type = Anchor;
},
{
horizontal = 1;
origin = "{0, 6}";
type = Anchor;
},
{
horizontal = 1;
origin = "{0, 7}";
type = Anchor;
},
{
horizontal = 1;
origin = "{0, 8}";
type = Anchor;
},
{
horizontal = 1;
origin = "{0, 9}";
type = Anchor;
},
{
horizontal = 1;
origin = "{1, 0}";
type = Anchor;
},
{
horizontal = 1;
origin = "{1, 1}";
type = Anchor;
},
{
horizontal = 1;
origin = "{1, 2}";
type = Anchor;
},
{
horizontal = 1;
origin = "{1, 3}";
type = Anchor;
},
{
horizontal = 1;
origin = "{1, 4}";
type = Anchor;
},
{
horizontal = 1;
origin = "{1, 5}";
type = Anchor;
},
{
horizontal = 1;
origin = "{1, 6}";
type = Anchor;
},
{
horizontal = 1;
origin = "{1, 7}";
type = Anchor;
},
{
horizontal = 1;
origin = "{1, 8}";
type = Anchor;
},
{
horizontal = 1;
origin = "{1, 9}";
type = Anchor;
},
{
horizontal = 1;
origin = "{1, 0}";
type = Delta;
settings = {
deltaV = {
"{100, 100, 0, 0, 0}" = {
"12" = 4;
};
};
};
},
{
horizontal = 1;
origin = "{1, 8}";
type = Delta;
settings = {
deltaV = {
"{100, 100, 0, 0, 0}" = {
"12" = 4;
};
};
};
},
{
horizontal = 1;
origin = "{1, 9}";
type = Delta;
settings = {
deltaV = {
"{100, 100, 0, 0, 0}" = {
"12" = 4;
};
};
};
},
{
horizontal = 1;
origin = "{1, 8}";
type = Delta;
settings = {
deltaV = {
"{100, 100, 0, 0, 0}" = {
"12" = 4;
};
};
};
}
);
layerId = "8F63CED7-3680-4993-9CF4-CD4CD6484F7E";
paths = (
{
closed = 1;
nodes = (
"972 0 OFFCURVE",
"1244 279 OFFCURVE",
"1244 695 CURVE SMOOTH",
"1244 760 LINE SMOOTH",
"1244 1176 OFFCURVE",
"971 1456 OFFCURVE",
"579 1456 CURVE SMOOTH",
"130 1456 LINE",
"130 0 LINE",
"575 0 LINE SMOOTH"
);
},
{
closed = 1;
nodes = (
"823 1209 OFFCURVE",
"939 1058 OFFCURVE",
"939 762 CURVE SMOOTH",
"939 686 LINE SMOOTH",
"936 401 OFFCURVE",
"811 242 OFFCURVE",
"575 242 CURVE SMOOTH",
"431 242 LINE",
"431 1213 LINE",
"588 1213 LINE SMOOTH"
);
}
);
width = 1332;
},
{
hints = (
{
horizontal = 1;
origin = "{0, 0}";
type = Anchor;
},
{
horizontal = 1;
origin = "{0, 1}";
type = Anchor;
},
{
horizontal = 1;
origin = "{0, 2}";
type = Anchor;
},
{
horizontal = 1;
origin = "{0, 3}";
type = Anchor;
},
{
horizontal = 1;
origin = "{0, 4}";
type = Anchor;
},
{
horizontal = 1;
origin = "{0, 5}";
type = Anchor;
},
{
horizontal = 1;
origin = "{0, 6}";
type = Anchor;
},
{
horizontal = 1;
origin = "{0, 7}";
type = Anchor;
},
{
horizontal = 1;
origin = "{0, 8}";
type = Anchor;
},
{
horizontal = 1;
origin = "{0, 9}";
type = Anchor;
},
{
horizontal = 1;
origin = "{0, 10}";
type = Anchor;
},
{
horizontal = 1;
origin = "{0, 11}";
type = Anchor;
},
{
horizontal = 1;
origin = "{0, 12}";
type = Anchor;
},
{
horizontal = 1;
origin = "{1, 0}";
type = Anchor;
},
{
horizontal = 1;
origin = "{1, 1}";
type = Anchor;
},
{
horizontal = 1;
origin = "{1, 2}";
type = Anchor;
},
{
horizontal = 1;
origin = "{1, 3}";
type = Anchor;
},
{
horizontal = 1;
origin = "{1, 4}";
type = Anchor;
},
{
horizontal = 1;
origin = "{1, 5}";
type = Anchor;
},
{
horizontal = 1;
origin = "{1, 6}";
type = Anchor;
},
{
horizontal = 1;
origin = "{1, 7}";
type = Anchor;
},
{
horizontal = 1;
origin = "{1, 8}";
type = Anchor;
},
{
horizontal = 1;
origin = "{1, 9}";
type = Anchor;
}
);
layerId = "D40DD59D-1539-4674-98F2-408D5EBDB9DF";
paths = (
{
closed = 1;
nodes = (
"977 1 OFFCURVE",
"1254 288 OFFCURVE",
"1254 697 CURVE SMOOTH",
"1254 758 LINE SMOOTH",
"1254 895 OFFCURVE",
"1225 1017 OFFCURVE",
"1168 1122 CURVE SMOOTH",
"1052 1332 OFFCURVE",
"842 1456 OFFCURVE",
"579 1456 CURVE SMOOTH",
"111 1456 LINE",
"111 0 LINE",
"586 0 LINE SMOOTH"
);
},
{
closed = 1;
nodes = (
"795 1179 OFFCURVE",
"896 1037 OFFCURVE",
"896 760 CURVE SMOOTH",
"895 649 LINE SMOOTH",
"884 396 OFFCURVE",
"780 270 OFFCURVE",
"584 270 CURVE SMOOTH",
"462 270 LINE",
"462 1185 LINE",
"592 1185 LINE SMOOTH"
);
}
);
width = 1325;
}
);
note = D;
rightKerningGroup = D;
unicode = 0044;
},
{
color = 1;
glyphname = Eth;
layers = (
{
layerId = "E48BBF63-6980-4D0E-B72F-9E9EC78D2D9A";
paths = (
{
closed = 1;
nodes = (
"230 713 LINE",
"230 0 LINE",
"633 0 LINE SMOOTH",
"977 0 OFFCURVE",
"1234 260 OFFCURVE",
"1234 639 CURVE SMOOTH",
"1234 817 LINE SMOOTH",
"1234 1196 OFFCURVE",
"977 1456 OFFCURVE",
"633 1456 CURVE SMOOTH",
"230 1456 LINE",
"230 767 LINE",
"90 767 LINE",
"90 713 LINE"
);
},
{
closed = 1;
nodes = (
"284 767 LINE",
"284 1402 LINE",
"633 1402 LINE SMOOTH",
"946 1402 OFFCURVE",
"1180 1159 OFFCURVE",
"1180 820 CURVE SMOOTH",
"1180 639 LINE SMOOTH",
"1180 296 OFFCURVE",
"946 54 OFFCURVE",
"633 54 CURVE SMOOTH",
"284 54 LINE",
"284 713 LINE",
"677 713 LINE",
"677 767 LINE"
);
}
);
width = 1370;
},
{
layerId = "10767FFE-EA3C-45A9-8421-483827593C6E";
paths = (
{
closed = 1;
nodes = (
"215 690 LINE",
"215 0 LINE",
"613 0 LINE SMOOTH",
"988 0 OFFCURVE",
"1243 261 OFFCURVE",
"1243 661 CURVE SMOOTH",
"1243 795 LINE SMOOTH",
"1243 1194 OFFCURVE",
"985 1456 OFFCURVE",
"622 1456 CURVE SMOOTH",
"215 1456 LINE",
"215 792 LINE",
"64 792 LINE",
"64 690 LINE"
);
},
{
closed = 1;
nodes = (
"338 792 LINE",
"338 1351 LINE",
"622 1351 LINE SMOOTH",
"922 1351 OFFCURVE",
"1121 1133 OFFCURVE",
"1121 797 CURVE SMOOTH",
"1121 661 LINE SMOOTH",
"1121 330 OFFCURVE",
"925 104 OFFCURVE",
"613 104 CURVE SMOOTH",
"338 104 LINE",
"338 690 LINE",
"675 690 LINE",
"675 792 LINE"
);
}
);
width = 1372;
},
{
layerId = "EFC0C7B3-D173-4BF6-BF18-C95D96D5B447";
paths = (
{
closed = 1;
nodes = (
"199 665 LINE",
"199 0 LINE",
"593 0 LINE SMOOTH",
"997 0 OFFCURVE",
"1253 263 OFFCURVE",
"1253 684 CURVE SMOOTH",
"1253 771 LINE SMOOTH",
"1253 1192 OFFCURVE",
"994 1456 OFFCURVE",
"611 1456 CURVE SMOOTH",
"199 1456 LINE",
"199 817 LINE",
"37 817 LINE",
"37 665 LINE"
);
},
{
closed = 1;
nodes = (
"392 817 LINE",
"392 1298 LINE",
"611 1298 LINE SMOOTH",
"898 1298 OFFCURVE",
"1062 1108 OFFCURVE",
"1062 773 CURVE SMOOTH",
"1062 680 LINE SMOOTH",
"1061 365 OFFCURVE",
"904 158 OFFCURVE",
"596 157 CURVE SMOOTH",
"392 157 LINE",
"392 665 LINE",
"674 665 LINE",
"674 817 LINE"
);
}
);
width = 1374;
},
{
layerId = "D68CFE38-7B02-4705-B0C1-3A2279678377";
paths = (
{
closed = 1;
nodes = (
"179 652 LINE",
"179 0 LINE",
"597 0 LINE SMOOTH",
"1000 0 OFFCURVE",
"1264 271 OFFCURVE",
"1264 691 CURVE SMOOTH",
"1264 764 LINE SMOOTH",
"1264 1184 OFFCURVE",
"997 1456 OFFCURVE",
"608 1456 CURVE SMOOTH",
"179 1456 LINE",
"179 823 LINE",
"21 823 LINE",
"21 652 LINE"
);
},
{
closed = 1;
nodes = (
"431 823 LINE",
"431 1253 LINE",
"608 1253 LINE SMOOTH",
"869 1253 OFFCURVE",
"1011 1081 OFFCURVE",
"1011 766 CURVE SMOOTH",
"1011 683 LINE SMOOTH",
"1008 383 OFFCURVE",
"869 202 OFFCURVE",
"597 202 CURVE SMOOTH",
"431 202 LINE",
"431 652 LINE",
"691 652 LINE",
"691 823 LINE"
);
}
);
width = 1368;
},
{
layerId = "8F63CED7-3680-4993-9CF4-CD4CD6484F7E";
paths = (
{
closed = 1;
nodes = (
"160 641 LINE",
"160 0 LINE",
"605 0 LINE SMOOTH",
"1002 0 OFFCURVE",
"1274 279 OFFCURVE",
"1274 695 CURVE SMOOTH",
"1274 760 LINE SMOOTH",
"1274 1176 OFFCURVE",
"1001 1456 OFFCURVE",
"609 1456 CURVE SMOOTH",
"160 1456 LINE",
"160 824 LINE",
"11 824 LINE",
"11 641 LINE"
);
},
{
closed = 1;
nodes = (
"461 824 LINE",
"461 1213 LINE",
"618 1213 LINE SMOOTH",
"853 1209 OFFCURVE",
"969 1058 OFFCURVE",
"969 762 CURVE SMOOTH",
"969 695 LINE SMOOTH",
"969 404 OFFCURVE",
"844 242 OFFCURVE",
"605 242 CURVE SMOOTH",
"461 242 LINE",
"461 641 LINE",
"711 641 LINE",
"711 824 LINE"
);
}
);
width = 1362;
},
{
layerId = "D40DD59D-1539-4674-98F2-408D5EBDB9DF";
paths = (
{
closed = 1;
nodes = (
"141 635 LINE",
"141 0 LINE",
"616 0 LINE SMOOTH",
"1007 1 OFFCURVE",
"1284 288 OFFCURVE",
"1284 697 CURVE SMOOTH",
"1284 758 LINE SMOOTH",
"1284 895 OFFCURVE",
"1255 1017 OFFCURVE",
"1198 1122 CURVE SMOOTH",
"1082 1332 OFFCURVE",
"872 1456 OFFCURVE",
"609 1456 CURVE SMOOTH",
"141 1456 LINE",
"141 826 LINE",
"-1 826 LINE",
"-1 635 LINE"
);
},
{
closed = 1;
nodes = (
"492 826 LINE",
"492 1185 LINE",
"622 1185 LINE SMOOTH",
"825 1179 OFFCURVE",
"926 1037 OFFCURVE",
"926 760 CURVE SMOOTH",
"926 675 LINE SMOOTH",
"921 411 OFFCURVE",
"821 276 OFFCURVE",
"627 270 CURVE SMOOTH",
"492 270 LINE",
"492 635 LINE",
"730 635 LINE",
"730 826 LINE"
);
}
);
width = 1355;
}
);
note = Eth;
rightKerningGroup = D;
unicode = 00D0;
},
{
color = 1;
glyphname = E;
layers = (
{
layerId = "E48BBF63-6980-4D0E-B72F-9E9EC78D2D9A";
paths = (
{
closed = 1;
nodes = (
"1086 54 LINE",
"254 54 LINE",
"254 722 LINE",
"984 722 LINE",
"984 776 LINE",
"254 776 LINE",
"254 1402 LINE",
"1086 1402 LINE",
"1086 1456 LINE",
"200 1456 LINE",
"200 0 LINE",
"1086 0 LINE"
);
}
);
width = 1166;
},
{
hints = (
{
horizontal = 1;
origin = "{0, 0}";
type = Anchor;
},
{
horizontal = 1;
origin = "{0, 1}";
type = Anchor;
},
{
horizontal = 1;
origin = "{0, 2}";
type = Anchor;
},
{
horizontal = 1;
origin = "{0, 3}";
type = Anchor;
},
{
horizontal = 1;
origin = "{0, 4}";
type = Anchor;
},
{
horizontal = 1;
origin = "{0, 5}";
type = Anchor;
},
{
horizontal = 1;
origin = "{0, 6}";
type = Anchor;
},
{
horizontal = 1;
origin = "{0, 7}";
type = Anchor;
},
{
horizontal = 1;
origin = "{0, 8}";
type = Anchor;
},
{
horizontal = 1;
origin = "{0, 9}";
type = Anchor;
},
{
horizontal = 1;
origin = "{0, 10}";
type = Anchor;
},
{
horizontal = 1;
origin = "{0, 11}";
type = Anchor;
},
{
horizontal = 1;
origin = "{0, 4}";
type = Delta;
settings = {
deltaV = {
"{100, 100, 0, 0, 0}" = {
"14" = 8;
};
};
};
},
{
horizontal = 1;
origin = "{0, 5}";
type = Delta;
settings = {
deltaV = {
"{100, 100, 0, 0, 0}" = {
"14" = 8;
};
};
};
}
);
layerId = "10767FFE-EA3C-45A9-8421-483827593C6E";
paths = (
{
closed = 1;
nodes = (
"1090 104 LINE",
"308 104 LINE",
"308 698 LINE",
"988 698 LINE",
"988 803 LINE",
"308 803 LINE",
"308 1351 LINE",
"1085 1351 LINE",
"1085 1456 LINE",
"185 1456 LINE",
"185 0 LINE",
"1090 0 LINE"
);
}
);
width = 1165;
},
{
hints = (
{
horizontal = 1;
origin = "{0, 0}";
type = Anchor;
},
{
horizontal = 1;
origin = "{0, 1}";
type = Anchor;
},
{
horizontal = 1;
origin = "{0, 2}";
type = Anchor;
},
{
horizontal = 1;
origin = "{0, 3}";
type = Anchor;
},
{
horizontal = 1;
origin = "{0, 4}";
type = Anchor;
},
{
horizontal = 1;
origin = "{0, 5}";
type = Anchor;
},
{
horizontal = 1;
origin = "{0, 6}";
type = Anchor;
},
{
horizontal = 1;
origin = "{0, 7}";
type = Anchor;
},
{
horizontal = 1;
origin = "{0, 8}";
type = Anchor;
},
{
horizontal = 1;
origin = "{0, 9}";
type = Anchor;
},
{
horizontal = 1;
origin = "{0, 10}";
type = Anchor;
},
{
horizontal = 1;
origin = "{0, 11}";
type = Anchor;
}
);
layerId = "EFC0C7B3-D173-4BF6-BF18-C95D96D5B447";
paths = (
{
closed = 1;
nodes = (
"1094 157 LINE",
"362 157 LINE",
"362 673 LINE",
"992 673 LINE",
"992 830 LINE",
"362 830 LINE",
"362 1298 LINE",
"1084 1298 LINE",
"1084 1456 LINE",
"169 1456 LINE",
"169 0 LINE",
"1094 0 LINE"
);
}
);
width = 1164;
},
{
hints = (
{
horizontal = 1;
origin = "{0, 0}";
type = Anchor;
},
{
horizontal = 1;
origin = "{0, 1}";
type = Anchor;
},
{
horizontal = 1;
origin = "{0, 2}";
type = Anchor;
},
{
horizontal = 1;
origin = "{0, 3}";
type = Anchor;
},
{
horizontal = 1;
origin = "{0, 4}";
type = Anchor;
},
{
horizontal = 1;
origin = "{0, 5}";
type = Anchor;
},
{
horizontal = 1;
origin = "{0, 6}";
type = Anchor;
},
{
horizontal = 1;
origin = "{0, 7}";
type = Anchor;
},
{
horizontal = 1;
origin = "{0, 8}";
type = Anchor;
},
{
horizontal = 1;
origin = "{0, 9}";
type = Anchor;
},
{
horizontal = 1;
origin = "{0, 10}";
type = Anchor;
},
{
horizontal = 1;
origin = "{0, 11}";
type = Anchor;
}
);
layerId = "D68CFE38-7B02-4705-B0C1-3A2279678377";
paths = (
{
closed = 1;
nodes = (
"1101 202 LINE",
"401 202 LINE",
"401 651 LINE",
"999 651 LINE",
"999 850 LINE",
"401 850 LINE",
"401 1253 LINE",
"1094 1253 LINE",
"1094 1456 LINE",
"149 1456 LINE",
"149 0 LINE",
"1101 0 LINE"
);
}
);
width = 1158;
},
{
hints = (
{
horizontal = 1;
origin = "{0, 0}";
type = Anchor;
},
{
horizontal = 1;
origin = "{0, 1}";
type = Anchor;
},
{
horizontal = 1;
origin = "{0, 2}";
type = Anchor;
},
{
horizontal = 1;
origin = "{0, 3}";
type = Anchor;
},
{
horizontal = 1;
origin = "{0, 4}";
type = Anchor;
},
{
horizontal = 1;
origin = "{0, 5}";
type = Anchor;
},
{
horizontal = 1;
origin = "{0, 6}";
type = Anchor;
},
{
horizontal = 1;
origin = "{0, 7}";
type = Anchor;
},
{
horizontal = 1;
origin = "{0, 8}";
type = Anchor;
},
{
horizontal = 1;
origin = "{0, 9}";
type = Anchor;
},
{
horizontal = 1;
origin = "{0, 10}";
type = Anchor;
},
{
horizontal = 1;
origin = "{0, 11}";
type = Anchor;
},
{
horizontal = 1;
origin = "{0, 6}";
type = Delta;
settings = {
deltaV = {
"{100, 100, 0, 0, 0}" = {
"12" = 8;
};
};
};
},
{
horizontal = 1;
origin = "{0, 7}";
type = Delta;
settings = {
deltaV = {
"{100, 100, 0, 0, 0}" = {
"12" = 8;
};
};
};
}
);
layerId = "8F63CED7-3680-4993-9CF4-CD4CD6484F7E";
paths = (
{
closed = 1;
nodes = (
"1107 242 LINE",
"431 242 LINE",
"431 631 LINE",
"1006 631 LINE",
"1006 866 LINE",
"431 866 LINE",
"431 1213 LINE",
"1104 1213 LINE",
"1104 1456 LINE",
"130 1456 LINE",
"130 0 LINE",
"1107 0 LINE"
);
}
);
width = 1152;
},
{
hints = (
{
horizontal = 1;
origin = "{0, 0}";
type = Anchor;
},
{
horizontal = 1;
origin = "{0, 1}";
type = Anchor;
},
{
horizontal = 1;
origin = "{0, 2}";
type = Anchor;
},
{
horizontal = 1;
origin = "{0, 3}";
type = Anchor;
},
{
horizontal = 1;
origin = "{0, 4}";
type = Anchor;
},
{
horizontal = 1;
origin = "{0, 5}";
type = Anchor;
},
{
horizontal = 1;
origin = "{0, 6}";
type = Anchor;
},
{
horizontal = 1;
origin = "{0, 7}";
type = Anchor;
},
{
horizontal = 1;
origin = "{0, 8}";
type = Anchor;
},
{
horizontal = 1;
origin = "{0, 9}";
type = Anchor;
},
{
horizontal = 1;
origin = "{0, 10}";
type = Anchor;
},
{
horizontal = 1;
origin = "{0, 11}";
type = Anchor;
}
);
layerId = "D40DD59D-1539-4674-98F2-408D5EBDB9DF";
paths = (
{
closed = 1;
nodes = (
"1113 270 LINE",
"462 270 LINE",
"462 617 LINE",
"1013 617 LINE",
"1013 878 LINE",
"462 878 LINE",
"462 1185 LINE",
"1116 1185 LINE",
"1116 1456 LINE",
"111 1456 LINE",
"111 0 LINE",
"1113 0 LINE"
);
}
);
width = 1146;
}
);
note = E;
rightKerningGroup = E;
unicode = 0045;
},
{
color = 1;
glyphname = Eacute;
layers = (
{
layerId = "E48BBF63-6980-4D0E-B72F-9E9EC78D2D9A";
paths = (
{
closed = 1;
nodes = (
"1086 54 LINE",
"254 54 LINE",
"254 722 LINE",
"984 722 LINE",
"984 776 LINE",
"254 776 LINE",
"254 1402 LINE",
"1086 1402 LINE",
"1086 1456 LINE",
"200 1456 LINE",
"200 0 LINE",
"1086 0 LINE"
);
},
{
closed = 1;
nodes = (
"834 1855 LINE",
"768 1855 LINE",
"579 1589 LINE",
"639 1589 LINE"
);
}
);
width = 1166;
},
{
layerId = "10767FFE-EA3C-45A9-8421-483827593C6E";
paths = (
{
closed = 1;
nodes = (
"1090 104 LINE",
"308 104 LINE",
"308 698 LINE",
"988 698 LINE",
"988 803 LINE",
"308 803 LINE",
"308 1351 LINE",
"1085 1351 LINE",
"1085 1456 LINE",
"185 1456 LINE",
"185 0 LINE",
"1090 0 LINE"
);
},
{
closed = 1;
nodes = (
"884 1856 LINE",
"739 1856 LINE",
"548 1577 LINE",
"652 1577 LINE"
);
}
);
width = 1165;
},
{
layerId = "EFC0C7B3-D173-4BF6-BF18-C95D96D5B447";
paths = (
{
closed = 1;
nodes = (
"1094 157 LINE",
"362 157 LINE",
"362 673 LINE",
"992 673 LINE",
"992 830 LINE",
"362 830 LINE",
"362 1298 LINE",
"1084 1298 LINE",
"1084 1456 LINE",
"169 1456 LINE",
"169 0 LINE",
"1094 0 LINE"
);
},
{
closed = 1;
nodes = (
"934 1858 LINE",
"711 1858 LINE",
"517 1564 LINE",
"666 1564 LINE"
);
}
);
width = 1164;
},
{
layerId = "D68CFE38-7B02-4705-B0C1-3A2279678377";
paths = (
{
closed = 1;
nodes = (
"1101 202 LINE",
"401 202 LINE",
"401 651 LINE",
"999 651 LINE",
"999 850 LINE",
"401 850 LINE",
"401 1253 LINE",
"1094 1253 LINE",
"1094 1456 LINE",
"149 1456 LINE",
"149 0 LINE",
"1101 0 LINE"
);
},
{
closed = 1;
nodes = (
"976 1854 LINE",
"699 1854 LINE",
"504 1552 LINE",
"699 1552 LINE"
);
}
);
width = 1158;
},
{
layerId = "8F63CED7-3680-4993-9CF4-CD4CD6484F7E";
paths = (
{
closed = 1;
nodes = (
"1107 242 LINE",
"431 242 LINE",
"431 631 LINE",
"1006 631 LINE",
"1006 866 LINE",
"431 866 LINE",
"431 1213 LINE",
"1104 1213 LINE",
"1104 1456 LINE",
"130 1456 LINE",
"130 0 LINE",
"1107 0 LINE"
);
},
{
closed = 1;
nodes = (
"1008 1849 LINE",
"693 1849 LINE",
"497 1540 LINE",
"731 1540 LINE"
);
}
);
width = 1152;
},
{
layerId = "D40DD59D-1539-4674-98F2-408D5EBDB9DF";
paths = (
{
closed = 1;
nodes = (
"1113 270 LINE",
"462 270 LINE",
"462 617 LINE",
"1013 617 LINE",
"1013 878 LINE",
"462 878 LINE",
"462 1185 LINE",
"1116 1185 LINE",
"1116 1456 LINE",
"111 1456 LINE",
"111 0 LINE",
"1113 0 LINE"
);
},
{
closed = 1;
nodes = (
"1044 1846 LINE",
"688 1846 LINE",
"490 1532 LINE",
"765 1532 LINE"
);
}
);
width = 1146;
}
);
note = Eacute;
rightKerningGroup = E;
unicode = 00C9;
},
{
color = 1;
glyphname = Ecircumflex;
layers = (
{
layerId = "E48BBF63-6980-4D0E-B72F-9E9EC78D2D9A";
paths = (
{
closed = 1;
nodes = (
"1086 54 LINE",
"254 54 LINE",
"254 722 LINE",
"984 722 LINE",
"984 776 LINE",
"254 776 LINE",
"254 1402 LINE",
"1086 1402 LINE",
"1086 1456 LINE",
"200 1456 LINE",
"200 0 LINE",
"1086 0 LINE"
);
},
{
closed = 1;
nodes = (
"369 1597 LINE",
"369 1583 LINE",
"433 1583 LINE",
"618 1779 LINE",
"805 1583 LINE",
"873 1583 LINE",
"873 1593 LINE",
"639 1836 LINE",
"599 1836 LINE"
);
}
);
width = 1166;
},
{
layerId = "10767FFE-EA3C-45A9-8421-483827593C6E";
paths = (
{
closed = 1;
nodes = (
"1090 104 LINE",
"308 104 LINE",
"308 698 LINE",
"988 698 LINE",
"988 803 LINE",
"308 803 LINE",
"308 1351 LINE",
"1085 1351 LINE",
"1085 1456 LINE",
"185 1456 LINE",
"185 0 LINE",
"1090 0 LINE"
);
},
{
closed = 1;
nodes = (
"343 1591 LINE",
"343 1579 LINE",
"451 1579 LINE",
"618 1762 LINE",
"787 1579 LINE",
"897 1579 LINE",
"897 1589 LINE",
"657 1846 LINE",
"581 1846 LINE"
);
}
);
width = 1165;
},
{
layerId = "EFC0C7B3-D173-4BF6-BF18-C95D96D5B447";
paths = (
{
closed = 1;
nodes = (
"1094 157 LINE",
"362 157 LINE",
"362 673 LINE",
"992 673 LINE",
"992 830 LINE",
"362 830 LINE",
"362 1298 LINE",
"1084 1298 LINE",
"1084 1456 LINE",
"169 1456 LINE",
"169 0 LINE",
"1094 0 LINE"
);
},
{
closed = 1;
nodes = (
"318 1586 LINE",
"318 1575 LINE",
"470 1575 LINE",
"619 1744 LINE",
"769 1575 LINE",
"923 1575 LINE",
"923 1585 LINE",
"675 1858 LINE",
"563 1858 LINE"
);
}
);
width = 1164;
},
{
layerId = "D68CFE38-7B02-4705-B0C1-3A2279678377";
paths = (
{
closed = 1;
nodes = (
"1101 202 LINE",
"401 202 LINE",
"401 651 LINE",
"999 651 LINE",
"999 850 LINE",
"401 850 LINE",
"401 1253 LINE",
"1094 1253 LINE",
"1094 1456 LINE",
"149 1456 LINE",
"149 0 LINE",
"1101 0 LINE"
);
},
{
closed = 1;
nodes = (
"285 1580 LINE",
"285 1567 LINE",
"477 1567 LINE",
"627 1723 LINE",
"777 1567 LINE",
"972 1567 LINE",
"972 1578 LINE",
"698 1855 LINE",
"555 1855 LINE"
);
}
);
width = 1158;
},
{
layerId = "8F63CED7-3680-4993-9CF4-CD4CD6484F7E";
paths = (
{
closed = 1;
nodes = (
"1107 242 LINE",
"431 242 LINE",
"431 631 LINE",
"1006 631 LINE",
"1006 866 LINE",
"431 866 LINE",
"431 1213 LINE",
"1104 1213 LINE",
"1104 1456 LINE",
"130 1456 LINE",
"130 0 LINE",
"1107 0 LINE"
);
},
{
closed = 1;
nodes = (
"256 1573 LINE",
"256 1558 LINE",
"481 1558 LINE",
"635 1702 LINE",
"790 1558 LINE",
"1019 1558 LINE",
"1019 1570 LINE",
"719 1850 LINE",
"552 1850 LINE"
);
}
);
width = 1152;
},
{
layerId = "D40DD59D-1539-4674-98F2-408D5EBDB9DF";
paths = (
{
closed = 1;
nodes = (
"1113 270 LINE",
"462 270 LINE",
"462 617 LINE",
"1013 617 LINE",
"1013 878 LINE",
"462 878 LINE",
"462 1185 LINE",
"1116 1185 LINE",
"1116 1456 LINE",
"111 1456 LINE",
"111 0 LINE",
"1113 0 LINE"
);
},
{
closed = 1;
nodes = (
"226 1569 LINE",
"226 1552 LINE",
"486 1552 LINE",
"644 1688 LINE",
"804 1552 LINE",
"1069 1552 LINE",
"1069 1565 LINE",
"741 1846 LINE",
"548 1846 LINE"
);
}
);
width = 1146;
}
);
note = Ecircumflex;
rightKerningGroup = E;
unicode = 00CA;
},
{
color = 1;
glyphname = Edieresis;
layers = (
{
layerId = "E48BBF63-6980-4D0E-B72F-9E9EC78D2D9A";
paths = (
{
closed = 1;
nodes = (
"1086 54 LINE",
"254 54 LINE",
"254 722 LINE",
"984 722 LINE",
"984 776 LINE",
"254 776 LINE",
"254 1402 LINE",
"1086 1402 LINE",
"1086 1456 LINE",
"200 1456 LINE",
"200 0 LINE",
"1086 0 LINE"
);
},
{
closed = 1;
nodes = (
"343 1703 OFFCURVE",
"361 1685 OFFCURVE",
"398 1685 CURVE SMOOTH",
"435 1685 OFFCURVE",
"454 1703 OFFCURVE",
"454 1740 CURVE SMOOTH",
"454 1777 OFFCURVE",
"435 1796 OFFCURVE",
"398 1796 CURVE SMOOTH",
"361 1796 OFFCURVE",
"343 1777 OFFCURVE",
"343 1740 CURVE SMOOTH"
);
},
{
closed = 1;
nodes = (
"788 1703 OFFCURVE",
"806 1685 OFFCURVE",
"843 1685 CURVE SMOOTH",
"880 1685 OFFCURVE",
"899 1703 OFFCURVE",
"899 1740 CURVE SMOOTH",
"899 1777 OFFCURVE",
"880 1796 OFFCURVE",
"843 1796 CURVE SMOOTH",
"806 1796 OFFCURVE",
"788 1777 OFFCURVE",
"788 1740 CURVE SMOOTH"
);
}
);
width = 1166;
},
{
layerId = "10767FFE-EA3C-45A9-8421-483827593C6E";
paths = (
{
closed = 1;
nodes = (
"1090 104 LINE",
"308 104 LINE",
"308 698 LINE",
"988 698 LINE",
"988 803 LINE",
"308 803 LINE",
"308 1351 LINE",
"1085 1351 LINE",
"1085 1456 LINE",
"185 1456 LINE",
"185 0 LINE",
"1090 0 LINE"
);
},
{
closed = 1;
nodes = (
"320 1664 OFFCURVE",
"347 1637 OFFCURVE",
"402 1637 CURVE SMOOTH",
"457 1637 OFFCURVE",
"485 1664 OFFCURVE",
"485 1717 CURVE SMOOTH",
"485 1770 OFFCURVE",
"457 1797 OFFCURVE",
"402 1797 CURVE SMOOTH",
"347 1797 OFFCURVE",
"320 1770 OFFCURVE",
"320 1717 CURVE SMOOTH"
);
},
{
closed = 1;
nodes = (
"757 1663 OFFCURVE",
"784 1637 OFFCURVE",
"839 1637 CURVE SMOOTH",
"894 1637 OFFCURVE",
"922 1663 OFFCURVE",
"922 1716 CURVE SMOOTH",
"922 1770 OFFCURVE",
"894 1797 OFFCURVE",
"839 1797 CURVE SMOOTH",
"784 1797 OFFCURVE",
"757 1770 OFFCURVE",
"757 1716 CURVE SMOOTH"
);
}
);
width = 1165;
},
{
layerId = "EFC0C7B3-D173-4BF6-BF18-C95D96D5B447";
paths = (
{
closed = 1;
nodes = (
"1094 157 LINE",
"362 157 LINE",
"362 673 LINE",
"992 673 LINE",
"992 830 LINE",
"362 830 LINE",
"362 1298 LINE",
"1084 1298 LINE",
"1084 1456 LINE",
"169 1456 LINE",
"169 0 LINE",
"1094 0 LINE"
);
},
{
closed = 1;
nodes = (
"297 1636 OFFCURVE",
"335 1589 OFFCURVE",
"406 1589 CURVE SMOOTH",
"478 1589 OFFCURVE",
"516 1636 OFFCURVE",
"516 1693 CURVE SMOOTH",
"516 1753 OFFCURVE",
"478 1800 OFFCURVE",
"406 1800 CURVE SMOOTH",
"335 1800 OFFCURVE",
"297 1753 OFFCURVE",
"297 1693 CURVE SMOOTH"
);
},
{
closed = 1;
nodes = (
"728 1634 OFFCURVE",
"765 1587 OFFCURVE",
"837 1587 CURVE SMOOTH",
"908 1587 OFFCURVE",
"947 1634 OFFCURVE",
"947 1691 CURVE SMOOTH",
"947 1751 OFFCURVE",
"908 1798 OFFCURVE",
"837 1798 CURVE SMOOTH",
"765 1798 OFFCURVE",
"728 1751 OFFCURVE",
"728 1691 CURVE SMOOTH"
);
}
);
width = 1164;
},
{
layerId = "D68CFE38-7B02-4705-B0C1-3A2279678377";
paths = (
{
closed = 1;
nodes = (
"1101 202 LINE",
"401 202 LINE",
"401 651 LINE",
"999 651 LINE",
"999 850 LINE",
"401 850 LINE",
"401 1253 LINE",
"1094 1253 LINE",
"1094 1456 LINE",
"149 1456 LINE",
"149 0 LINE",
"1101 0 LINE"
);
},
{
closed = 1;
nodes = (
"274 1617 OFFCURVE",
"323 1567 OFFCURVE",
"400 1567 CURVE SMOOTH",
"477 1567 OFFCURVE",
"527 1617 OFFCURVE",
"527 1684 CURVE SMOOTH",
"527 1751 OFFCURVE",
"477 1803 OFFCURVE",
"400 1803 CURVE SMOOTH",
"323 1803 OFFCURVE",
"274 1751 OFFCURVE",
"274 1684 CURVE SMOOTH"
);
},
{
closed = 1;
nodes = (
"731 1618 OFFCURVE",
"778 1566 OFFCURVE",
"857 1566 CURVE SMOOTH",
"936 1566 OFFCURVE",
"984 1618 OFFCURVE",
"984 1683 CURVE SMOOTH",
"984 1750 OFFCURVE",
"936 1802 OFFCURVE",
"857 1802 CURVE SMOOTH",
"778 1802 OFFCURVE",
"731 1750 OFFCURVE",
"731 1683 CURVE SMOOTH"
);
}
);
width = 1158;
},
{
layerId = "8F63CED7-3680-4993-9CF4-CD4CD6484F7E";
paths = (
{
closed = 1;
nodes = (
"1107 242 LINE",
"431 242 LINE",
"431 631 LINE",
"1006 631 LINE",
"1006 866 LINE",
"431 866 LINE",
"431 1213 LINE",
"1104 1213 LINE",
"1104 1456 LINE",
"130 1456 LINE",
"130 0 LINE",
"1107 0 LINE"
);
},
{
closed = 1;
nodes = (
"252 1607 OFFCURVE",
"310 1552 OFFCURVE",
"391 1552 CURVE SMOOTH",
"471 1552 OFFCURVE",
"529 1607 OFFCURVE",
"529 1679 CURVE SMOOTH",
"529 1750 OFFCURVE",
"471 1806 OFFCURVE",
"391 1806 CURVE SMOOTH",
"310 1806 OFFCURVE",
"252 1750 OFFCURVE",
"252 1679 CURVE SMOOTH"
);
},
{
closed = 1;
nodes = (
"740 1607 OFFCURVE",
"798 1551 OFFCURVE",
"878 1551 CURVE SMOOTH",
"959 1551 OFFCURVE",
"1017 1607 OFFCURVE",
"1017 1678 CURVE SMOOTH",
"1017 1749 OFFCURVE",
"959 1805 OFFCURVE",
"878 1805 CURVE SMOOTH",
"798 1805 OFFCURVE",
"740 1749 OFFCURVE",
"740 1678 CURVE SMOOTH"
);
}
);
width = 1152;
},
{
layerId = "D40DD59D-1539-4674-98F2-408D5EBDB9DF";
paths = (
{
closed = 1;
nodes = (
"1113 270 LINE",
"462 270 LINE",
"462 617 LINE",
"1013 617 LINE",
"1013 878 LINE",
"462 878 LINE",
"462 1185 LINE",
"1116 1185 LINE",
"1116 1456 LINE",
"111 1456 LINE",
"111 0 LINE",
"1113 0 LINE"
);
},
{
closed = 1;
nodes = (
"231 1600 OFFCURVE",
"299 1542 OFFCURVE",
"382 1542 CURVE SMOOTH",
"465 1542 OFFCURVE",
"533 1600 OFFCURVE",
"533 1675 CURVE SMOOTH",
"533 1750 OFFCURVE",
"465 1808 OFFCURVE",
"382 1808 CURVE SMOOTH",
"299 1808 OFFCURVE",
"231 1750 OFFCURVE",
"231 1675 CURVE SMOOTH"
);
},
{
closed = 1;
nodes = (
"750 1600 OFFCURVE",
"820 1542 OFFCURVE",
"901 1542 CURVE SMOOTH",
"984 1542 OFFCURVE",
"1052 1600 OFFCURVE",
"1052 1675 CURVE SMOOTH",
"1052 1750 OFFCURVE",
"984 1808 OFFCURVE",
"901 1808 CURVE SMOOTH",
"820 1808 OFFCURVE",
"750 1750 OFFCURVE",
"750 1675 CURVE SMOOTH"
);
}
);
width = 1146;
}
);
note = Edieresis;
rightKerningGroup = E;
unicode = 00CB;
},
{
color = 1;
glyphname = Egrave;
layers = (
{
layerId = "E48BBF63-6980-4D0E-B72F-9E9EC78D2D9A";
paths = (
{
closed = 1;
nodes = (
"1086 54 LINE",
"254 54 LINE",
"254 722 LINE",
"984 722 LINE",
"984 776 LINE",
"254 776 LINE",
"254 1402 LINE",
"1086 1402 LINE",
"1086 1456 LINE",
"200 1456 LINE",
"200 0 LINE",
"1086 0 LINE"
);
},
{
closed = 1;
nodes = (
"603 1589 LINE",
"662 1589 LINE",
"474 1855 LINE",
"408 1855 LINE"
);
}
);
width = 1166;
},
{
layerId = "10767FFE-EA3C-45A9-8421-483827593C6E";
paths = (
{
closed = 1;
nodes = (
"1090 104 LINE",
"308 104 LINE",
"308 698 LINE",
"988 698 LINE",
"988 803 LINE",
"308 803 LINE",
"308 1351 LINE",
"1085 1351 LINE",
"1085 1456 LINE",
"185 1456 LINE",
"185 0 LINE",
"1090 0 LINE"
);
},
{
closed = 1;
nodes = (
"584 1577 LINE",
"693 1577 LINE",
"502 1856 LINE",
"357 1856 LINE"
);
}
);
width = 1165;
},
{
layerId = "EFC0C7B3-D173-4BF6-BF18-C95D96D5B447";
paths = (
{
closed = 1;
nodes = (
"1094 157 LINE",
"362 157 LINE",
"362 673 LINE",
"992 673 LINE",
"992 830 LINE",
"362 830 LINE",
"362 1298 LINE",
"1084 1298 LINE",
"1084 1456 LINE",
"169 1456 LINE",
"169 0 LINE",
"1094 0 LINE"
);
},
{
closed = 1;
nodes = (
"565 1564 LINE",
"724 1564 LINE",
"531 1858 LINE",
"307 1858 LINE"
);
}
);
width = 1164;
},
{
layerId = "D68CFE38-7B02-4705-B0C1-3A2279678377";
paths = (
{
closed = 1;
nodes = (
"1101 202 LINE",
"401 202 LINE",
"401 651 LINE",
"999 651 LINE",
"999 850 LINE",
"401 850 LINE",
"401 1253 LINE",
"1094 1253 LINE",
"1094 1456 LINE",
"149 1456 LINE",
"149 0 LINE",
"1101 0 LINE"
);
},
{
closed = 1;
nodes = (
"552 1552 LINE",
"754 1552 LINE",
"558 1854 LINE",
"281 1854 LINE"
);
}
);
width = 1158;
},
{
layerId = "8F63CED7-3680-4993-9CF4-CD4CD6484F7E";
paths = (
{
closed = 1;
nodes = (
"1107 242 LINE",
"431 242 LINE",
"431 631 LINE",
"1006 631 LINE",
"1006 866 LINE",
"431 866 LINE",
"431 1213 LINE",
"1104 1213 LINE",
"1104 1456 LINE",
"130 1456 LINE",
"130 0 LINE",
"1107 0 LINE"
);
},
{
closed = 1;
nodes = (
"541 1540 LINE",
"778 1540 LINE",
"581 1849 LINE",
"265 1849 LINE"
);
}
);
width = 1152;
},
{
layerId = "D40DD59D-1539-4674-98F2-408D5EBDB9DF";
paths = (
{
closed = 1;
nodes = (
"1113 270 LINE",
"462 270 LINE",
"462 617 LINE",
"1013 617 LINE",
"1013 878 LINE",
"462 878 LINE",
"462 1185 LINE",
"1116 1185 LINE",
"1116 1456 LINE",
"111 1456 LINE",
"111 0 LINE",
"1113 0 LINE"
);
},
{
closed = 1;
nodes = (
"531 1532 LINE",
"804 1532 LINE",
"605 1846 LINE",
"249 1846 LINE"
);
}
);
width = 1146;
}
);
note = Egrave;
rightKerningGroup = E;
unicode = 00C8;
},
{
color = 1;
glyphname = F;
layers = (
{
layerId = "E48BBF63-6980-4D0E-B72F-9E9EC78D2D9A";
paths = (
{
closed = 1;
nodes = (
"254 716 LINE",
"1000 716 LINE",
"1000 772 LINE",
"254 772 LINE",
"254 1402 LINE",
"1102 1402 LINE",
"1102 1456 LINE",
"200 1456 LINE",
"200 0 LINE",
"254 0 LINE"
);
}
);
width = 1172;
},
{
hints = (
{
horizontal = 1;
origin = "{0, 0}";
type = Anchor;
},
{
horizontal = 1;
origin = "{0, 1}";
type = Anchor;
},
{
horizontal = 1;
origin = "{0, 2}";
type = Anchor;
},
{
horizontal = 1;
origin = "{0, 3}";
type = Anchor;
},
{
horizontal = 1;
origin = "{0, 4}";
type = Anchor;
},
{
horizontal = 1;
origin = "{0, 5}";
type = Anchor;
},
{
horizontal = 1;
origin = "{0, 6}";
type = Anchor;
},
{
horizontal = 1;
origin = "{0, 7}";
type = Anchor;
},
{
horizontal = 1;
origin = "{0, 8}";
type = Anchor;
},
{
horizontal = 1;
origin = "{0, 9}";
type = Anchor;
},
{
horizontal = 1;
origin = "{0, 2}";
type = Delta;
settings = {
deltaV = {
"{100, 100, 0, 0, 0}" = {
"14" = 8;
};
};
};
},
{
horizontal = 1;
origin = "{0, 3}";
type = Delta;
settings = {
deltaV = {
"{100, 100, 0, 0, 0}" = {
"14" = 8;
};
};
};
}
);
layerId = "10767FFE-EA3C-45A9-8421-483827593C6E";
paths = (
{
closed = 1;
nodes = (
"308 680 LINE",
"986 680 LINE",
"986 786 LINE",
"308 786 LINE",
"308 1351 LINE",
"1087 1351 LINE",
"1087 1456 LINE",
"185 1456 LINE",
"185 0 LINE",
"308 0 LINE"
);
}
);
width = 1152;
},
{
hints = (
{
horizontal = 1;
origin = "{0, 0}";
type = Anchor;
},
{
horizontal = 1;
origin = "{0, 1}";
type = Anchor;
},
{
horizontal = 1;
origin = "{0, 2}";
type = Anchor;
},
{
horizontal = 1;
origin = "{0, 3}";
type = Anchor;
},
{
horizontal = 1;
origin = "{0, 4}";
type = Anchor;
},
{
horizontal = 1;
origin = "{0, 5}";
type = Anchor;
},
{
horizontal = 1;
origin = "{0, 6}";
type = Anchor;
},
{
horizontal = 1;
origin = "{0, 7}";
type = Anchor;
},
{
horizontal = 1;
origin = "{0, 8}";
type = Anchor;
},
{
horizontal = 1;
origin = "{0, 9}";
type = Anchor;
}
);
layerId = "EFC0C7B3-D173-4BF6-BF18-C95D96D5B447";
paths = (
{
closed = 1;
nodes = (
"362 643 LINE",
"972 643 LINE",
"972 801 LINE",
"362 801 LINE",
"362 1298 LINE",
"1071 1298 LINE",
"1071 1456 LINE",
"169 1456 LINE",
"169 0 LINE",
"362 0 LINE"
);
}
);
width = 1132;
},
{
hints = (
{
horizontal = 1;
origin = "{0, 0}";
type = Anchor;
},
{
horizontal = 1;
origin = "{0, 1}";
type = Anchor;
},
{
horizontal = 1;
origin = "{0, 2}";
type = Anchor;
},
{
horizontal = 1;
origin = "{0, 3}";
type = Anchor;
},
{
horizontal = 1;
origin = "{0, 4}";
type = Anchor;
},
{
horizontal = 1;
origin = "{0, 5}";
type = Anchor;
},
{
horizontal = 1;
origin = "{0, 6}";
type = Anchor;
},
{
horizontal = 1;
origin = "{0, 7}";
type = Anchor;
},
{
horizontal = 1;
origin = "{0, 8}";
type = Anchor;
},
{
horizontal = 1;
origin = "{0, 9}";
type = Anchor;
}
);
layerId = "D68CFE38-7B02-4705-B0C1-3A2279678377";
paths = (
{
closed = 1;
nodes = (
"401 617 LINE",
"987 617 LINE",
"987 819 LINE",
"401 819 LINE",
"401 1253 LINE",
"1073 1253 LINE",
"1073 1456 LINE",
"149 1456 LINE",
"149 0 LINE",
"401 0 LINE"
);
}
);
width = 1126;
},
{
hints = (
{
horizontal = 1;
origin = "{0, 0}";
type = Anchor;
},
{
horizontal = 1;
origin = "{0, 1}";
type = Anchor;
},
{
horizontal = 1;
origin = "{0, 2}";
type = Anchor;
},
{
horizontal = 1;
origin = "{0, 3}";
type = Anchor;
},
{
horizontal = 1;
origin = "{0, 4}";
type = Anchor;
},
{
horizontal = 1;
origin = "{0, 5}";
type = Anchor;
},
{
horizontal = 1;
origin = "{0, 6}";
type = Anchor;
},
{
horizontal = 1;
origin = "{0, 7}";
type = Anchor;
},
{
horizontal = 1;
origin = "{0, 8}";
type = Anchor;
},
{
horizontal = 1;
origin = "{0, 9}";
type = Anchor;
},
{
horizontal = 1;
origin = "{0, 4}";
type = Delta;
settings = {
deltaV = {
"{100, 100, 0, 0, 0}" = {
"12" = 0;
};
};
};
},
{
horizontal = 1;
origin = "{0, 5}";
type = Delta;
settings = {
deltaV = {
"{100, 100, 0, 0, 0}" = {
"12" = 0;
};
};
};
},
{
horizontal = 1;
origin = "{0, 0}";
type = Delta;
settings = {
deltaV = {
"{100, 100, 0, 0, 0}" = {
"12" = 8;
};
};
};
},
{
horizontal = 1;
origin = "{0, 1}";
type = Delta;
settings = {
deltaV = {
"{100, 100, 0, 0, 0}" = {
"12" = 8;
};
};
};
}
);
layerId = "8F63CED7-3680-4993-9CF4-CD4CD6484F7E";
paths = (
{
closed = 1;
nodes = (
"431 595 LINE",
"1007 595 LINE",
"1007 837 LINE",
"431 837 LINE",
"431 1213 LINE",
"1079 1213 LINE",
"1079 1456 LINE",
"130 1456 LINE",
"130 0 LINE",
"431 0 LINE"
);
}
);
width = 1123;
},
{
hints = (
{
horizontal = 1;
origin = "{0, 0}";
type = Anchor;
},
{
horizontal = 1;
origin = "{0, 1}";
type = Anchor;
},
{
horizontal = 1;
origin = "{0, 2}";
type = Anchor;
},
{
horizontal = 1;
origin = "{0, 3}";
type = Anchor;
},
{
horizontal = 1;
origin = "{0, 4}";
type = Anchor;
},
{
horizontal = 1;
origin = "{0, 5}";
type = Anchor;
},
{
horizontal = 1;
origin = "{0, 6}";
type = Anchor;
},
{
horizontal = 1;
origin = "{0, 7}";
type = Anchor;
},
{
horizontal = 1;
origin = "{0, 8}";
type = Anchor;
},
{
horizontal = 1;
origin = "{0, 9}";
type = Anchor;
}
);
layerId = "D40DD59D-1539-4674-98F2-408D5EBDB9DF";
paths = (
{
closed = 1;
nodes = (
"462 580 LINE",
"1028 580 LINE",
"1028 850 LINE",
"462 850 LINE",
"462 1185 LINE",
"1085 1185 LINE",
"1085 1456 LINE",
"111 1456 LINE",
"111 0 LINE",
"462 0 LINE"
);
}
);
width = 1120;
}
);
note = F;
unicode = 0046;
},
{
color = 1;
glyphname = G;
layers = (
{
layerId = "E48BBF63-6980-4D0E-B72F-9E9EC78D2D9A";
paths = (
{
closed = 1;
nodes = (
"727 605 LINE",
"1172 605 LINE",
"1172 181 LINE",
"1127 122 OFFCURVE",
"968 34 OFFCURVE",
"729 34 CURVE SMOOTH",
"421 34 OFFCURVE",
"222 277 OFFCURVE",
"222 620 CURVE SMOOTH",
"222 860 LINE SMOOTH",
"222 1188 OFFCURVE",
"415 1422 OFFCURVE",
"712 1422 CURVE SMOOTH",
"1015 1422 OFFCURVE",
"1141 1251 OFFCURVE",
"1170 1062 CURVE",
"1224 1062 LINE",
"1197 1295 OFFCURVE",
"1027 1476 OFFCURVE",
"712 1476 CURVE SMOOTH",
"391 1476 OFFCURVE",
"168 1225 OFFCURVE",
"168 858 CURVE SMOOTH",
"168 620 LINE SMOOTH",
"168 240 OFFCURVE",
"397 -20 OFFCURVE",
"729 -20 CURVE SMOOTH",
"871 -20 OFFCURVE",
"984 1 OFFCURVE",
"1067 43 CURVE SMOOTH",
"1150 85 OFFCURVE",
"1203 123 OFFCURVE",
"1226 156 CURVE",
"1226 660 LINE",
"727 660 LINE"
);
}
);
width = 1406;
},
{
hints = (
{
horizontal = 1;
origin = "{0, 0}";
type = Anchor;
},
{
horizontal = 1;
origin = "{0, 1}";
type = Anchor;
},
{
horizontal = 1;
origin = "{0, 2}";
type = Anchor;
},
{
horizontal = 1;
origin = "{0, 3}";
type = Anchor;
},
{
horizontal = 1;
origin = "{0, 4}";
type = Anchor;
},
{
horizontal = 1;
origin = "{0, 5}";
type = Anchor;
},
{
horizontal = 1;
origin = "{0, 6}";
type = Anchor;
},
{
horizontal = 1;
origin = "{0, 7}";
type = Anchor;
},
{
horizontal = 1;
origin = "{0, 8}";
type = Anchor;
},
{
horizontal = 1;
origin = "{0, 9}";
type = Anchor;
},
{
horizontal = 1;
origin = "{0, 10}";
type = Anchor;
},
{
horizontal = 1;
origin = "{0, 11}";
type = Anchor;
},
{
horizontal = 1;
origin = "{0, 12}";
type = Anchor;
},
{
horizontal = 1;
origin = "{0, 13}";
type = Anchor;
},
{
horizontal = 1;
origin = "{0, 14}";
type = Anchor;
},
{
horizontal = 1;
origin = "{0, 15}";
type = Anchor;
},
{
horizontal = 1;
origin = "{0, 16}";
type = Anchor;
},
{
horizontal = 1;
origin = "{0, 17}";
type = Anchor;
},
{
horizontal = 1;
origin = "{0, 18}";
type = Anchor;
},
{
horizontal = 1;
origin = "{0, 19}";
type = Anchor;
},
{
horizontal = 1;
origin = "{0, 20}";
type = Anchor;
},
{
horizontal = 1;
origin = "{0, 21}";
type = Anchor;
},
{
horizontal = 1;
origin = "{0, 22}";
type = Anchor;
},
{
horizontal = 1;
origin = "{0, 23}";
type = Anchor;
},
{
horizontal = 1;
origin = "{0, 24}";
type = Anchor;
},
{
horizontal = 1;
origin = "{0, 25}";
type = Anchor;
},
{
horizontal = 1;
origin = "{0, 26}";
type = Anchor;
},
{
horizontal = 1;
origin = "{0, 27}";
type = Anchor;
},
{
horizontal = 1;
origin = "{0, 28}";
type = Anchor;
},
{
horizontal = 1;
origin = "{0, 29}";
type = Anchor;
},
{
horizontal = 1;
origin = "{0, 30}";
type = Anchor;
},
{
horizontal = 1;
origin = "{0, 31}";
type = Anchor;
},
{
horizontal = 1;
origin = "{0, 32}";
type = Anchor;
},
{
horizontal = 1;
origin = "{0, 33}";
type = Anchor;
},
{
horizontal = 1;
origin = "{0, 34}";
type = Anchor;
},
{
horizontal = 1;
origin = "{0, 35}";
type = Anchor;
},
{
horizontal = 1;
origin = "{0, 36}";
type = Anchor;
},
{
horizontal = 1;
origin = "{0, 37}";
type = Anchor;
}
);
layerId = "10767FFE-EA3C-45A9-8421-483827593C6E";
paths = (
{
closed = 1;
nodes = (
"722 587 LINE",
"1113 587 LINE",
"1113 211 LINE",
"1092 186 OFFCURVE",
"1051 158 OFFCURVE",
"989 129 CURVE SMOOTH",
"927 99 OFFCURVE",
"841 84 OFFCURVE",
"730 84 CURVE SMOOTH",
"453 84 OFFCURVE",
"269 306 OFFCURVE",
"269 645 CURVE SMOOTH",
"269 824 LINE SMOOTH",
"269 1152 OFFCURVE",
"426 1371 OFFCURVE",
"710 1371 CURVE SMOOTH",
"973 1371 OFFCURVE",
"1082 1219 OFFCURVE",
"1111 1046 CURVE",
"1234 1046 LINE",
"1202 1291 OFFCURVE",
"1034 1476 OFFCURVE",
"710 1476 CURVE SMOOTH",
"361 1476 OFFCURVE",
"145 1222 OFFCURVE",
"145 822 CURVE SMOOTH",
"145 645 LINE SMOOTH",
"145 238 OFFCURVE",
"386 -20 OFFCURVE",
"729 -20 CURVE SMOOTH",
"882 -20 OFFCURVE",
"998 3 OFFCURVE",
"1078 50 CURVE SMOOTH",
"1157 96 OFFCURVE",
"1210 137 OFFCURVE",
"1235 174 CURVE",
"1235 692 LINE",
"722 692 LINE"
);
}
);
width = 1401;
},
{
hints = (
{
horizontal = 1;
origin = "{0, 0}";
type = Anchor;
},
{
horizontal = 1;
origin = "{0, 1}";
type = Anchor;
},
{
horizontal = 1;
origin = "{0, 2}";
type = Anchor;
},
{
horizontal = 1;
origin = "{0, 3}";
type = Anchor;
},
{
horizontal = 1;
origin = "{0, 4}";
type = Anchor;
},
{
horizontal = 1;
origin = "{0, 5}";
type = Anchor;
},
{
horizontal = 1;
origin = "{0, 6}";
type = Anchor;
},
{
horizontal = 1;
origin = "{0, 7}";
type = Anchor;
},
{
horizontal = 1;
origin = "{0, 8}";
type = Anchor;
},
{
horizontal = 1;
origin = "{0, 9}";
type = Anchor;
},
{
horizontal = 1;
origin = "{0, 10}";
type = Anchor;
},
{
horizontal = 1;
origin = "{0, 11}";
type = Anchor;
},
{
horizontal = 1;
origin = "{0, 12}";
type = Anchor;
},
{
horizontal = 1;
origin = "{0, 13}";
type = Anchor;
},
{
horizontal = 1;
origin = "{0, 14}";
type = Anchor;
},
{
horizontal = 1;
origin = "{0, 15}";
type = Anchor;
},
{
horizontal = 1;
origin = "{0, 16}";
type = Anchor;
},
{
horizontal = 1;
origin = "{0, 17}";
type = Anchor;
},
{
horizontal = 1;
origin = "{0, 18}";
type = Anchor;
},
{
horizontal = 1;
origin = "{0, 19}";
type = Anchor;
},
{
horizontal = 1;
origin = "{0, 20}";
type = Anchor;
},
{
horizontal = 1;
origin = "{0, 21}";
type = Anchor;
},
{
horizontal = 1;
origin = "{0, 22}";
type = Anchor;
},
{
horizontal = 1;
origin = "{0, 23}";
type = Anchor;
},
{
horizontal = 1;
origin = "{0, 24}";
type = Anchor;
},
{
horizontal = 1;
origin = "{0, 25}";
type = Anchor;
},
{
horizontal = 1;
origin = "{0, 26}";
type = Anchor;
},
{
horizontal = 1;
origin = "{0, 27}";
type = Anchor;
},
{
horizontal = 1;
origin = "{0, 28}";
type = Anchor;
},
{
horizontal = 1;
origin = "{0, 29}";
type = Anchor;
},
{
horizontal = 1;
origin = "{0, 30}";
type = Anchor;
},
{
horizontal = 1;
origin = "{0, 31}";
type = Anchor;
},
{
horizontal = 1;
origin = "{0, 32}";
type = Anchor;
},
{
horizontal = 1;
origin = "{0, 33}";
type = Anchor;
},
{
horizontal = 1;
origin = "{0, 34}";
type = Anchor;
},
{
horizontal = 1;
origin = "{0, 35}";
type = Anchor;
},
{
horizontal = 1;
origin = "{0, 36}";
type = Anchor;
},
{
horizontal = 1;
origin = "{0, 37}";
type = Anchor;
}
);
layerId = "EFC0C7B3-D173-4BF6-BF18-C95D96D5B447";
paths = (
{
closed = 1;
nodes = (
"716 569 LINE",
"1053 569 LINE",
"1053 243 LINE",
"1034 221 OFFCURVE",
"1001 198 OFFCURVE",
"955 174 CURVE SMOOTH",
"909 149 OFFCURVE",
"834 137 OFFCURVE",
"731 137 CURVE SMOOTH",
"482 137 OFFCURVE",
"316 336 OFFCURVE",
"316 672 CURVE SMOOTH",
"316 792 LINE SMOOTH",
"317 1116 OFFCURVE",
"440 1318 OFFCURVE",
"708 1318 CURVE SMOOTH",
"931 1318 OFFCURVE",
"1025 1187 OFFCURVE",
"1052 1030 CURVE",
"1245 1030 LINE",
"1208 1289 OFFCURVE",
"1041 1476 OFFCURVE",
"708 1476 CURVE SMOOTH",
"332 1476 OFFCURVE",
"122 1218 OFFCURVE",
"122 785 CURVE SMOOTH",
"122 672 LINE SMOOTH",
"122 236 OFFCURVE",
"375 -20 OFFCURVE",
"730 -20 CURVE SMOOTH",
"893 -20 OFFCURVE",
"1012 5 OFFCURVE",
"1089 56 CURVE SMOOTH",
"1166 107 OFFCURVE",
"1218 152 OFFCURVE",
"1245 192 CURVE",
"1245 725 LINE",
"716 725 LINE"
);
}
);
width = 1395;
},
{
hints = (
{
horizontal = 1;
origin = "{0, 0}";
type = Anchor;
},
{
horizontal = 1;
origin = "{0, 1}";
type = Anchor;
},
{
horizontal = 1;
origin = "{0, 2}";
type = Anchor;
},
{
horizontal = 1;
origin = "{0, 3}";
type = Anchor;
},
{
horizontal = 1;
origin = "{0, 4}";
type = Anchor;
},
{
horizontal = 1;
origin = "{0, 5}";
type = Anchor;
},
{
horizontal = 1;
origin = "{0, 6}";
type = Anchor;
},
{
horizontal = 1;
origin = "{0, 7}";
type = Anchor;
},
{
horizontal = 1;
origin = "{0, 8}";
type = Anchor;
},
{
horizontal = 1;
origin = "{0, 9}";
type = Anchor;
},
{
horizontal = 1;
origin = "{0, 10}";
type = Anchor;
},
{
horizontal = 1;
origin = "{0, 11}";
type = Anchor;
},
{
horizontal = 1;
origin = "{0, 12}";
type = Anchor;
},
{
horizontal = 1;
origin = "{0, 13}";
type = Anchor;
},
{
horizontal = 1;
origin = "{0, 14}";
type = Anchor;
},
{
horizontal = 1;
origin = "{0, 15}";
type = Anchor;
},
{
horizontal = 1;
origin = "{0, 16}";
type = Anchor;
},
{
horizontal = 1;
origin = "{0, 17}";
type = Anchor;
},
{
horizontal = 1;
origin = "{0, 18}";
type = Anchor;
},
{
horizontal = 1;
origin = "{0, 19}";
type = Anchor;
},
{
horizontal = 1;
origin = "{0, 20}";
type = Anchor;
},
{
horizontal = 1;
origin = "{0, 21}";
type = Anchor;
},
{
horizontal = 1;
origin = "{0, 22}";
type = Anchor;
},
{
horizontal = 1;
origin = "{0, 23}";
type = Anchor;
},
{
horizontal = 1;
origin = "{0, 24}";
type = Anchor;
},
{
horizontal = 1;
origin = "{0, 25}";
type = Anchor;
},
{
horizontal = 1;
origin = "{0, 26}";
type = Anchor;
},
{
horizontal = 1;
origin = "{0, 27}";
type = Anchor;
},
{
horizontal = 1;
origin = "{0, 28}";
type = Anchor;
},
{
horizontal = 1;
origin = "{0, 29}";
type = Anchor;
},
{
horizontal = 1;
origin = "{0, 30}";
type = Anchor;
},
{
horizontal = 1;
origin = "{0, 31}";
type = Anchor;
},
{
horizontal = 1;
origin = "{0, 32}";
type = Anchor;
},
{
horizontal = 1;
origin = "{0, 33}";
type = Anchor;
},
{
horizontal = 1;
origin = "{0, 34}";
type = Anchor;
},
{
horizontal = 1;
origin = "{0, 20}";
type = Delta;
settings = {
deltaV = {
"{100, 100, 0, 0, 0}" = {
"14" = 7;
};
};
};
},
{
horizontal = 1;
origin = "{0, 21}";
type = Delta;
settings = {
deltaV = {
"{100, 100, 0, 0, 0}" = {
"14" = 1;
};
};
};
}
);
layerId = "D68CFE38-7B02-4705-B0C1-3A2279678377";
paths = (
{
closed = 1;
nodes = (
"713 556 LINE",
"1012 556 LINE",
"1012 270 LINE",
"995 251 OFFCURVE",
"966 232 OFFCURVE",
"927 212 CURVE SMOOTH",
"887 192 OFFCURVE",
"823 182 OFFCURVE",
"736 182 CURVE SMOOTH",
"503 182 OFFCURVE",
"361 360 OFFCURVE",
"361 680 CURVE SMOOTH",
"361 787 LINE SMOOTH",
"364 1096 OFFCURVE",
"475 1273 OFFCURVE",
"710 1273 CURVE SMOOTH",
"907 1273 OFFCURVE",
"991 1162 OFFCURVE",
"1016 1011 CURVE",
"1264 1011 LINE",
"1229 1282 OFFCURVE",
"1062 1476 OFFCURVE",
"706 1476 CURVE SMOOTH",
"330 1476 OFFCURVE",
"106 1220 OFFCURVE",
"106 775 CURVE SMOOTH",
"106 680 LINE SMOOTH",
"106 235 OFFCURVE",
"361 -20 OFFCURVE",
"728 -20 CURVE SMOOTH",
"1053 -20 OFFCURVE",
"1203 107 OFFCURVE",
"1264 190 CURVE",
"1264 747 LINE",
"713 747 LINE"
);
}
);
width = 1395;
},
{
hints = (
{
horizontal = 1;
origin = "{0, 0}";
type = Anchor;
},
{
horizontal = 1;
origin = "{0, 1}";
type = Anchor;
},
{
horizontal = 1;
origin = "{0, 2}";
type = Anchor;
},
{
horizontal = 1;
origin = "{0, 3}";
type = Anchor;
},
{
horizontal = 1;
origin = "{0, 4}";
type = Anchor;
},
{
horizontal = 1;
origin = "{0, 5}";
type = Anchor;
},
{
horizontal = 1;
origin = "{0, 6}";
type = Anchor;
},
{
horizontal = 1;
origin = "{0, 7}";
type = Anchor;
},
{
horizontal = 1;
origin = "{0, 8}";
type = Anchor;
},
{
horizontal = 1;
origin = "{0, 9}";
type = Anchor;
},
{
horizontal = 1;
origin = "{0, 10}";
type = Anchor;
},
{
horizontal = 1;
origin = "{0, 11}";
type = Anchor;
},
{
horizontal = 1;
origin = "{0, 12}";
type = Anchor;
},
{
horizontal = 1;
origin = "{0, 13}";
type = Anchor;
},
{
horizontal = 1;
origin = "{0, 14}";
type = Anchor;
},
{
horizontal = 1;
origin = "{0, 15}";
type = Anchor;
},
{
horizontal = 1;
origin = "{0, 16}";
type = Anchor;
},
{
horizontal = 1;
origin = "{0, 17}";
type = Anchor;
},
{
horizontal = 1;
origin = "{0, 18}";
type = Anchor;
},
{
horizontal = 1;
origin = "{0, 19}";
type = Anchor;
},
{
horizontal = 1;
origin = "{0, 20}";
type = Anchor;
},
{
horizontal = 1;
origin = "{0, 21}";
type = Anchor;
},
{
horizontal = 1;
origin = "{0, 22}";
type = Anchor;
},
{
horizontal = 1;
origin = "{0, 23}";
type = Anchor;
},
{
horizontal = 1;
origin = "{0, 24}";
type = Anchor;
},
{
horizontal = 1;
origin = "{0, 25}";
type = Anchor;
},
{
horizontal = 1;
origin = "{0, 26}";
type = Anchor;
},
{
horizontal = 1;
origin = "{0, 27}";
type = Anchor;
},
{
horizontal = 1;
origin = "{0, 28}";
type = Anchor;
},
{
horizontal = 1;
origin = "{0, 29}";
type = Anchor;
},
{
horizontal = 1;
origin = "{0, 30}";
type = Anchor;
},
{
horizontal = 1;
origin = "{0, 31}";
type = Anchor;
},
{
horizontal = 1;
origin = "{0, 32}";
type = Anchor;
},
{
horizontal = 1;
origin = "{0, 33}";
type = Anchor;
},
{
horizontal = 1;
origin = "{0, 34}";
type = Anchor;
},
{
horizontal = 1;
origin = "{0, 15}";
type = Delta;
settings = {
deltaV = {
"{100, 100, 0, 0, 0}" = {
"12" = 8;
};
};
};
},
{
horizontal = 1;
origin = "{0, 16}";
type = Delta;
settings = {
deltaV = {
"{100, 100, 0, 0, 0}" = {
"12" = 8;
};
};
};
},
{
horizontal = 1;
origin = "{0, 14}";
type = Delta;
settings = {
deltaV = {
"{100, 100, 0, 0, 0}" = {
"12" = 8;
};
};
};
}
);
layerId = "8F63CED7-3680-4993-9CF4-CD4CD6484F7E";
paths = (
{
closed = 1;
nodes = (
"710 545 LINE",
"982 545 LINE",
"982 294 LINE",
"966 279 OFFCURVE",
"940 263 OFFCURVE",
"904 247 CURVE SMOOTH",
"868 230 OFFCURVE",
"814 222 OFFCURVE",
"742 222 CURVE SMOOTH",
"513 222 OFFCURVE",
"399 377 OFFCURVE",
"399 684 CURVE SMOOTH",
"400 827 LINE",
"412 1099 OFFCURVE",
"516 1235 OFFCURVE",
"713 1235 CURVE SMOOTH",
"894 1235 OFFCURVE",
"967 1140 OFFCURVE",
"990 993 CURVE",
"1282 993 LINE",
"1250 1276 OFFCURVE",
"1082 1477 OFFCURVE",
"705 1477 CURVE SMOOTH",
"336 1477 OFFCURVE",
"94 1220 OFFCURVE",
"94 771 CURVE SMOOTH",
"94 684 LINE SMOOTH",
"94 235 OFFCURVE",
"349 -20 OFFCURVE",
"726 -20 CURVE SMOOTH",
"1046 -20 OFFCURVE",
"1214 101 OFFCURVE",
"1283 184 CURVE",
"1283 765 LINE",
"710 765 LINE"
);
}
);
width = 1395;
},
{
hints = (
{
horizontal = 1;
origin = "{0, 0}";
type = Anchor;
},
{
horizontal = 1;
origin = "{0, 1}";
type = Anchor;
},
{
horizontal = 1;
origin = "{0, 2}";
type = Anchor;
},
{
horizontal = 1;
origin = "{0, 3}";
type = Anchor;
},
{
horizontal = 1;
origin = "{0, 4}";
type = Anchor;
},
{
horizontal = 1;
origin = "{0, 5}";
type = Anchor;
},
{
horizontal = 1;
origin = "{0, 6}";
type = Anchor;
},
{
horizontal = 1;
origin = "{0, 7}";
type = Anchor;
},
{
horizontal = 1;
origin = "{0, 8}";
type = Anchor;
},
{
horizontal = 1;
origin = "{0, 9}";
type = Anchor;
},
{
horizontal = 1;
origin = "{0, 10}";
type = Anchor;
},
{
horizontal = 1;
origin = "{0, 11}";
type = Anchor;
},
{
horizontal = 1;
origin = "{0, 12}";
type = Anchor;
},
{
horizontal = 1;
origin = "{0, 13}";
type = Anchor;
},
{
horizontal = 1;
origin = "{0, 14}";
type = Anchor;
},
{
horizontal = 1;
origin = "{0, 15}";
type = Anchor;
},
{
horizontal = 1;
origin = "{0, 16}";
type = Anchor;
},
{
horizontal = 1;
origin = "{0, 17}";
type = Anchor;
},
{
horizontal = 1;
origin = "{0, 18}";
type = Anchor;
},
{
horizontal = 1;
origin = "{0, 19}";
type = Anchor;
},
{
horizontal = 1;
origin = "{0, 20}";
type = Anchor;
},
{
horizontal = 1;
origin = "{0, 21}";
type = Anchor;
},
{
horizontal = 1;
origin = "{0, 22}";
type = Anchor;
},
{
horizontal = 1;
origin = "{0, 23}";
type = Anchor;
},
{
horizontal = 1;
origin = "{0, 24}";
type = Anchor;
},
{
horizontal = 1;
origin = "{0, 25}";
type = Anchor;
},
{
horizontal = 1;
origin = "{0, 26}";
type = Anchor;
},
{
horizontal = 1;
origin = "{0, 27}";
type = Anchor;
},
{
horizontal = 1;
origin = "{0, 28}";
type = Anchor;
},
{
horizontal = 1;
origin = "{0, 29}";
type = Anchor;
},
{
horizontal = 1;
origin = "{0, 30}";
type = Anchor;
},
{
horizontal = 1;
origin = "{0, 31}";
type = Anchor;
}
);
layerId = "D40DD59D-1539-4674-98F2-408D5EBDB9DF";
paths = (
{
closed = 1;
nodes = (
"707 537 LINE",
"951 537 LINE",
"951 311 LINE",
"906 270 OFFCURVE",
"839 250 OFFCURVE",
"748 250 CURVE SMOOTH",
"543 250 OFFCURVE",
"439 395 OFFCURVE",
"439 687 CURVE SMOOTH",
"439 776 LINE SMOOTH",
"440 1065 OFFCURVE",
"548 1207 OFFCURVE",
"716 1207 CURVE SMOOTH",
"879 1207 OFFCURVE",
"943 1125 OFFCURVE",
"964 981 CURVE",
"1301 981 LINE",
"1272 1272 OFFCURVE",
"1105 1477 OFFCURVE",
"704 1477 CURVE SMOOTH",
"341 1477 OFFCURVE",
"82 1221 OFFCURVE",
"82 768 CURVE SMOOTH",
"82 687 LINE SMOOTH",
"82 234 OFFCURVE",
"336 -20 OFFCURVE",
"723 -20 CURVE SMOOTH",
"1036 -20 OFFCURVE",
"1227 97 OFFCURVE",
"1302 180 CURVE",
"1302 778 LINE",
"707 778 LINE"
);
}
);
width = 1396;
}
);
leftKerningGroup = C;
note = G;
unicode = 0047;
},
{
color = 1;
glyphname = H;
layers = (
{
layerId = "E48BBF63-6980-4D0E-B72F-9E9EC78D2D9A";
paths = (
{
closed = 1;
nodes = (
"1238 1456 LINE",
"1184 1456 LINE",
"1184 776 LINE",
"254 776 LINE",
"254 1456 LINE",
"200 1456 LINE",
"200 0 LINE",
"254 0 LINE",
"254 722 LINE",
"1184 722 LINE",
"1184 0 LINE",
"1238 0 LINE"
);
}
);
width = 1438;
},
{
hints = (
{
horizontal = 1;
origin = "{0, 0}";
type = Anchor;
},
{
horizontal = 1;
origin = "{0, 1}";
type = Anchor;
},
{
horizontal = 1;
origin = "{0, 2}";
type = Anchor;
},
{
horizontal = 1;
origin = "{0, 3}";
type = Anchor;
},
{
horizontal = 1;
origin = "{0, 4}";
type = Anchor;
},
{
horizontal = 1;
origin = "{0, 5}";
type = Anchor;
},
{
horizontal = 1;
origin = "{0, 6}";
type = Anchor;
},
{
horizontal = 1;
origin = "{0, 7}";
type = Anchor;
},
{
horizontal = 1;
origin = "{0, 8}";
type = Anchor;
},
{
horizontal = 1;
origin = "{0, 9}";
type = Anchor;
},
{
horizontal = 1;
origin = "{0, 10}";
type = Anchor;
},
{
horizontal = 1;
origin = "{0, 11}";
type = Anchor;
},
{
horizontal = 1;
origin = "{0, 2}";
type = Delta;
settings = {
deltaV = {
"{100, 100, 0, 0, 0}" = {
"14" = 8;
};
};
};
},
{
horizontal = 1;
origin = "{0, 3}";
type = Delta;
settings = {
deltaV = {
"{100, 100, 0, 0, 0}" = {
"14" = 8;
};
};
};
}
);
layerId = "10767FFE-EA3C-45A9-8421-483827593C6E";
paths = (
{
closed = 1;
nodes = (
"1263 1456 LINE",
"1140 1456 LINE",
"1140 803 LINE",
"308 803 LINE",
"308 1456 LINE",
"185 1456 LINE",
"185 0 LINE",
"308 0 LINE",
"308 698 LINE",
"1140 698 LINE",
"1140 0 LINE",
"1263 0 LINE"
);
}
);
width = 1449;
},
{
hints = (
{
horizontal = 1;
origin = "{0, 0}";
type = Anchor;
},
{
horizontal = 1;
origin = "{0, 1}";
type = Anchor;
},
{
horizontal = 1;
origin = "{0, 2}";
type = Anchor;
},
{
horizontal = 1;
origin = "{0, 3}";
type = Anchor;
},
{
horizontal = 1;
origin = "{0, 4}";
type = Anchor;
},
{
horizontal = 1;
origin = "{0, 5}";
type = Anchor;
},
{
horizontal = 1;
origin = "{0, 6}";
type = Anchor;
},
{
horizontal = 1;
origin = "{0, 7}";
type = Anchor;
},
{
horizontal = 1;
origin = "{0, 8}";
type = Anchor;
},
{
horizontal = 1;
origin = "{0, 9}";
type = Anchor;
},
{
horizontal = 1;
origin = "{0, 10}";
type = Anchor;
},
{
horizontal = 1;
origin = "{0, 11}";
type = Anchor;
}
);
layerId = "EFC0C7B3-D173-4BF6-BF18-C95D96D5B447";
paths = (
{
closed = 1;
nodes = (
"1288 1456 LINE",
"1096 1456 LINE",
"1096 830 LINE",
"362 830 LINE",
"362 1456 LINE",
"169 1456 LINE",
"169 0 LINE",
"362 0 LINE",
"362 673 LINE",
"1096 673 LINE",
"1096 0 LINE",
"1288 0 LINE"
);
}
);
width = 1461;
},
{
hints = (
{
horizontal = 1;
origin = "{0, 0}";
type = Anchor;
},
{
horizontal = 1;
origin = "{0, 1}";
type = Anchor;
},
{
horizontal = 1;
origin = "{0, 2}";
type = Anchor;
},
{
horizontal = 1;
origin = "{0, 3}";
type = Anchor;
},
{
horizontal = 1;
origin = "{0, 4}";
type = Anchor;
},
{
horizontal = 1;
origin = "{0, 5}";
type = Anchor;
},
{
horizontal = 1;
origin = "{0, 6}";
type = Anchor;
},
{
horizontal = 1;
origin = "{0, 7}";
type = Anchor;
},
{
horizontal = 1;
origin = "{0, 8}";
type = Anchor;
},
{
horizontal = 1;
origin = "{0, 9}";
type = Anchor;
},
{
horizontal = 1;
origin = "{0, 10}";
type = Anchor;
},
{
horizontal = 1;
origin = "{0, 11}";
type = Anchor;
}
);
layerId = "D68CFE38-7B02-4705-B0C1-3A2279678377";
paths = (
{
closed = 1;
nodes = (
"1305 1456 LINE",
"1052 1456 LINE",
"1052 850 LINE",
"401 850 LINE",
"401 1456 LINE",
"149 1456 LINE",
"149 0 LINE",
"401 0 LINE",
"401 648 LINE",
"1052 648 LINE",
"1052 0 LINE",
"1305 0 LINE"
);
}
);
width = 1456;
},
{
hints = (
{
horizontal = 1;
origin = "{0, 0}";
type = Anchor;
},
{
horizontal = 1;
origin = "{0, 1}";
type = Anchor;
},
{
horizontal = 1;
origin = "{0, 2}";
type = Anchor;
},
{
horizontal = 1;
origin = "{0, 3}";
type = Anchor;
},
{
horizontal = 1;
origin = "{0, 4}";
type = Anchor;
},
{
horizontal = 1;
origin = "{0, 5}";
type = Anchor;
},
{
horizontal = 1;
origin = "{0, 6}";
type = Anchor;
},
{
horizontal = 1;
origin = "{0, 7}";
type = Anchor;
},
{
horizontal = 1;
origin = "{0, 8}";
type = Anchor;
},
{
horizontal = 1;
origin = "{0, 9}";
type = Anchor;
},
{
horizontal = 1;
origin = "{0, 10}";
type = Anchor;
},
{
horizontal = 1;
origin = "{0, 11}";
type = Anchor;
}
);
layerId = "8F63CED7-3680-4993-9CF4-CD4CD6484F7E";
paths = (
{
closed = 1;
nodes = (
"1316 1456 LINE",
"1016 1456 LINE",
"1016 866 LINE",
"431 866 LINE",
"431 1456 LINE",
"130 1456 LINE",
"130 0 LINE",
"431 0 LINE",
"431 624 LINE",
"1016 624 LINE",
"1016 0 LINE",
"1316 0 LINE"
);
}
);
width = 1448;
},
{
hints = (
{
horizontal = 1;
origin = "{0, 0}";
type = Anchor;
},
{
horizontal = 1;
origin = "{0, 1}";
type = Anchor;
},
{
horizontal = 1;
origin = "{0, 2}";
type = Anchor;
},
{
horizontal = 1;
origin = "{0, 3}";
type = Anchor;
},
{
horizontal = 1;
origin = "{0, 4}";
type = Anchor;
},
{
horizontal = 1;
origin = "{0, 5}";
type = Anchor;
},
{
horizontal = 1;
origin = "{0, 6}";
type = Anchor;
},
{
horizontal = 1;
origin = "{0, 7}";
type = Anchor;
},
{
horizontal = 1;
origin = "{0, 8}";
type = Anchor;
},
{
horizontal = 1;
origin = "{0, 9}";
type = Anchor;
},
{
horizontal = 1;
origin = "{0, 10}";
type = Anchor;
},
{
horizontal = 1;
origin = "{0, 11}";
type = Anchor;
}
);
layerId = "D40DD59D-1539-4674-98F2-408D5EBDB9DF";
paths = (
{
closed = 1;
nodes = (
"1328 1456 LINE",
"978 1456 LINE",
"978 878 LINE",
"462 878 LINE",
"462 1456 LINE",
"111 1456 LINE",
"111 0 LINE",
"462 0 LINE",
"462 608 LINE",
"978 608 LINE",
"978 0 LINE",
"1328 0 LINE"
);
}
);
width = 1439;
}
);
note = H;
rightKerningGroup = H;
unicode = 0048;
},
{
color = 1;
glyphname = I;
layers = (
{
layerId = "E48BBF63-6980-4D0E-B72F-9E9EC78D2D9A";
paths = (
{
closed = 1;
nodes = (
"240 0 LINE",
"294 0 LINE",
"294 1456 LINE",
"240 1456 LINE"
);
}
);
width = 534;
},
{
hints = (
{
horizontal = 1;
origin = "{0, 0}";
type = Anchor;
},
{
horizontal = 1;
origin = "{0, 1}";
type = Anchor;
},
{
horizontal = 1;
origin = "{0, 2}";
type = Anchor;
},
{
horizontal = 1;
origin = "{0, 3}";
type = Anchor;
}
);
layerId = "10767FFE-EA3C-45A9-8421-483827593C6E";
paths = (
{
closed = 1;
nodes = (
"212 0 LINE",
"335 0 LINE",
"335 1456 LINE",
"212 1456 LINE"
);
}
);
width = 546;
},
{
hints = (
{
horizontal = 1;
origin = "{0, 0}";
type = Anchor;
},
{
horizontal = 1;
origin = "{0, 1}";
type = Anchor;
},
{
horizontal = 1;
origin = "{0, 2}";
type = Anchor;
},
{
horizontal = 1;
origin = "{0, 3}";
type = Anchor;
}
);
layerId = "EFC0C7B3-D173-4BF6-BF18-C95D96D5B447";
paths = (
{
closed = 1;
nodes = (
"183 0 LINE",
"376 0 LINE",
"376 1456 LINE",
"183 1456 LINE"
);
}
);
width = 557;
},
{
hints = (
{
horizontal = 1;
origin = "{0, 0}";
type = Anchor;
},
{
horizontal = 1;
origin = "{0, 1}";
type = Anchor;
},
{
horizontal = 1;
origin = "{0, 2}";
type = Anchor;
},
{
horizontal = 1;
origin = "{0, 3}";
type = Anchor;
}
);
layerId = "D68CFE38-7B02-4705-B0C1-3A2279678377";
paths = (
{
closed = 1;
nodes = (
"164 0 LINE",
"416 0 LINE",
"416 1456 LINE",
"164 1456 LINE"
);
}
);
width = 578;
},
{
hints = (
{
horizontal = 1;
origin = "{0, 0}";
type = Anchor;
},
{
horizontal = 1;
origin = "{0, 1}";
type = Anchor;
},
{
horizontal = 1;
origin = "{0, 2}";
type = Anchor;
},
{
horizontal = 1;
origin = "{0, 3}";
type = Anchor;
}
);
layerId = "8F63CED7-3680-4993-9CF4-CD4CD6484F7E";
paths = (
{
closed = 1;
nodes = (
"149 0 LINE",
"449 0 LINE",
"449 1456 LINE",
"149 1456 LINE"
);
}
);
width = 598;
},
{
hints = (
{
horizontal = 1;
origin = "{0, 0}";
type = Anchor;
},
{
horizontal = 1;
origin = "{0, 1}";
type = Anchor;
},
{
horizontal = 1;
origin = "{0, 2}";
type = Anchor;
},
{
horizontal = 1;
origin = "{0, 3}";
type = Anchor;
}
);
layerId = "D40DD59D-1539-4674-98F2-408D5EBDB9DF";
paths = (
{
closed = 1;
nodes = (
"134 0 LINE",
"484 0 LINE",
"484 1456 LINE",
"134 1456 LINE"
);
}
);
width = 619;
}
);
note = I;
rightKerningGroup = H;
unicode = 0049;
},
{
color = 1;
glyphname = Iacute;
layers = (
{
layerId = "E48BBF63-6980-4D0E-B72F-9E9EC78D2D9A";
paths = (
{
closed = 1;
nodes = (
"240 0 LINE",
"294 0 LINE",
"294 1456 LINE",
"240 1456 LINE"
);
},
{
closed = 1;
nodes = (
"483 1855 LINE",
"417 1855 LINE",
"228 1589 LINE",
"288 1589 LINE"
);
}
);
width = 534;
},
{
layerId = "10767FFE-EA3C-45A9-8421-483827593C6E";
paths = (
{
closed = 1;
nodes = (
"212 0 LINE",
"335 0 LINE",
"335 1456 LINE",
"212 1456 LINE"
);
},
{
closed = 1;
nodes = (
"538 1856 LINE",
"393 1856 LINE",
"202 1577 LINE",
"306 1577 LINE"
);
}
);
width = 546;
},
{
layerId = "EFC0C7B3-D173-4BF6-BF18-C95D96D5B447";
paths = (
{
closed = 1;
nodes = (
"183 0 LINE",
"376 0 LINE",
"376 1456 LINE",
"183 1456 LINE"
);
},
{
closed = 1;
nodes = (
"594 1858 LINE",
"371 1858 LINE",
"177 1564 LINE",
"326 1564 LINE"
);
}
);
width = 557;
},
{
layerId = "D68CFE38-7B02-4705-B0C1-3A2279678377";
paths = (
{
closed = 1;
nodes = (
"164 0 LINE",
"416 0 LINE",
"416 1456 LINE",
"164 1456 LINE"
);
},
{
closed = 1;
nodes = (
"638 1854 LINE",
"361 1854 LINE",
"166 1552 LINE",
"361 1552 LINE"
);
}
);
width = 578;
},
{
layerId = "8F63CED7-3680-4993-9CF4-CD4CD6484F7E";
paths = (
{
closed = 1;
nodes = (
"149 0 LINE",
"449 0 LINE",
"449 1456 LINE",
"149 1456 LINE"
);
},
{
closed = 1;
nodes = (
"671 1849 LINE",
"356 1849 LINE",
"160 1540 LINE",
"394 1540 LINE"
);
}
);
width = 598;
},
{
layerId = "D40DD59D-1539-4674-98F2-408D5EBDB9DF";
paths = (
{
closed = 1;
nodes = (
"134 0 LINE",
"484 0 LINE",
"484 1456 LINE",
"134 1456 LINE"
);
},
{
closed = 1;
nodes = (
"708 1846 LINE",
"352 1846 LINE",
"154 1532 LINE",
"429 1532 LINE"
);
}
);
width = 619;
}
);
note = Iacute;
rightKerningGroup = H;
unicode = 00CD;
},
{
color = 1;
glyphname = Icircumflex;
layers = (
{
layerId = "E48BBF63-6980-4D0E-B72F-9E9EC78D2D9A";
paths = (
{
closed = 1;
nodes = (
"240 0 LINE",
"294 0 LINE",
"294 1456 LINE",
"240 1456 LINE"
);
},
{
closed = 1;
nodes = (
"18 1597 LINE",
"18 1583 LINE",
"82 1583 LINE",
"267 1779 LINE",
"454 1583 LINE",
"522 1583 LINE",
"522 1593 LINE",
"288 1836 LINE",
"248 1836 LINE"
);
}
);
width = 534;
},
{
layerId = "10767FFE-EA3C-45A9-8421-483827593C6E";
paths = (
{
closed = 1;
nodes = (
"212 0 LINE",
"335 0 LINE",
"335 1456 LINE",
"212 1456 LINE"
);
},
{
closed = 1;
nodes = (
"-3 1591 LINE",
"-3 1579 LINE",
"105 1579 LINE",
"272 1762 LINE",
"441 1579 LINE",
"551 1579 LINE",
"551 1589 LINE",
"311 1846 LINE",
"235 1846 LINE"
);
}
);
width = 546;
},
{
layerId = "EFC0C7B3-D173-4BF6-BF18-C95D96D5B447";
paths = (
{
closed = 1;
nodes = (
"183 0 LINE",
"376 0 LINE",
"376 1456 LINE",
"183 1456 LINE"
);
},
{
closed = 1;
nodes = (
"-22 1586 LINE",
"-22 1575 LINE",
"130 1575 LINE",
"279 1744 LINE",
"429 1575 LINE",
"583 1575 LINE",
"583 1585 LINE",
"335 1858 LINE",
"223 1858 LINE"
);
}
);
width = 557;
},
{
layerId = "D68CFE38-7B02-4705-B0C1-3A2279678377";
paths = (
{
closed = 1;
nodes = (
"164 0 LINE",
"416 0 LINE",
"416 1456 LINE",
"164 1456 LINE"
);
},
{
closed = 1;
nodes = (
"-53 1580 LINE",
"-53 1567 LINE",
"139 1567 LINE",
"289 1723 LINE",
"439 1567 LINE",
"634 1567 LINE",
"634 1578 LINE",
"360 1855 LINE",
"217 1855 LINE"
);
}
);
width = 578;
},
{
layerId = "8F63CED7-3680-4993-9CF4-CD4CD6484F7E";
paths = (
{
closed = 1;
nodes = (
"149 0 LINE",
"449 0 LINE",
"449 1456 LINE",
"149 1456 LINE"
);
},
{
closed = 1;
nodes = (
"-81 1573 LINE",
"-81 1558 LINE",
"144 1558 LINE",
"298 1702 LINE",
"453 1558 LINE",
"682 1558 LINE",
"682 1570 LINE",
"382 1850 LINE",
"215 1850 LINE"
);
}
);
width = 598;
},
{
layerId = "D40DD59D-1539-4674-98F2-408D5EBDB9DF";
paths = (
{
closed = 1;
nodes = (
"134 0 LINE",
"484 0 LINE",
"484 1456 LINE",
"134 1456 LINE"
);
},
{
closed = 1;
nodes = (
"-110 1569 LINE",
"-110 1552 LINE",
"150 1552 LINE",
"308 1688 LINE",
"468 1552 LINE",
"733 1552 LINE",
"733 1565 LINE",
"405 1846 LINE",
"212 1846 LINE"
);
}
);
width = 619;
}
);
note = Icircumflex;
rightKerningGroup = H;
unicode = 00CE;
},
{
color = 1;
glyphname = Idieresis;
layers = (
{
layerId = "E48BBF63-6980-4D0E-B72F-9E9EC78D2D9A";
paths = (
{
closed = 1;
nodes = (
"240 0 LINE",
"294 0 LINE",
"294 1456 LINE",
"240 1456 LINE"
);
},
{
closed = 1;
nodes = (
"-8 1703 OFFCURVE",
"10 1685 OFFCURVE",
"47 1685 CURVE SMOOTH",
"84 1685 OFFCURVE",
"103 1703 OFFCURVE",
"103 1740 CURVE SMOOTH",
"103 1777 OFFCURVE",
"84 1796 OFFCURVE",
"47 1796 CURVE SMOOTH",
"10 1796 OFFCURVE",
"-8 1777 OFFCURVE",
"-8 1740 CURVE SMOOTH"
);
},
{
closed = 1;
nodes = (
"437 1703 OFFCURVE",
"455 1685 OFFCURVE",
"492 1685 CURVE SMOOTH",
"529 1685 OFFCURVE",
"548 1703 OFFCURVE",
"548 1740 CURVE SMOOTH",
"548 1777 OFFCURVE",
"529 1796 OFFCURVE",
"492 1796 CURVE SMOOTH",
"455 1796 OFFCURVE",
"437 1777 OFFCURVE",
"437 1740 CURVE SMOOTH"
);
}
);
width = 534;
},
{
layerId = "10767FFE-EA3C-45A9-8421-483827593C6E";
paths = (
{
closed = 1;
nodes = (
"212 0 LINE",
"335 0 LINE",
"335 1456 LINE",
"212 1456 LINE"
);
},
{
closed = 1;
nodes = (
"-26 1664 OFFCURVE",
"1 1637 OFFCURVE",
"56 1637 CURVE SMOOTH",
"111 1637 OFFCURVE",
"139 1664 OFFCURVE",
"139 1717 CURVE SMOOTH",
"139 1770 OFFCURVE",
"111 1797 OFFCURVE",
"56 1797 CURVE SMOOTH",
"1 1797 OFFCURVE",
"-26 1770 OFFCURVE",
"-26 1717 CURVE SMOOTH"
);
},
{
closed = 1;
nodes = (
"411 1663 OFFCURVE",
"438 1637 OFFCURVE",
"493 1637 CURVE SMOOTH",
"548 1637 OFFCURVE",
"576 1663 OFFCURVE",
"576 1716 CURVE SMOOTH",
"576 1770 OFFCURVE",
"548 1797 OFFCURVE",
"493 1797 CURVE SMOOTH",
"438 1797 OFFCURVE",
"411 1770 OFFCURVE",
"411 1716 CURVE SMOOTH"
);
}
);
width = 546;
},
{
layerId = "EFC0C7B3-D173-4BF6-BF18-C95D96D5B447";
paths = (
{
closed = 1;
nodes = (
"183 0 LINE",
"376 0 LINE",
"376 1456 LINE",
"183 1456 LINE"
);
},
{
closed = 1;
nodes = (
"-43 1636 OFFCURVE",
"-5 1589 OFFCURVE",
"66 1589 CURVE SMOOTH",
"138 1589 OFFCURVE",
"176 1636 OFFCURVE",
"176 1693 CURVE SMOOTH",
"176 1753 OFFCURVE",
"138 1800 OFFCURVE",
"66 1800 CURVE SMOOTH",
"-5 1800 OFFCURVE",
"-43 1753 OFFCURVE",
"-43 1693 CURVE SMOOTH"
);
},
{
closed = 1;
nodes = (
"388 1634 OFFCURVE",
"425 1587 OFFCURVE",
"497 1587 CURVE SMOOTH",
"568 1587 OFFCURVE",
"607 1634 OFFCURVE",
"607 1691 CURVE SMOOTH",
"607 1751 OFFCURVE",
"568 1798 OFFCURVE",
"497 1798 CURVE SMOOTH",
"425 1798 OFFCURVE",
"388 1751 OFFCURVE",
"388 1691 CURVE SMOOTH"
);
}
);
width = 557;
},
{
layerId = "D68CFE38-7B02-4705-B0C1-3A2279678377";
paths = (
{
closed = 1;
nodes = (
"164 0 LINE",
"416 0 LINE",
"416 1456 LINE",
"164 1456 LINE"
);
},
{
closed = 1;
nodes = (
"-64 1617 OFFCURVE",
"-15 1567 OFFCURVE",
"62 1567 CURVE SMOOTH",
"139 1567 OFFCURVE",
"189 1617 OFFCURVE",
"189 1684 CURVE SMOOTH",
"189 1751 OFFCURVE",
"139 1803 OFFCURVE",
"62 1803 CURVE SMOOTH",
"-15 1803 OFFCURVE",
"-64 1751 OFFCURVE",
"-64 1684 CURVE SMOOTH"
);
},
{
closed = 1;
nodes = (
"393 1618 OFFCURVE",
"440 1566 OFFCURVE",
"519 1566 CURVE SMOOTH",
"598 1566 OFFCURVE",
"646 1618 OFFCURVE",
"646 1683 CURVE SMOOTH",
"646 1750 OFFCURVE",
"598 1802 OFFCURVE",
"519 1802 CURVE SMOOTH",
"440 1802 OFFCURVE",
"393 1750 OFFCURVE",
"393 1683 CURVE SMOOTH"
);
}
);
width = 578;
},
{
layerId = "8F63CED7-3680-4993-9CF4-CD4CD6484F7E";
paths = (
{
closed = 1;
nodes = (
"149 0 LINE",
"449 0 LINE",
"449 1456 LINE",
"149 1456 LINE"
);
},
{
closed = 1;
nodes = (
"-85 1607 OFFCURVE",
"-27 1552 OFFCURVE",
"54 1552 CURVE SMOOTH",
"134 1552 OFFCURVE",
"192 1607 OFFCURVE",
"192 1679 CURVE SMOOTH",
"192 1750 OFFCURVE",
"134 1806 OFFCURVE",
"54 1806 CURVE SMOOTH",
"-27 1806 OFFCURVE",
"-85 1750 OFFCURVE",
"-85 1679 CURVE SMOOTH"
);
},
{
closed = 1;
nodes = (
"403 1607 OFFCURVE",
"461 1551 OFFCURVE",
"541 1551 CURVE SMOOTH",
"622 1551 OFFCURVE",
"680 1607 OFFCURVE",
"680 1678 CURVE SMOOTH",
"680 1749 OFFCURVE",
"622 1805 OFFCURVE",
"541 1805 CURVE SMOOTH",
"461 1805 OFFCURVE",
"403 1749 OFFCURVE",
"403 1678 CURVE SMOOTH"
);
}
);
width = 598;
},
{
layerId = "D40DD59D-1539-4674-98F2-408D5EBDB9DF";
paths = (
{
closed = 1;
nodes = (
"134 0 LINE",
"484 0 LINE",
"484 1456 LINE",
"134 1456 LINE"
);
},
{
closed = 1;
nodes = (
"-105 1600 OFFCURVE",
"-37 1542 OFFCURVE",
"46 1542 CURVE SMOOTH",
"129 1542 OFFCURVE",
"197 1600 OFFCURVE",
"197 1675 CURVE SMOOTH",
"197 1750 OFFCURVE",
"129 1808 OFFCURVE",
"46 1808 CURVE SMOOTH",
"-37 1808 OFFCURVE",
"-105 1750 OFFCURVE",
"-105 1675 CURVE SMOOTH"
);
},
{
closed = 1;
nodes = (
"414 1600 OFFCURVE",
"484 1542 OFFCURVE",
"565 1542 CURVE SMOOTH",
"648 1542 OFFCURVE",
"716 1600 OFFCURVE",
"716 1675 CURVE SMOOTH",
"716 1750 OFFCURVE",
"648 1808 OFFCURVE",
"565 1808 CURVE SMOOTH",
"484 1808 OFFCURVE",
"414 1750 OFFCURVE",
"414 1675 CURVE SMOOTH"
);
}
);
width = 619;
}
);
note = Idieresis;
rightKerningGroup = H;
unicode = 00CF;
},
{
color = 1;
glyphname = Igrave;
layers = (
{
layerId = "E48BBF63-6980-4D0E-B72F-9E9EC78D2D9A";
paths = (
{
closed = 1;
nodes = (
"240 0 LINE",
"294 0 LINE",
"294 1456 LINE",
"240 1456 LINE"
);
},
{
closed = 1;
nodes = (
"252 1589 LINE",
"311 1589 LINE",
"123 1855 LINE",
"57 1855 LINE"
);
}
);
width = 534;
},
{
layerId = "10767FFE-EA3C-45A9-8421-483827593C6E";
paths = (
{
closed = 1;
nodes = (
"212 0 LINE",
"335 0 LINE",
"335 1456 LINE",
"212 1456 LINE"
);
},
{
closed = 1;
nodes = (
"238 1577 LINE",
"347 1577 LINE",
"156 1856 LINE",
"11 1856 LINE"
);
}
);
width = 546;
},
{
layerId = "EFC0C7B3-D173-4BF6-BF18-C95D96D5B447";
paths = (
{
closed = 1;
nodes = (
"183 0 LINE",
"376 0 LINE",
"376 1456 LINE",
"183 1456 LINE"
);
},
{
closed = 1;
nodes = (
"225 1564 LINE",
"384 1564 LINE",
"191 1858 LINE",
"-33 1858 LINE"
);
}
);
width = 557;
},
{
layerId = "D68CFE38-7B02-4705-B0C1-3A2279678377";
paths = (
{
closed = 1;
nodes = (
"164 0 LINE",
"416 0 LINE",
"416 1456 LINE",
"164 1456 LINE"
);
},
{
closed = 1;
nodes = (
"214 1552 LINE",
"416 1552 LINE",
"220 1854 LINE",
"-57 1854 LINE"
);
}
);
width = 578;
},
{
layerId = "8F63CED7-3680-4993-9CF4-CD4CD6484F7E";
paths = (
{
closed = 1;
nodes = (
"149 0 LINE",
"449 0 LINE",
"449 1456 LINE",
"149 1456 LINE"
);
},
{
closed = 1;
nodes = (
"204 1540 LINE",
"441 1540 LINE",
"244 1849 LINE",
"-72 1849 LINE"
);
}
);
width = 598;
},
{
layerId = "D40DD59D-1539-4674-98F2-408D5EBDB9DF";
paths = (
{
closed = 1;
nodes = (
"134 0 LINE",
"484 0 LINE",
"484 1456 LINE",
"134 1456 LINE"
);
},
{
closed = 1;
nodes = (
"195 1532 LINE",
"468 1532 LINE",
"269 1846 LINE",
"-87 1846 LINE"
);
}
);
width = 619;
}
);
note = Igrave;
rightKerningGroup = H;
unicode = 00CC;
},
{
color = 1;
glyphname = J;
layers = (
{
layerId = "E48BBF63-6980-4D0E-B72F-9E9EC78D2D9A";
paths = (
{
closed = 1;
nodes = (
"876 173 OFFCURVE",
"710 34 OFFCURVE",
"510 34 CURVE SMOOTH",
"266 34 OFFCURVE",
"144 156 OFFCURVE",
"144 401 CURVE",
"90 401 LINE",
"90 116 OFFCURVE",
"253 -20 OFFCURVE",
"510 -20 CURVE SMOOTH",
"747 -20 OFFCURVE",
"930 143 OFFCURVE",
"930 442 CURVE SMOOTH",
"930 1456 LINE",
"876 1456 LINE",
"876 442 LINE SMOOTH"
);
}
);
width = 1125;
},
{
hints = (
{
horizontal = 1;
origin = "{0, 0}";
type = Anchor;
},
{
horizontal = 1;
origin = "{0, 1}";
type = Anchor;
},
{
horizontal = 1;
origin = "{0, 2}";
type = Anchor;
},
{
horizontal = 1;
origin = "{0, 3}";
type = Anchor;
},
{
horizontal = 1;
origin = "{0, 4}";
type = Anchor;
},
{
horizontal = 1;
origin = "{0, 5}";
type = Anchor;
},
{
horizontal = 1;
origin = "{0, 6}";
type = Anchor;
},
{
horizontal = 1;
origin = "{0, 7}";
type = Anchor;
},
{
horizontal = 1;
origin = "{0, 8}";
type = Anchor;
},
{
horizontal = 1;
origin = "{0, 9}";
type = Anchor;
},
{
horizontal = 1;
origin = "{0, 10}";
type = Anchor;
},
{
horizontal = 1;
origin = "{0, 11}";
type = Anchor;
},
{
horizontal = 1;
origin = "{0, 12}";
type = Anchor;
},
{
horizontal = 1;
origin = "{0, 13}";
type = Anchor;
},
{
horizontal = 1;
origin = "{0, 14}";
type = Anchor;
},
{
horizontal = 1;
origin = "{0, 15}";
type = Anchor;
}
);
layerId = "10767FFE-EA3C-45A9-8421-483827593C6E";
paths = (
{
closed = 1;
nodes = (
"828 205 OFFCURVE",
"688 84 OFFCURVE",
"511 84 CURVE SMOOTH",
"312 84 OFFCURVE",
"195 191 OFFCURVE",
"195 402 CURVE",
"72 402 LINE",
"72 117 OFFCURVE",
"248 -20 OFFCURVE",
"511 -20 CURVE SMOOTH",
"764 -20 OFFCURVE",
"951 141 OFFCURVE",
"951 434 CURVE SMOOTH",
"951 1456 LINE",
"828 1456 LINE",
"828 434 LINE SMOOTH"
);
}
);
width = 1128;
},
{
hints = (
{
horizontal = 1;
origin = "{0, 0}";
type = Anchor;
},
{
horizontal = 1;
origin = "{0, 1}";
type = Anchor;
},
{
horizontal = 1;
origin = "{0, 2}";
type = Anchor;
},
{
horizontal = 1;
origin = "{0, 3}";
type = Anchor;
},
{
horizontal = 1;
origin = "{0, 4}";
type = Anchor;
},
{
horizontal = 1;
origin = "{0, 5}";
type = Anchor;
},
{
horizontal = 1;
origin = "{0, 6}";
type = Anchor;
},
{
horizontal = 1;
origin = "{0, 7}";
type = Anchor;
},
{
horizontal = 1;
origin = "{0, 8}";
type = Anchor;
},
{
horizontal = 1;
origin = "{0, 9}";
type = Anchor;
},
{
horizontal = 1;
origin = "{0, 10}";
type = Anchor;
},
{
horizontal = 1;
origin = "{0, 11}";
type = Anchor;
},
{
horizontal = 1;
origin = "{0, 12}";
type = Anchor;
},
{
horizontal = 1;
origin = "{0, 13}";
type = Anchor;
},
{
horizontal = 1;
origin = "{0, 14}";
type = Anchor;
},
{
horizontal = 1;
origin = "{0, 15}";
type = Anchor;
}
);
layerId = "EFC0C7B3-D173-4BF6-BF18-C95D96D5B447";
paths = (
{
closed = 1;
nodes = (
"780 236 OFFCURVE",
"665 137 OFFCURVE",
"513 137 CURVE SMOOTH",
"356 137 OFFCURVE",
"246 219 OFFCURVE",
"246 403 CURVE",
"53 403 LINE",
"53 116 OFFCURVE",
"245 -20 OFFCURVE",
"513 -20 CURVE SMOOTH",
"780 -20 OFFCURVE",
"972 137 OFFCURVE",
"972 425 CURVE SMOOTH",
"972 1456 LINE",
"780 1456 LINE",
"780 425 LINE SMOOTH"
);
}
);
width = 1130;
},
{
hints = (
{
horizontal = 1;
origin = "{0, 0}";
type = Anchor;
},
{
horizontal = 1;
origin = "{0, 1}";
type = Anchor;
},
{
horizontal = 1;
origin = "{0, 2}";
type = Anchor;
},
{
horizontal = 1;
origin = "{0, 3}";
type = Anchor;
},
{
horizontal = 1;
origin = "{0, 4}";
type = Anchor;
},
{
horizontal = 1;
origin = "{0, 5}";
type = Anchor;
},
{
horizontal = 1;
origin = "{0, 6}";
type = Anchor;
},
{
horizontal = 1;
origin = "{0, 7}";
type = Anchor;
},
{
horizontal = 1;
origin = "{0, 8}";
type = Anchor;
},
{
horizontal = 1;
origin = "{0, 9}";
type = Anchor;
},
{
horizontal = 1;
origin = "{0, 10}";
type = Anchor;
},
{
horizontal = 1;
origin = "{0, 11}";
type = Anchor;
},
{
horizontal = 1;
origin = "{0, 12}";
type = Anchor;
},
{
horizontal = 1;
origin = "{0, 13}";
type = Anchor;
},
{
horizontal = 1;
origin = "{0, 14}";
type = Anchor;
},
{
horizontal = 1;
origin = "{0, 15}";
type = Anchor;
}
);
layerId = "D68CFE38-7B02-4705-B0C1-3A2279678377";
paths = (
{
closed = 1;
nodes = (
"745 272 OFFCURVE",
"652 182 OFFCURVE",
"521 182 CURVE SMOOTH",
"389 182 OFFCURVE",
"298 248 OFFCURVE",
"298 416 CURVE",
"45 416 LINE",
"45 119 OFFCURVE",
"245 -20 OFFCURVE",
"521 -20 CURVE SMOOTH",
"794 -20 OFFCURVE",
"997 145 OFFCURVE",
"997 436 CURVE SMOOTH",
"997 1456 LINE",
"745 1456 LINE",
"745 436 LINE SMOOTH"
);
}
);
width = 1137;
},
{
hints = (
{
horizontal = 1;
origin = "{0, 0}";
type = Anchor;
},
{
horizontal = 1;
origin = "{0, 1}";
type = Anchor;
},
{
horizontal = 1;
origin = "{0, 2}";
type = Anchor;
},
{
horizontal = 1;
origin = "{0, 3}";
type = Anchor;
},
{
horizontal = 1;
origin = "{0, 4}";
type = Anchor;
},
{
horizontal = 1;
origin = "{0, 5}";
type = Anchor;
},
{
horizontal = 1;
origin = "{0, 6}";
type = Anchor;
},
{
horizontal = 1;
origin = "{0, 7}";
type = Anchor;
},
{
horizontal = 1;
origin = "{0, 8}";
type = Anchor;
},
{
horizontal = 1;
origin = "{0, 9}";
type = Anchor;
},
{
horizontal = 1;
origin = "{0, 10}";
type = Anchor;
},
{
horizontal = 1;
origin = "{0, 11}";
type = Anchor;
},
{
horizontal = 1;
origin = "{0, 12}";
type = Anchor;
},
{
horizontal = 1;
origin = "{0, 13}";
type = Anchor;
},
{
horizontal = 1;
origin = "{0, 14}";
type = Anchor;
},
{
horizontal = 1;
origin = "{0, 15}";
type = Anchor;
}
);
layerId = "8F63CED7-3680-4993-9CF4-CD4CD6484F7E";
paths = (
{
closed = 1;
nodes = (
"718 304 OFFCURVE",
"645 222 OFFCURVE",
"530 222 CURVE SMOOTH",
"415 222 OFFCURVE",
"342 274 OFFCURVE",
"342 430 CURVE",
"41 430 LINE",
"41 122 OFFCURVE",
"245 -20 OFFCURVE",
"530 -20 CURVE SMOOTH",
"807 -20 OFFCURVE",
"1018 157 OFFCURVE",
"1018 448 CURVE SMOOTH",
"1018 1456 LINE",
"718 1456 LINE",
"718 448 LINE SMOOTH"
);
}
);
width = 1144;
},
{
hints = (
{
horizontal = 1;
origin = "{0, 0}";
type = Anchor;
},
{
horizontal = 1;
origin = "{0, 1}";
type = Anchor;
},
{
horizontal = 1;
origin = "{0, 2}";
type = Anchor;
},
{
horizontal = 1;
origin = "{0, 3}";
type = Anchor;
},
{
horizontal = 1;
origin = "{0, 4}";
type = Anchor;
},
{
horizontal = 1;
origin = "{0, 5}";
type = Anchor;
},
{
horizontal = 1;
origin = "{0, 6}";
type = Anchor;
},
{
horizontal = 1;
origin = "{0, 7}";
type = Anchor;
},
{
horizontal = 1;
origin = "{0, 8}";
type = Anchor;
},
{
horizontal = 1;
origin = "{0, 9}";
type = Anchor;
},
{
horizontal = 1;
origin = "{0, 10}";
type = Anchor;
},
{
horizontal = 1;
origin = "{0, 11}";
type = Anchor;
},
{
horizontal = 1;
origin = "{0, 12}";
type = Anchor;
},
{
horizontal = 1;
origin = "{0, 13}";
type = Anchor;
},
{
horizontal = 1;
origin = "{0, 14}";
type = Anchor;
},
{
horizontal = 1;
origin = "{0, 15}";
type = Anchor;
}
);
layerId = "D40DD59D-1539-4674-98F2-408D5EBDB9DF";
paths = (
{
closed = 1;
nodes = (
"689 318 OFFCURVE",
"639 250 OFFCURVE",
"539 250 CURVE SMOOTH",
"442 250 OFFCURVE",
"389 292 OFFCURVE",
"389 440 CURVE",
"37 440 LINE",
"37 124 OFFCURVE",
"246 -20 OFFCURVE",
"539 -20 CURVE SMOOTH",
"820 -20 OFFCURVE",
"1040 165 OFFCURVE",
"1040 457 CURVE SMOOTH",
"1040 1456 LINE",
"690 1456 LINE",
"690 454 LINE SMOOTH"
);
}
);
width = 1151;
}
);
leftKerningGroup = J;
note = J;
rightKerningGroup = J;
unicode = 004A;
},
{
color = 1;
glyphname = K;
layers = (
{
layerId = "E48BBF63-6980-4D0E-B72F-9E9EC78D2D9A";
paths = (
{
closed = 1;
nodes = (
"528 804 LINE",
"1176 1456 LINE",
"1098 1456 LINE",
"494 849 LINE",
"254 615 LINE",
"254 1456 LINE",
"200 1456 LINE",
"200 0 LINE",
"254 0 LINE",
"254 551 LINE",
"487 766 LINE",
"1156 0 LINE",
"1226 0 LINE"
);
}
);
width = 1300;
},
{
hints = (
{
horizontal = 1;
origin = "{0, 0}";
type = Anchor;
},
{
horizontal = 1;
origin = "{0, 1}";
type = Anchor;
},
{
horizontal = 1;
origin = "{0, 2}";
type = Anchor;
},
{
horizontal = 1;
origin = "{0, 3}";
type = Anchor;
},
{
horizontal = 1;
origin = "{0, 4}";
type = Anchor;
},
{
horizontal = 1;
origin = "{0, 5}";
type = Anchor;
},
{
horizontal = 1;
origin = "{0, 6}";
type = Anchor;
},
{
horizontal = 1;
origin = "{0, 7}";
type = Anchor;
},
{
horizontal = 1;
origin = "{0, 8}";
type = Anchor;
},
{
horizontal = 1;
origin = "{0, 9}";
type = Anchor;
},
{
horizontal = 1;
origin = "{0, 10}";
type = Anchor;
},
{
horizontal = 1;
origin = "{0, 11}";
type = Anchor;
},
{
horizontal = 1;
origin = "{0, 12}";
type = Anchor;
}
);
layerId = "10767FFE-EA3C-45A9-8421-483827593C6E";
paths = (
{
closed = 1;
nodes = (
"598 808 LINE",
"1208 1456 LINE",
"1053 1456 LINE",
"506 879 LINE",
"308 673 LINE",
"308 1456 LINE",
"185 1456 LINE",
"185 0 LINE",
"308 0 LINE",
"308 522 LINE",
"513 723 LINE",
"1106 0 LINE",
"1256 0 LINE"
);
}
);
width = 1292;
},
{
hints = (
{
horizontal = 1;
origin = "{0, 0}";
type = Anchor;
},
{
horizontal = 1;
origin = "{0, 1}";
type = Anchor;
},
{
horizontal = 1;
origin = "{0, 2}";
type = Anchor;
},
{
horizontal = 1;
origin = "{0, 3}";
type = Anchor;
},
{
horizontal = 1;
origin = "{0, 4}";
type = Anchor;
},
{
horizontal = 1;
origin = "{0, 5}";
type = Anchor;
},
{
horizontal = 1;
origin = "{0, 6}";
type = Anchor;
},
{
horizontal = 1;
origin = "{0, 7}";
type = Anchor;
},
{
horizontal = 1;
origin = "{0, 8}";
type = Anchor;
},
{
horizontal = 1;
origin = "{0, 9}";
type = Anchor;
},
{
horizontal = 1;
origin = "{0, 10}";
type = Anchor;
},
{
horizontal = 1;
origin = "{0, 11}";
type = Anchor;
}
);
layerId = "EFC0C7B3-D173-4BF6-BF18-C95D96D5B447";
paths = (
{
closed = 1;
nodes = (
"669 813 LINE",
"1241 1456 LINE",
"1009 1456 LINE",
"362 738 LINE",
"362 1456 LINE",
"169 1456 LINE",
"169 0 LINE",
"362 0 LINE",
"362 493 LINE",
"540 678 LINE",
"1055 0 LINE",
"1285 0 LINE"
);
}
);
width = 1285;
},
{
hints = (
{
horizontal = 1;
origin = "{0, 0}";
type = Anchor;
},
{
horizontal = 1;
origin = "{0, 1}";
type = Anchor;
},
{
horizontal = 1;
origin = "{0, 2}";
type = Anchor;
},
{
horizontal = 1;
origin = "{0, 3}";
type = Anchor;
},
{
horizontal = 1;
origin = "{0, 4}";
type = Anchor;
},
{
horizontal = 1;
origin = "{0, 5}";
type = Anchor;
},
{
horizontal = 1;
origin = "{0, 6}";
type = Anchor;
},
{
horizontal = 1;
origin = "{0, 7}";
type = Anchor;
},
{
horizontal = 1;
origin = "{0, 8}";
type = Anchor;
},
{
horizontal = 1;
origin = "{0, 9}";
type = Anchor;
},
{
horizontal = 1;
origin = "{0, 10}";
type = Anchor;
},
{
horizontal = 1;
origin = "{0, 11}";
type = Anchor;
},
{
horizontal = 1;
origin = "{0, 12}";
type = Anchor;
}
);
layerId = "D68CFE38-7B02-4705-B0C1-3A2279678377";
paths = (
{
closed = 1;
nodes = (
"733 812 LINE",
"1274 1456 LINE",
"968 1456 LINE",
"542 946 LINE",
"401 772 LINE",
"401 1456 LINE",
"149 1456 LINE",
"149 0 LINE",
"401 0 LINE",
"401 454 LINE",
"567 630 LINE",
"1004 0 LINE",
"1304 0 LINE"
);
}
);
width = 1291;
},
{
hints = (
{
horizontal = 1;
origin = "{0, 0}";
type = Anchor;
},
{
horizontal = 1;
origin = "{0, 1}";
type = Anchor;
},
{
horizontal = 1;
origin = "{0, 2}";
type = Anchor;
},
{
horizontal = 1;
origin = "{0, 3}";
type = Anchor;
},
{
horizontal = 1;
origin = "{0, 4}";
type = Anchor;
},
{
horizontal = 1;
origin = "{0, 5}";
type = Anchor;
},
{
horizontal = 1;
origin = "{0, 6}";
type = Anchor;
},
{
horizontal = 1;
origin = "{0, 7}";
type = Anchor;
},
{
horizontal = 1;
origin = "{0, 8}";
type = Anchor;
},
{
horizontal = 1;
origin = "{0, 9}";
type = Anchor;
},
{
horizontal = 1;
origin = "{0, 10}";
type = Anchor;
},
{
horizontal = 1;
origin = "{0, 11}";
type = Anchor;
},
{
horizontal = 1;
origin = "{0, 12}";
type = Anchor;
}
);
layerId = "8F63CED7-3680-4993-9CF4-CD4CD6484F7E";
paths = (
{
closed = 1;
nodes = (
"786 810 LINE",
"1302 1456 LINE",
"933 1456 LINE",
"562 977 LINE",
"431 797 LINE",
"431 1456 LINE",
"130 1456 LINE",
"130 0 LINE",
"431 0 LINE",
"431 417 LINE",
"587 585 LINE",
"961 0 LINE",
"1318 0 LINE"
);
}
);
width = 1301;
},
{
hints = (
{
horizontal = 1;
origin = "{0, 0}";
type = Anchor;
},
{
horizontal = 1;
origin = "{0, 1}";
type = Anchor;
},
{
horizontal = 1;
origin = "{0, 2}";
type = Anchor;
},
{
horizontal = 1;
origin = "{0, 3}";
type = Anchor;
},
{
horizontal = 1;
origin = "{0, 4}";
type = Anchor;
},
{
horizontal = 1;
origin = "{0, 5}";
type = Anchor;
},
{
horizontal = 1;
origin = "{0, 6}";
type = Anchor;
},
{
horizontal = 1;
origin = "{0, 7}";
type = Anchor;
},
{
horizontal = 1;
origin = "{0, 8}";
type = Anchor;
},
{
horizontal = 1;
origin = "{0, 9}";
type = Anchor;
},
{
horizontal = 1;
origin = "{0, 10}";
type = Anchor;
},
{
horizontal = 1;
origin = "{0, 11}";
type = Anchor;
},
{
horizontal = 1;
origin = "{0, 12}";
type = Anchor;
}
);
layerId = "D40DD59D-1539-4674-98F2-408D5EBDB9DF";
paths = (
{
closed = 1;
nodes = (
"840 813 LINE",
"1331 1456 LINE",
"898 1456 LINE",
"584 999 LINE",
"462 814 LINE",
"462 1456 LINE",
"111 1456 LINE",
"111 0 LINE",
"462 0 LINE",
"462 384 LINE",
"606 541 LINE",
"916 0 LINE",
"1331 0 LINE"
);
}
);
width = 1310;
}
);
note = K;
rightKerningGroup = K;
unicode = 004B;
},
{
color = 1;
glyphname = L;
layers = (
{
layerId = "E48BBF63-6980-4D0E-B72F-9E9EC78D2D9A";
paths = (
{
closed = 1;
nodes = (
"255 1456 LINE",
"200 1456 LINE",
"200 0 LINE",
"1002 0 LINE",
"1002 54 LINE",
"255 54 LINE"
);
}
);
width = 1057;
},
{
hints = (
{
horizontal = 1;
origin = "{0, 0}";
type = Anchor;
},
{
horizontal = 1;
origin = "{0, 1}";
type = Anchor;
},
{
horizontal = 1;
origin = "{0, 2}";
type = Anchor;
},
{
horizontal = 1;
origin = "{0, 3}";
type = Anchor;
},
{
horizontal = 1;
origin = "{0, 4}";
type = Anchor;
},
{
horizontal = 1;
origin = "{0, 5}";
type = Anchor;
}
);
layerId = "10767FFE-EA3C-45A9-8421-483827593C6E";
paths = (
{
closed = 1;
nodes = (
"309 1456 LINE",
"185 1456 LINE",
"185 0 LINE",
"1027 0 LINE",
"1027 104 LINE",
"309 104 LINE"
);
}
);
width = 1080;
},
{
hints = (
{
horizontal = 1;
origin = "{0, 0}";
type = Anchor;
},
{
horizontal = 1;
origin = "{0, 1}";
type = Anchor;
},
{
horizontal = 1;
origin = "{0, 2}";
type = Anchor;
},
{
horizontal = 1;
origin = "{0, 3}";
type = Anchor;
},
{
horizontal = 1;
origin = "{0, 4}";
type = Anchor;
},
{
horizontal = 1;
origin = "{0, 5}";
type = Anchor;
}
);
layerId = "EFC0C7B3-D173-4BF6-BF18-C95D96D5B447";
paths = (
{
closed = 1;
nodes = (
"362 1456 LINE",
"169 1456 LINE",
"169 0 LINE",
"1052 0 LINE",
"1052 157 LINE",
"362 157 LINE"
);
}
);
width = 1103;
},
{
hints = (
{
horizontal = 1;
origin = "{0, 0}";
type = Anchor;
},
{
horizontal = 1;
origin = "{0, 1}";
type = Anchor;
},
{
horizontal = 1;
origin = "{0, 2}";
type = Anchor;
},
{
horizontal = 1;
origin = "{0, 3}";
type = Anchor;
},
{
horizontal = 1;
origin = "{0, 4}";
type = Anchor;
},
{
horizontal = 1;
origin = "{0, 5}";
type = Anchor;
}
);
layerId = "D68CFE38-7B02-4705-B0C1-3A2279678377";
paths = (
{
closed = 1;
nodes = (
"401 1456 LINE",
"149 1456 LINE",
"149 0 LINE",
"1063 0 LINE",
"1063 202 LINE",
"401 202 LINE"
);
}
);
width = 1109;
},
{
hints = (
{
horizontal = 1;
origin = "{0, 0}";
type = Anchor;
},
{
horizontal = 1;
origin = "{0, 1}";
type = Anchor;
},
{
horizontal = 1;
origin = "{0, 2}";
type = Anchor;
},
{
horizontal = 1;
origin = "{0, 3}";
type = Anchor;
},
{
horizontal = 1;
origin = "{0, 4}";
type = Anchor;
},
{
horizontal = 1;
origin = "{0, 5}";
type = Anchor;
}
);
layerId = "8F63CED7-3680-4993-9CF4-CD4CD6484F7E";
paths = (
{
closed = 1;
nodes = (
"431 1456 LINE",
"130 1456 LINE",
"130 0 LINE",
"1067 0 LINE",
"1067 242 LINE",
"431 242 LINE"
);
}
);
width = 1109;
},
{
hints = (
{
horizontal = 1;
origin = "{0, 0}";
type = Anchor;
},
{
horizontal = 1;
origin = "{0, 1}";
type = Anchor;
},
{
horizontal = 1;
origin = "{0, 2}";
type = Anchor;
},
{
horizontal = 1;
origin = "{0, 3}";
type = Anchor;
},
{
horizontal = 1;
origin = "{0, 4}";
type = Anchor;
},
{
horizontal = 1;
origin = "{0, 5}";
type = Anchor;
}
);
layerId = "D40DD59D-1539-4674-98F2-408D5EBDB9DF";
paths = (
{
closed = 1;
nodes = (
"462 1456 LINE",
"111 1456 LINE",
"111 0 LINE",
"1073 0 LINE",
"1073 270 LINE",
"462 270 LINE"
);
}
);
width = 1110;
}
);
note = L;
rightKerningGroup = L;
unicode = 004C;
},
{
color = 1;
glyphname = M;
layers = (
{
layerId = "E48BBF63-6980-4D0E-B72F-9E9EC78D2D9A";
paths = (
{
closed = 1;
nodes = (
"200 1456 LINE",
"200 0 LINE",
"254 0 LINE",
"254 1369 LINE",
"855 0 LINE",
"898 0 LINE",
"1502 1376 LINE",
"1502 0 LINE",
"1556 0 LINE",
"1556 1456 LINE",
"1477 1456 LINE",
"876 79 LINE",
"277 1456 LINE"
);
}
);
width = 1756;
},
{
hints = (
{
horizontal = 1;
origin = "{0, 0}";
type = Anchor;
},
{
horizontal = 1;
origin = "{0, 1}";
type = Anchor;
},
{
horizontal = 1;
origin = "{0, 2}";
type = Anchor;
},
{
horizontal = 1;
origin = "{0, 3}";
type = Anchor;
},
{
horizontal = 1;
origin = "{0, 4}";
type = Anchor;
},
{
horizontal = 1;
origin = "{0, 5}";
type = Anchor;
},
{
horizontal = 1;
origin = "{0, 6}";
type = Anchor;
},
{
horizontal = 1;
origin = "{0, 7}";
type = Anchor;
},
{
horizontal = 1;
origin = "{0, 8}";
type = Anchor;
},
{
horizontal = 1;
origin = "{0, 9}";
type = Anchor;
},
{
horizontal = 1;
origin = "{0, 10}";
type = Anchor;
},
{
horizontal = 1;
origin = "{0, 11}";
type = Anchor;
},
{
horizontal = 1;
origin = "{0, 12}";
type = Anchor;
},
{
horizontal = 1;
origin = "{0, 13}";
type = Anchor;
},
{
horizontal = 1;
origin = "{0, 14}";
type = Anchor;
}
);
layerId = "10767FFE-EA3C-45A9-8421-483827593C6E";
paths = (
{
closed = 1;
nodes = (
"185 1456 LINE",
"185 0 LINE",
"308 0 LINE",
"308 639 LINE",
"297 1281 LINE",
"837 0 LINE",
"932 0 LINE",
"1475 1286 LINE",
"1464 635 LINE",
"1464 0 LINE",
"1587 0 LINE",
"1587 1456 LINE",
"1423 1456 LINE",
"885 172 LINE",
"347 1456 LINE"
);
}
);
width = 1772;
},
{
hints = (
{
horizontal = 1;
origin = "{0, 0}";
type = Anchor;
},
{
horizontal = 1;
origin = "{0, 1}";
type = Anchor;
},
{
horizontal = 1;
origin = "{0, 2}";
type = Anchor;
},
{
horizontal = 1;
origin = "{0, 3}";
type = Anchor;
},
{
horizontal = 1;
origin = "{0, 4}";
type = Anchor;
},
{
horizontal = 1;
origin = "{0, 5}";
type = Anchor;
},
{
horizontal = 1;
origin = "{0, 6}";
type = Anchor;
},
{
horizontal = 1;
origin = "{0, 7}";
type = Anchor;
},
{
horizontal = 1;
origin = "{0, 8}";
type = Anchor;
},
{
horizontal = 1;
origin = "{0, 9}";
type = Anchor;
},
{
horizontal = 1;
origin = "{0, 10}";
type = Anchor;
},
{
horizontal = 1;
origin = "{0, 11}";
type = Anchor;
},
{
horizontal = 1;
origin = "{0, 12}";
type = Anchor;
},
{
horizontal = 1;
origin = "{0, 13}";
type = Anchor;
},
{
horizontal = 1;
origin = "{0, 14}";
type = Anchor;
}
);
layerId = "EFC0C7B3-D173-4BF6-BF18-C95D96D5B447";
paths = (
{
closed = 1;
nodes = (
"169 1456 LINE",
"169 0 LINE",
"361 0 LINE",
"361 568 LINE",
"342 1179 LINE",
"820 0 LINE",
"966 0 LINE",
"1445 1177 LINE",
"1426 568 LINE",
"1426 0 LINE",
"1618 0 LINE",
"1618 1456 LINE",
"1370 1456 LINE",
"894 269 LINE",
"417 1456 LINE"
);
}
);
width = 1788;
},
{
hints = (
{
horizontal = 1;
origin = "{0, 0}";
type = Anchor;
},
{
horizontal = 1;
origin = "{0, 1}";
type = Anchor;
},
{
horizontal = 1;
origin = "{0, 2}";
type = Anchor;
},
{
horizontal = 1;
origin = "{0, 3}";
type = Anchor;
},
{
horizontal = 1;
origin = "{0, 4}";
type = Anchor;
},
{
horizontal = 1;
origin = "{0, 5}";
type = Anchor;
},
{
horizontal = 1;
origin = "{0, 6}";
type = Anchor;
},
{
horizontal = 1;
origin = "{0, 7}";
type = Anchor;
},
{
horizontal = 1;
origin = "{0, 8}";
type = Anchor;
},
{
horizontal = 1;
origin = "{0, 9}";
type = Anchor;
},
{
horizontal = 1;
origin = "{0, 10}";
type = Anchor;
},
{
horizontal = 1;
origin = "{0, 11}";
type = Anchor;
},
{
horizontal = 1;
origin = "{0, 12}";
type = Anchor;
},
{
horizontal = 1;
origin = "{0, 13}";
type = Anchor;
},
{
horizontal = 1;
origin = "{0, 14}";
type = Anchor;
}
);
layerId = "D68CFE38-7B02-4705-B0C1-3A2279678377";
paths = (
{
closed = 1;
nodes = (
"149 1456 LINE",
"149 0 LINE",
"401 0 LINE",
"401 480 LINE",
"376 1121 LINE",
"805 0 LINE",
"986 0 LINE",
"1415 1120 LINE",
"1391 480 LINE",
"1391 0 LINE",
"1643 0 LINE",
"1643 1456 LINE",
"1315 1456 LINE",
"896 340 LINE",
"476 1456 LINE"
);
}
);
width = 1793;
},
{
hints = (
{
horizontal = 1;
origin = "{0, 0}";
type = Anchor;
},
{
horizontal = 1;
origin = "{0, 1}";
type = Anchor;
},
{
horizontal = 1;
origin = "{0, 2}";
type = Anchor;
},
{
horizontal = 1;
origin = "{0, 3}";
type = Anchor;
},
{
horizontal = 1;
origin = "{0, 4}";
type = Anchor;
},
{
horizontal = 1;
origin = "{0, 5}";
type = Anchor;
},
{
horizontal = 1;
origin = "{0, 6}";
type = Anchor;
},
{
horizontal = 1;
origin = "{0, 7}";
type = Anchor;
},
{
horizontal = 1;
origin = "{0, 8}";
type = Anchor;
},
{
horizontal = 1;
origin = "{0, 9}";
type = Anchor;
},
{
horizontal = 1;
origin = "{0, 10}";
type = Anchor;
},
{
horizontal = 1;
origin = "{0, 11}";
type = Anchor;
},
{
horizontal = 1;
origin = "{0, 12}";
type = Anchor;
},
{
horizontal = 1;
origin = "{0, 13}";
type = Anchor;
},
{
horizontal = 1;
origin = "{0, 14}";
type = Anchor;
}
);
layerId = "8F63CED7-3680-4993-9CF4-CD4CD6484F7E";
paths = (
{
closed = 1;
nodes = (
"130 1456 LINE",
"130 0 LINE",
"431 0 LINE",
"431 398 LINE",
"401 1082 LINE",
"793 0 LINE",
"999 0 LINE",
"1391 1082 LINE",
"1361 398 LINE",
"1361 0 LINE",
"1662 0 LINE",
"1662 1456 LINE",
"1269 1456 LINE",
"896 400 LINE",
"523 1456 LINE"
);
}
);
width = 1794;
},
{
hints = (
{
horizontal = 1;
origin = "{0, 0}";
type = Anchor;
},
{
horizontal = 1;
origin = "{0, 1}";
type = Anchor;
},
{
horizontal = 1;
origin = "{0, 2}";
type = Anchor;
},
{
horizontal = 1;
origin = "{0, 3}";
type = Anchor;
},
{
horizontal = 1;
origin = "{0, 4}";
type = Anchor;
},
{
horizontal = 1;
origin = "{0, 5}";
type = Anchor;
},
{
horizontal = 1;
origin = "{0, 6}";
type = Anchor;
},
{
horizontal = 1;
origin = "{0, 7}";
type = Anchor;
},
{
horizontal = 1;
origin = "{0, 8}";
type = Anchor;
},
{
horizontal = 1;
origin = "{0, 9}";
type = Anchor;
},
{
horizontal = 1;
origin = "{0, 10}";
type = Anchor;
},
{
horizontal = 1;
origin = "{0, 11}";
type = Anchor;
},
{
horizontal = 1;
origin = "{0, 12}";
type = Anchor;
},
{
horizontal = 1;
origin = "{0, 13}";
type = Anchor;
},
{
horizontal = 1;
origin = "{0, 14}";
type = Anchor;
}
);
layerId = "D40DD59D-1539-4674-98F2-408D5EBDB9DF";
paths = (
{
closed = 1;
nodes = (
"111 1456 LINE",
"111 0 LINE",
"462 0 LINE",
"462 340 LINE",
"428 1036 LINE",
"780 0 LINE",
"1012 0 LINE",
"1364 1036 LINE",
"1330 340 LINE",
"1330 0 LINE",
"1682 0 LINE",
"1682 1456 LINE",
"1221 1456 LINE",
"896 443 LINE",
"571 1456 LINE"
);
}
);
width = 1795;
}
);
note = M;
rightKerningGroup = H;
unicode = 004D;
},
{
color = 1;
glyphname = N;
layers = (
{
layerId = "E48BBF63-6980-4D0E-B72F-9E9EC78D2D9A";
paths = (
{
closed = 1;
nodes = (
"1195 95 LINE",
"255 1456 LINE",
"200 1456 LINE",
"200 0 LINE",
"255 0 LINE",
"255 1364 LINE",
"1195 0 LINE",
"1249 0 LINE",
"1249 1456 LINE",
"1195 1456 LINE"
);
}
);
width = 1449;
},
{
hints = (
{
horizontal = 1;
origin = "{0, 0}";
type = Anchor;
},
{
horizontal = 1;
origin = "{0, 1}";
type = Anchor;
},
{
horizontal = 1;
origin = "{0, 2}";
type = Anchor;
},
{
horizontal = 1;
origin = "{0, 3}";
type = Anchor;
},
{
horizontal = 1;
origin = "{0, 4}";
type = Anchor;
},
{
horizontal = 1;
origin = "{0, 5}";
type = Anchor;
},
{
horizontal = 1;
origin = "{0, 6}";
type = Anchor;
},
{
horizontal = 1;
origin = "{0, 7}";
type = Anchor;
},
{
horizontal = 1;
origin = "{0, 8}";
type = Anchor;
},
{
horizontal = 1;
origin = "{0, 9}";
type = Anchor;
}
);
layerId = "10767FFE-EA3C-45A9-8421-483827593C6E";
paths = (
{
closed = 1;
nodes = (
"1146 210 LINE",
"309 1456 LINE",
"185 1456 LINE",
"185 0 LINE",
"309 0 LINE",
"309 1246 LINE",
"1145 0 LINE",
"1269 0 LINE",
"1269 1456 LINE",
"1146 1456 LINE"
);
}
);
width = 1455;
},
{
hints = (
{
horizontal = 1;
origin = "{0, 0}";
type = Anchor;
},
{
horizontal = 1;
origin = "{0, 1}";
type = Anchor;
},
{
horizontal = 1;
origin = "{0, 2}";
type = Anchor;
},
{
horizontal = 1;
origin = "{0, 3}";
type = Anchor;
},
{
horizontal = 1;
origin = "{0, 4}";
type = Anchor;
},
{
horizontal = 1;
origin = "{0, 5}";
type = Anchor;
},
{
horizontal = 1;
origin = "{0, 6}";
type = Anchor;
},
{
horizontal = 1;
origin = "{0, 7}";
type = Anchor;
},
{
horizontal = 1;
origin = "{0, 8}";
type = Anchor;
},
{
horizontal = 1;
origin = "{0, 9}";
type = Anchor;
}
);
layerId = "EFC0C7B3-D173-4BF6-BF18-C95D96D5B447";
paths = (
{
closed = 1;
nodes = (
"1098 330 LINE",
"362 1456 LINE",
"169 1456 LINE",
"169 0 LINE",
"362 0 LINE",
"362 1123 LINE",
"1095 0 LINE",
"1289 0 LINE",
"1289 1456 LINE",
"1098 1456 LINE"
);
}
);
width = 1461;
},
{
hints = (
{
horizontal = 1;
origin = "{0, 0}";
type = Anchor;
},
{
horizontal = 1;
origin = "{0, 1}";
type = Anchor;
},
{
horizontal = 1;
origin = "{0, 2}";
type = Anchor;
},
{
horizontal = 1;
origin = "{0, 3}";
type = Anchor;
},
{
horizontal = 1;
origin = "{0, 4}";
type = Anchor;
},
{
horizontal = 1;
origin = "{0, 5}";
type = Anchor;
},
{
horizontal = 1;
origin = "{0, 6}";
type = Anchor;
},
{
horizontal = 1;
origin = "{0, 7}";
type = Anchor;
},
{
horizontal = 1;
origin = "{0, 8}";
type = Anchor;
},
{
horizontal = 1;
origin = "{0, 9}";
type = Anchor;
}
);
layerId = "D68CFE38-7B02-4705-B0C1-3A2279678377";
paths = (
{
closed = 1;
nodes = (
"1053 420 LINE",
"401 1456 LINE",
"149 1456 LINE",
"149 0 LINE",
"401 0 LINE",
"401 1033 LINE",
"1051 0 LINE",
"1304 0 LINE",
"1304 1456 LINE",
"1053 1456 LINE"
);
}
);
width = 1455;
},
{
hints = (
{
horizontal = 1;
origin = "{0, 0}";
type = Anchor;
},
{
horizontal = 1;
origin = "{0, 1}";
type = Anchor;
},
{
horizontal = 1;
origin = "{0, 2}";
type = Anchor;
},
{
horizontal = 1;
origin = "{0, 3}";
type = Anchor;
},
{
horizontal = 1;
origin = "{0, 4}";
type = Anchor;
},
{
horizontal = 1;
origin = "{0, 5}";
type = Anchor;
},
{
horizontal = 1;
origin = "{0, 6}";
type = Anchor;
},
{
horizontal = 1;
origin = "{0, 7}";
type = Anchor;
},
{
horizontal = 1;
origin = "{0, 8}";
type = Anchor;
},
{
horizontal = 1;
origin = "{0, 9}";
type = Anchor;
}
);
layerId = "8F63CED7-3680-4993-9CF4-CD4CD6484F7E";
paths = (
{
closed = 1;
nodes = (
"1015 496 LINE",
"431 1456 LINE",
"130 1456 LINE",
"130 0 LINE",
"431 0 LINE",
"431 959 LINE",
"1015 0 LINE",
"1315 0 LINE",
"1315 1456 LINE",
"1015 1456 LINE"
);
}
);
width = 1447;
},
{
hints = (
{
horizontal = 1;
origin = "{0, 0}";
type = Anchor;
},
{
horizontal = 1;
origin = "{0, 1}";
type = Anchor;
},
{
horizontal = 1;
origin = "{0, 2}";
type = Anchor;
},
{
horizontal = 1;
origin = "{0, 3}";
type = Anchor;
},
{
horizontal = 1;
origin = "{0, 4}";
type = Anchor;
},
{
horizontal = 1;
origin = "{0, 5}";
type = Anchor;
},
{
horizontal = 1;
origin = "{0, 6}";
type = Anchor;
},
{
horizontal = 1;
origin = "{0, 7}";
type = Anchor;
},
{
horizontal = 1;
origin = "{0, 8}";
type = Anchor;
},
{
horizontal = 1;
origin = "{0, 9}";
type = Anchor;
}
);
layerId = "D40DD59D-1539-4674-98F2-408D5EBDB9DF";
paths = (
{
closed = 1;
nodes = (
"977 550 LINE",
"462 1456 LINE",
"111 1456 LINE",
"111 0 LINE",
"462 0 LINE",
"462 906 LINE",
"977 0 LINE",
"1327 0 LINE",
"1327 1456 LINE",
"977 1456 LINE"
);
}
);
width = 1438;
}
);
note = N;
rightKerningGroup = H;
unicode = 004E;
},
{
color = 1;
glyphname = Ntilde;
layers = (
{
layerId = "E48BBF63-6980-4D0E-B72F-9E9EC78D2D9A";
paths = (
{
closed = 1;
nodes = (
"1195 95 LINE",
"255 1456 LINE",
"200 1456 LINE",
"200 0 LINE",
"255 0 LINE",
"255 1364 LINE",
"1195 0 LINE",
"1249 0 LINE",
"1249 1456 LINE",
"1195 1456 LINE"
);
},
{
closed = 1;
nodes = (
"999 1722 OFFCURVE",
"943 1675 OFFCURVE",
"878 1675 CURVE SMOOTH",
"874 1675 LINE SMOOTH",
"839 1676 OFFCURVE",
"809 1686 OFFCURVE",
"784 1707 CURVE SMOOTH",
"734 1747 OFFCURVE",
"684 1799 OFFCURVE",
"591 1799 CURVE SMOOTH",
"492 1799 OFFCURVE",
"415 1729 OFFCURVE",
"415 1620 CURVE",
"470 1620 LINE",
"470 1704 OFFCURVE",
"524 1745 OFFCURVE",
"591 1745 CURVE SMOOTH",
"595 1745 LINE SMOOTH",
"632 1744 OFFCURVE",
"663 1734 OFFCURVE",
"688 1713 CURVE SMOOTH",
"736 1672 OFFCURVE",
"782 1620 OFFCURVE",
"878 1620 CURVE SMOOTH",
"975 1620 OFFCURVE",
"1054 1695 OFFCURVE",
"1054 1806 CURVE",
"999 1806 LINE"
);
}
);
width = 1449;
},
{
layerId = "10767FFE-EA3C-45A9-8421-483827593C6E";
paths = (
{
closed = 1;
nodes = (
"1146 210 LINE",
"309 1456 LINE",
"185 1456 LINE",
"185 0 LINE",
"309 0 LINE",
"309 1246 LINE",
"1145 0 LINE",
"1269 0 LINE",
"1269 1456 LINE",
"1146 1456 LINE"
);
},
{
closed = 1;
nodes = (
"978 1742 OFFCURVE",
"929 1695 OFFCURVE",
"868 1695 CURVE SMOOTH",
"833 1695 OFFCURVE",
"802 1704 OFFCURVE",
"776 1722 CURVE SMOOTH",
"694 1778 LINE SMOOTH",
"667 1796 OFFCURVE",
"632 1805 OFFCURVE",
"590 1805 CURVE SMOOTH",
"481 1805 OFFCURVE",
"395 1720 OFFCURVE",
"395 1593 CURVE",
"484 1589 LINE",
"484 1664 OFFCURVE",
"532 1708 OFFCURVE",
"595 1708 CURVE SMOOTH",
"633 1708 OFFCURVE",
"664 1699 OFFCURVE",
"688 1680 CURVE SMOOTH",
"735 1644 OFFCURVE",
"779 1598 OFFCURVE",
"872 1598 CURVE SMOOTH",
"981 1598 OFFCURVE",
"1068 1682 OFFCURVE",
"1068 1811 CURVE",
"978 1817 LINE"
);
}
);
width = 1455;
},
{
layerId = "EFC0C7B3-D173-4BF6-BF18-C95D96D5B447";
paths = (
{
closed = 1;
nodes = (
"1098 330 LINE",
"362 1456 LINE",
"169 1456 LINE",
"169 0 LINE",
"362 0 LINE",
"362 1123 LINE",
"1095 0 LINE",
"1289 0 LINE",
"1289 1456 LINE",
"1098 1456 LINE"
);
},
{
closed = 1;
nodes = (
"956 1764 OFFCURVE",
"912 1715 OFFCURVE",
"856 1715 CURVE SMOOTH",
"821 1715 OFFCURVE",
"790 1723 OFFCURVE",
"764 1739 CURVE SMOOTH",
"716 1768 OFFCURVE",
"664 1810 OFFCURVE",
"588 1810 CURVE SMOOTH",
"467 1810 OFFCURVE",
"373 1710 OFFCURVE",
"373 1563 CURVE",
"498 1557 LINE",
"498 1620 OFFCURVE",
"541 1668 OFFCURVE",
"597 1668 CURVE SMOOTH",
"634 1668 OFFCURVE",
"664 1660 OFFCURVE",
"687 1644 CURVE SMOOTH",
"759 1597 LINE SMOOTH",
"784 1581 OFFCURVE",
"820 1573 OFFCURVE",
"865 1573 CURVE SMOOTH",
"986 1573 OFFCURVE",
"1081 1669 OFFCURVE",
"1081 1816 CURVE",
"956 1827 LINE"
);
}
);
width = 1461;
},
{
layerId = "D68CFE38-7B02-4705-B0C1-3A2279678377";
paths = (
{
closed = 1;
nodes = (
"1053 420 LINE",
"401 1456 LINE",
"149 1456 LINE",
"149 0 LINE",
"401 0 LINE",
"401 1033 LINE",
"1051 0 LINE",
"1304 0 LINE",
"1304 1456 LINE",
"1053 1456 LINE"
);
},
{
closed = 1;
nodes = (
"944 1774 OFFCURVE",
"903 1732 OFFCURVE",
"852 1732 CURVE SMOOTH",
"801 1732 OFFCURVE",
"757 1747 OFFCURVE",
"720 1777 CURVE SMOOTH",
"683 1806 OFFCURVE",
"637 1821 OFFCURVE",
"582 1821 CURVE SMOOTH",
"454 1821 OFFCURVE",
"359 1708 OFFCURVE",
"359 1561 CURVE",
"509 1553 LINE",
"509 1614 OFFCURVE",
"548 1656 OFFCURVE",
"599 1656 CURVE SMOOTH",
"635 1656 OFFCURVE",
"665 1649 OFFCURVE",
"689 1634 CURVE SMOOTH",
"737 1604 OFFCURVE",
"784 1567 OFFCURVE",
"869 1567 CURVE SMOOTH",
"996 1567 OFFCURVE",
"1093 1675 OFFCURVE",
"1093 1823 CURVE",
"944 1835 LINE"
);
}
);
width = 1455;
},
{
layerId = "8F63CED7-3680-4993-9CF4-CD4CD6484F7E";
paths = (
{
closed = 1;
nodes = (
"1015 496 LINE",
"431 1456 LINE",
"130 1456 LINE",
"130 0 LINE",
"431 0 LINE",
"431 959 LINE",
"1015 0 LINE",
"1315 0 LINE",
"1315 1456 LINE",
"1015 1456 LINE"
);
},
{
closed = 1;
nodes = (
"935 1782 OFFCURVE",
"897 1747 OFFCURVE",
"850 1747 CURVE SMOOTH",
"800 1747 OFFCURVE",
"755 1761 OFFCURVE",
"716 1790 CURVE SMOOTH",
"676 1819 OFFCURVE",
"629 1833 OFFCURVE",
"576 1833 CURVE SMOOTH",
"445 1833 OFFCURVE",
"350 1709 OFFCURVE",
"350 1565 CURVE",
"517 1556 LINE",
"517 1619 OFFCURVE",
"545 1651 OFFCURVE",
"601 1651 CURVE SMOOTH",
"636 1651 OFFCURVE",
"666 1644 OFFCURVE",
"691 1630 CURVE SMOOTH",
"740 1601 OFFCURVE",
"791 1565 OFFCURVE",
"875 1565 CURVE SMOOTH",
"1007 1565 OFFCURVE",
"1102 1684 OFFCURVE",
"1102 1831 CURVE",
"935 1843 LINE"
);
}
);
width = 1447;
},
{
layerId = "D40DD59D-1539-4674-98F2-408D5EBDB9DF";
paths = (
{
closed = 1;
nodes = (
"977 550 LINE",
"462 1456 LINE",
"111 1456 LINE",
"111 0 LINE",
"462 0 LINE",
"462 906 LINE",
"977 0 LINE",
"1327 0 LINE",
"1327 1456 LINE",
"977 1456 LINE"
);
},
{
closed = 1;
nodes = (
"926 1787 OFFCURVE",
"890 1758 OFFCURVE",
"847 1758 CURVE SMOOTH",
"798 1758 OFFCURVE",
"753 1772 OFFCURVE",
"711 1800 CURVE SMOOTH",
"668 1827 OFFCURVE",
"621 1841 OFFCURVE",
"569 1841 CURVE SMOOTH",
"433 1841 OFFCURVE",
"338 1711 OFFCURVE",
"338 1568 CURVE",
"526 1558 LINE",
"526 1618 OFFCURVE",
"551 1648 OFFCURVE",
"602 1648 CURVE SMOOTH",
"653 1648 OFFCURVE",
"696 1634 OFFCURVE",
"733 1606 CURVE SMOOTH",
"770 1578 OFFCURVE",
"819 1564 OFFCURVE",
"881 1564 CURVE SMOOTH",
"1017 1564 OFFCURVE",
"1112 1690 OFFCURVE",
"1112 1837 CURVE",
"926 1848 LINE"
);
}
);
width = 1438;
}
);
note = Ntilde;
rightKerningGroup = H;
unicode = 00D1;
},
{
color = 1;
glyphname = O;
layers = (
{
layerId = "E48BBF63-6980-4D0E-B72F-9E9EC78D2D9A";
paths = (
{
closed = 1;
nodes = (
"1231 1217 OFFCURVE",
"1016 1476 OFFCURVE",
"681 1476 CURVE SMOOTH",
"346 1476 OFFCURVE",
"133 1217 OFFCURVE",
"133 837 CURVE SMOOTH",
"133 619 LINE SMOOTH",
"133 239 OFFCURVE",
"348 -20 OFFCURVE",
"683 -20 CURVE SMOOTH",
"1018 -20 OFFCURVE",
"1231 239 OFFCURVE",
"1231 619 CURVE SMOOTH",
"1231 837 LINE SMOOTH"
);
},
{
closed = 1;
nodes = (
"1177 276 OFFCURVE",
"996 34 OFFCURVE",
"683 34 CURVE SMOOTH",
"371 34 OFFCURVE",
"188 276 OFFCURVE",
"188 619 CURVE SMOOTH",
"188 839 LINE SMOOTH",
"188 1180 OFFCURVE",
"369 1422 OFFCURVE",
"681 1422 CURVE SMOOTH",
"994 1422 OFFCURVE",
"1177 1180 OFFCURVE",
"1177 839 CURVE SMOOTH",
"1177 619 LINE SMOOTH"
);
}
);
width = 1364;
},
{
hints = (
{
horizontal = 1;
origin = "{0, 0}";
type = Anchor;
},
{
horizontal = 1;
origin = "{0, 1}";
type = Anchor;
},
{
horizontal = 1;
origin = "{0, 2}";
type = Anchor;
},
{
horizontal = 1;
origin = "{0, 3}";
type = Anchor;
},
{
horizontal = 1;
origin = "{0, 4}";
type = Anchor;
},
{
horizontal = 1;
origin = "{0, 5}";
type = Anchor;
},
{
horizontal = 1;
origin = "{0, 6}";
type = Anchor;
},
{
horizontal = 1;
origin = "{0, 7}";
type = Anchor;
},
{
horizontal = 1;
origin = "{0, 8}";
type = Anchor;
},
{
horizontal = 1;
origin = "{0, 9}";
type = Anchor;
},
{
horizontal = 1;
origin = "{0, 10}";
type = Anchor;
},
{
horizontal = 1;
origin = "{0, 11}";
type = Anchor;
},
{
horizontal = 1;
origin = "{0, 12}";
type = Anchor;
},
{
horizontal = 1;
origin = "{0, 13}";
type = Anchor;
},
{
horizontal = 1;
origin = "{1, 0}";
type = Anchor;
},
{
horizontal = 1;
origin = "{1, 1}";
type = Anchor;
},
{
horizontal = 1;
origin = "{1, 2}";
type = Anchor;
},
{
horizontal = 1;
origin = "{1, 3}";
type = Anchor;
},
{
horizontal = 1;
origin = "{1, 4}";
type = Anchor;
},
{
horizontal = 1;
origin = "{1, 5}";
type = Anchor;
},
{
horizontal = 1;
origin = "{1, 6}";
type = Anchor;
},
{
horizontal = 1;
origin = "{1, 7}";
type = Anchor;
},
{
horizontal = 1;
origin = "{1, 8}";
type = Anchor;
},
{
horizontal = 1;
origin = "{1, 9}";
type = Anchor;
},
{
horizontal = 1;
origin = "{1, 10}";
type = Anchor;
},
{
horizontal = 1;
origin = "{1, 11}";
type = Anchor;
},
{
horizontal = 1;
origin = "{1, 12}";
type = Anchor;
},
{
horizontal = 1;
origin = "{1, 13}";
type = Anchor;
}
);
layerId = "10767FFE-EA3C-45A9-8421-483827593C6E";
paths = (
{
closed = 1;
nodes = (
"1260 1213 OFFCURVE",
"1037 1476 OFFCURVE",
"692 1476 CURVE SMOOTH",
"353 1476 OFFCURVE",
"126 1213 OFFCURVE",
"126 806 CURVE SMOOTH",
"126 635 LINE SMOOTH",
"131 236 OFFCURVE",
"359 -20 OFFCURVE",
"694 -20 CURVE SMOOTH",
"1039 -20 OFFCURVE",
"1260 242 OFFCURVE",
"1260 650 CURVE SMOOTH",
"1260 806 LINE SMOOTH"
);
},
{
closed = 1;
nodes = (
"1138 303 OFFCURVE",
"977 88 OFFCURVE",
"694 88 CURVE SMOOTH",
"419 88 OFFCURVE",
"249 303 OFFCURVE",
"249 650 CURVE SMOOTH",
"249 808 LINE SMOOTH",
"249 1152 OFFCURVE",
"417 1368 OFFCURVE",
"692 1368 CURVE SMOOTH",
"975 1368 OFFCURVE",
"1138 1152 OFFCURVE",
"1138 808 CURVE SMOOTH",
"1138 650 LINE SMOOTH"
);
}
);
width = 1387;
},
{
hints = (
{
horizontal = 1;
origin = "{0, 0}";
type = Anchor;
},
{
horizontal = 1;
origin = "{0, 1}";
type = Anchor;
},
{
horizontal = 1;
origin = "{0, 2}";
type = Anchor;
},
{
horizontal = 1;
origin = "{0, 3}";
type = Anchor;
},
{
horizontal = 1;
origin = "{0, 4}";
type = Anchor;
},
{
horizontal = 1;
origin = "{0, 5}";
type = Anchor;
},
{
horizontal = 1;
origin = "{0, 6}";
type = Anchor;
},
{
horizontal = 1;
origin = "{0, 7}";
type = Anchor;
},
{
horizontal = 1;
origin = "{0, 8}";
type = Anchor;
},
{
horizontal = 1;
origin = "{0, 9}";
type = Anchor;
},
{
horizontal = 1;
origin = "{0, 10}";
type = Anchor;
},
{
horizontal = 1;
origin = "{0, 11}";
type = Anchor;
},
{
horizontal = 1;
origin = "{0, 12}";
type = Anchor;
},
{
horizontal = 1;
origin = "{0, 13}";
type = Anchor;
},
{
horizontal = 1;
origin = "{1, 0}";
type = Anchor;
},
{
horizontal = 1;
origin = "{1, 1}";
type = Anchor;
},
{
horizontal = 1;
origin = "{1, 2}";
type = Anchor;
},
{
horizontal = 1;
origin = "{1, 3}";
type = Anchor;
},
{
horizontal = 1;
origin = "{1, 4}";
type = Anchor;
},
{
horizontal = 1;
origin = "{1, 5}";
type = Anchor;
},
{
horizontal = 1;
origin = "{1, 6}";
type = Anchor;
},
{
horizontal = 1;
origin = "{1, 7}";
type = Anchor;
},
{
horizontal = 1;
origin = "{1, 8}";
type = Anchor;
},
{
horizontal = 1;
origin = "{1, 9}";
type = Anchor;
},
{
horizontal = 1;
origin = "{1, 10}";
type = Anchor;
},
{
horizontal = 1;
origin = "{1, 11}";
type = Anchor;
},
{
horizontal = 1;
origin = "{1, 12}";
type = Anchor;
},
{
horizontal = 1;
origin = "{1, 13}";
type = Anchor;
}
);
layerId = "EFC0C7B3-D173-4BF6-BF18-C95D96D5B447";
paths = (
{
closed = 1;
nodes = (
"1286 1214 OFFCURVE",
"1056 1476 OFFCURVE",
"704 1476 CURVE SMOOTH",
"359 1476 OFFCURVE",
"119 1210 OFFCURVE",
"119 774 CURVE SMOOTH",
"119 682 LINE SMOOTH",
"119 245 OFFCURVE",
"361 -20 OFFCURVE",
"706 -20 CURVE SMOOTH",
"1061 -20 OFFCURVE",
"1290 245 OFFCURVE",
"1290 682 CURVE SMOOTH",
"1290 786 LINE"
);
},
{
closed = 1;
nodes = (
"1099 333 OFFCURVE",
"957 143 OFFCURVE",
"706 143 CURVE SMOOTH",
"467 143 OFFCURVE",
"310 333 OFFCURVE",
"310 682 CURVE SMOOTH",
"310 776 LINE SMOOTH",
"310 1123 OFFCURVE",
"465 1312 OFFCURVE",
"704 1312 CURVE SMOOTH",
"953 1312 OFFCURVE",
"1099 1123 OFFCURVE",
"1099 776 CURVE SMOOTH",
"1099 682 LINE SMOOTH"
);
}
);
width = 1409;
},
{
hints = (
{
horizontal = 1;
origin = "{0, 0}";
type = Anchor;
},
{
horizontal = 1;
origin = "{0, 1}";
type = Anchor;
},
{
horizontal = 1;
origin = "{0, 2}";
type = Anchor;
},
{
horizontal = 1;
origin = "{0, 3}";
type = Anchor;
},
{
horizontal = 1;
origin = "{0, 4}";
type = Anchor;
},
{
horizontal = 1;
origin = "{0, 5}";
type = Anchor;
},
{
horizontal = 1;
origin = "{0, 6}";
type = Anchor;
},
{
horizontal = 1;
origin = "{0, 7}";
type = Anchor;
},
{
horizontal = 1;
origin = "{0, 8}";
type = Anchor;
},
{
horizontal = 1;
origin = "{0, 9}";
type = Anchor;
},
{
horizontal = 1;
origin = "{0, 10}";
type = Anchor;
},
{
horizontal = 1;
origin = "{0, 11}";
type = Anchor;
},
{
horizontal = 1;
origin = "{0, 12}";
type = Anchor;
},
{
horizontal = 1;
origin = "{0, 13}";
type = Anchor;
},
{
horizontal = 1;
origin = "{1, 0}";
type = Anchor;
},
{
horizontal = 1;
origin = "{1, 1}";
type = Anchor;
},
{
horizontal = 1;
origin = "{1, 2}";
type = Anchor;
},
{
horizontal = 1;
origin = "{1, 3}";
type = Anchor;
},
{
horizontal = 1;
origin = "{1, 4}";
type = Anchor;
},
{
horizontal = 1;
origin = "{1, 5}";
type = Anchor;
},
{
horizontal = 1;
origin = "{1, 6}";
type = Anchor;
},
{
horizontal = 1;
origin = "{1, 7}";
type = Anchor;
},
{
horizontal = 1;
origin = "{1, 8}";
type = Anchor;
},
{
horizontal = 1;
origin = "{1, 9}";
type = Anchor;
},
{
horizontal = 1;
origin = "{1, 10}";
type = Anchor;
},
{
horizontal = 1;
origin = "{1, 11}";
type = Anchor;
},
{
horizontal = 1;
origin = "{1, 12}";
type = Anchor;
},
{
horizontal = 1;
origin = "{1, 13}";
type = Anchor;
},
{
horizontal = 1;
origin = "{0, 7}";
type = Delta;
settings = {
deltaV = {
"{100, 100, 0, 0, 0}" = {
"14" = -8;
};
};
};
},
{
horizontal = 1;
origin = "{0, 4}";
type = Delta;
settings = {
deltaV = {
"{100, 100, 0, 0, 0}" = {
"14" = 7;
};
};
};
},
{
horizontal = 1;
origin = "{0, 0}";
type = Delta;
settings = {
deltaV = {
"{100, 100, 0, 0, 0}" = {
"14" = 7;
};
};
};
},
{
horizontal = 1;
origin = "{0, 3}";
type = Delta;
},
{
horizontal = 1;
origin = "{0, 4}";
type = Delta;
settings = {
deltaV = {
"{100, 100, 0, 0, 0}" = {
"14" = 6;
};
};
};
},
{
horizontal = 1;
origin = "{0, 3}";
type = Delta;
settings = {
deltaV = {
"{100, 100, 0, 0, 0}" = {
"14" = 8;
};
};
};
}
);
layerId = "D68CFE38-7B02-4705-B0C1-3A2279678377";
paths = (
{
closed = 1;
nodes = (
"1311 1207 OFFCURVE",
"1069 1476 OFFCURVE",
"706 1476 CURVE SMOOTH",
"351 1476 OFFCURVE",
"102 1207 OFFCURVE",
"102 764 CURVE SMOOTH",
"102 691 LINE SMOOTH",
"102 248 OFFCURVE",
"353 -20 OFFCURVE",
"708 -20 CURVE SMOOTH",
"1071 -20 OFFCURVE",
"1311 248 OFFCURVE",
"1311 691 CURVE SMOOTH",
"1311 764 LINE SMOOTH"
);
},
{
closed = 1;
nodes = (
"1058 364 OFFCURVE",
"932 188 OFFCURVE",
"708 188 CURVE SMOOTH",
"492 188 OFFCURVE",
"355 364 OFFCURVE",
"355 691 CURVE SMOOTH",
"355 766 LINE SMOOTH",
"355 1093 OFFCURVE",
"490 1267 OFFCURVE",
"706 1267 CURVE SMOOTH",
"927 1267 OFFCURVE",
"1058 1093 OFFCURVE",
"1058 766 CURVE SMOOTH",
"1058 691 LINE SMOOTH"
);
}
);
width = 1414;
},
{
hints = (
{
horizontal = 1;
origin = "{0, 0}";
type = Anchor;
},
{
horizontal = 1;
origin = "{0, 1}";
type = Anchor;
},
{
horizontal = 1;
origin = "{0, 2}";
type = Anchor;
},
{
horizontal = 1;
origin = "{0, 3}";
type = Anchor;
},
{
horizontal = 1;
origin = "{0, 4}";
type = Anchor;
},
{
horizontal = 1;
origin = "{0, 5}";
type = Anchor;
},
{
horizontal = 1;
origin = "{0, 6}";
type = Anchor;
},
{
horizontal = 1;
origin = "{0, 7}";
type = Anchor;
},
{
horizontal = 1;
origin = "{0, 8}";
type = Anchor;
},
{
horizontal = 1;
origin = "{0, 9}";
type = Anchor;
},
{
horizontal = 1;
origin = "{0, 10}";
type = Anchor;
},
{
horizontal = 1;
origin = "{0, 11}";
type = Anchor;
},
{
horizontal = 1;
origin = "{0, 12}";
type = Anchor;
},
{
horizontal = 1;
origin = "{0, 13}";
type = Anchor;
},
{
horizontal = 1;
origin = "{1, 0}";
type = Anchor;
},
{
horizontal = 1;
origin = "{1, 1}";
type = Anchor;
},
{
horizontal = 1;
origin = "{1, 2}";
type = Anchor;
},
{
horizontal = 1;
origin = "{1, 3}";
type = Anchor;
},
{
horizontal = 1;
origin = "{1, 4}";
type = Anchor;
},
{
horizontal = 1;
origin = "{1, 5}";
type = Anchor;
},
{
horizontal = 1;
origin = "{1, 6}";
type = Anchor;
},
{
horizontal = 1;
origin = "{1, 7}";
type = Anchor;
},
{
horizontal = 1;
origin = "{1, 8}";
type = Anchor;
},
{
horizontal = 1;
origin = "{1, 9}";
type = Anchor;
},
{
horizontal = 1;
origin = "{1, 10}";
type = Anchor;
},
{
horizontal = 1;
origin = "{1, 11}";
type = Anchor;
},
{
horizontal = 1;
origin = "{1, 12}";
type = Anchor;
},
{
horizontal = 1;
origin = "{1, 13}";
type = Anchor;
},
{
horizontal = 1;
origin = "{1, 8}";
type = Delta;
settings = {
deltaV = {
"{100, 100, 0, 0, 0}" = {
"12" = 8;
};
};
};
},
{
horizontal = 1;
origin = "{1, 9}";
type = Delta;
settings = {
deltaV = {
"{100, 100, 0, 0, 0}" = {
"12" = 8;
};
};
};
},
{
horizontal = 1;
origin = "{1, 10}";
type = Delta;
settings = {
deltaV = {
"{100, 100, 0, 0, 0}" = {
"12" = 8;
};
};
};
}
);
layerId = "8F63CED7-3680-4993-9CF4-CD4CD6484F7E";
paths = (
{
closed = 1;
nodes = (
"1327 1204 OFFCURVE",
"1071 1476 OFFCURVE",
"706 1476 CURVE SMOOTH",
"341 1476 OFFCURVE",
"86 1204 OFFCURVE",
"86 760 CURVE SMOOTH",
"86 695 LINE SMOOTH",
"86 251 OFFCURVE",
"343 -20 OFFCURVE",
"708 -20 CURVE SMOOTH",
"1073 -20 OFFCURVE",
"1327 251 OFFCURVE",
"1327 695 CURVE SMOOTH",
"1327 760 LINE SMOOTH"
);
},
{
closed = 1;
nodes = (
"1022 390 OFFCURVE",
"909 227 OFFCURVE",
"708 227 CURVE SMOOTH",
"505 227 OFFCURVE",
"390 392 OFFCURVE",
"390 695 CURVE SMOOTH",
"390 767 LINE SMOOTH",
"391 1068 OFFCURVE",
"505 1228 OFFCURVE",
"706 1228 CURVE SMOOTH",
"907 1228 OFFCURVE",
"1023 1066 OFFCURVE",
"1023 762 CURVE SMOOTH",
"1023 690 LINE SMOOTH"
);
}
);
width = 1414;
},
{
hints = (
{
horizontal = 1;
origin = "{0, 0}";
type = Anchor;
},
{
horizontal = 1;
origin = "{0, 1}";
type = Anchor;
},
{
horizontal = 1;
origin = "{0, 2}";
type = Anchor;
},
{
horizontal = 1;
origin = "{0, 3}";
type = Anchor;
},
{
horizontal = 1;
origin = "{0, 4}";
type = Anchor;
},
{
horizontal = 1;
origin = "{0, 5}";
type = Anchor;
},
{
horizontal = 1;
origin = "{0, 6}";
type = Anchor;
},
{
horizontal = 1;
origin = "{0, 7}";
type = Anchor;
},
{
horizontal = 1;
origin = "{0, 8}";
type = Anchor;
},
{
horizontal = 1;
origin = "{0, 9}";
type = Anchor;
},
{
horizontal = 1;
origin = "{0, 10}";
type = Anchor;
},
{
horizontal = 1;
origin = "{0, 11}";
type = Anchor;
},
{
horizontal = 1;
origin = "{0, 12}";
type = Anchor;
},
{
horizontal = 1;
origin = "{0, 13}";
type = Anchor;
},
{
horizontal = 1;
origin = "{1, 0}";
type = Anchor;
},
{
horizontal = 1;
origin = "{1, 1}";
type = Anchor;
},
{
horizontal = 1;
origin = "{1, 2}";
type = Anchor;
},
{
horizontal = 1;
origin = "{1, 3}";
type = Anchor;
},
{
horizontal = 1;
origin = "{1, 4}";
type = Anchor;
},
{
horizontal = 1;
origin = "{1, 5}";
type = Anchor;
},
{
horizontal = 1;
origin = "{1, 6}";
type = Anchor;
},
{
horizontal = 1;
origin = "{1, 7}";
type = Anchor;
},
{
horizontal = 1;
origin = "{1, 8}";
type = Anchor;
},
{
horizontal = 1;
origin = "{1, 9}";
type = Anchor;
},
{
horizontal = 1;
origin = "{1, 10}";
type = Anchor;
},
{
horizontal = 1;
origin = "{1, 11}";
type = Anchor;
},
{
horizontal = 1;
origin = "{1, 12}";
type = Anchor;
},
{
horizontal = 1;
origin = "{1, 13}";
type = Anchor;
},
{
horizontal = 1;
origin = "{0, 10}";
type = Delta;
settings = {
deltaV = {
"{100, 100, 0, 0, 0}" = {
"14" = 7;
};
};
};
}
);
layerId = "D40DD59D-1539-4674-98F2-408D5EBDB9DF";
paths = (
{
closed = 1;
nodes = (
"1343 1202 OFFCURVE",
"1078 1476 OFFCURVE",
"706 1476 CURVE SMOOTH",
"331 1476 OFFCURVE",
"70 1202 OFFCURVE",
"70 757 CURVE SMOOTH",
"70 698 LINE SMOOTH",
"70 253 OFFCURVE",
"333 -20 OFFCURVE",
"708 -20 CURVE SMOOTH",
"1080 -20 OFFCURVE",
"1343 253 OFFCURVE",
"1343 698 CURVE SMOOTH",
"1343 757 LINE SMOOTH"
);
},
{
closed = 1;
nodes = (
"986 411 OFFCURVE",
"885 254 OFFCURVE",
"708 254 CURVE SMOOTH",
"521 254 OFFCURVE",
"427 413 OFFCURVE",
"427 698 CURVE SMOOTH",
"428 811 LINE SMOOTH",
"439 1071 OFFCURVE",
"531 1201 OFFCURVE",
"706 1201 CURVE SMOOTH",
"894 1201 OFFCURVE",
"987 1052 OFFCURVE",
"987 759 CURVE SMOOTH",
"987 692 LINE SMOOTH"
);
}
);
width = 1414;
}
);
leftKerningGroup = C;
note = O;
rightKerningGroup = D;
unicode = 004F;
},
{
color = 1;
glyphname = Oacute;
layers = (
{
layerId = "E48BBF63-6980-4D0E-B72F-9E9EC78D2D9A";
paths = (
{
closed = 1;
nodes = (
"1231 1217 OFFCURVE",
"1016 1476 OFFCURVE",
"681 1476 CURVE SMOOTH",
"346 1476 OFFCURVE",
"133 1217 OFFCURVE",
"133 837 CURVE SMOOTH",
"133 619 LINE SMOOTH",
"133 239 OFFCURVE",
"348 -20 OFFCURVE",
"683 -20 CURVE SMOOTH",
"1018 -20 OFFCURVE",
"1231 239 OFFCURVE",
"1231 619 CURVE SMOOTH",
"1231 837 LINE SMOOTH"
);
},
{
closed = 1;
nodes = (
"1177 276 OFFCURVE",
"996 34 OFFCURVE",
"683 34 CURVE SMOOTH",
"371 34 OFFCURVE",
"188 276 OFFCURVE",
"188 619 CURVE SMOOTH",
"188 839 LINE SMOOTH",
"188 1180 OFFCURVE",
"369 1422 OFFCURVE",
"681 1422 CURVE SMOOTH",
"994 1422 OFFCURVE",
"1177 1180 OFFCURVE",
"1177 839 CURVE SMOOTH",
"1177 619 LINE SMOOTH"
);
},
{
closed = 1;
nodes = (
"891 1876 LINE",
"825 1876 LINE",
"636 1610 LINE",
"696 1610 LINE"
);
}
);
width = 1364;
},
{
layerId = "10767FFE-EA3C-45A9-8421-483827593C6E";
paths = (
{
closed = 1;
nodes = (
"1260 1213 OFFCURVE",
"1037 1476 OFFCURVE",
"692 1476 CURVE SMOOTH",
"353 1476 OFFCURVE",
"126 1213 OFFCURVE",
"126 806 CURVE SMOOTH",
"126 635 LINE SMOOTH",
"131 236 OFFCURVE",
"359 -20 OFFCURVE",
"694 -20 CURVE SMOOTH",
"1039 -20 OFFCURVE",
"1260 242 OFFCURVE",
"1260 650 CURVE SMOOTH",
"1260 806 LINE SMOOTH"
);
},
{
closed = 1;
nodes = (
"1138 303 OFFCURVE",
"977 88 OFFCURVE",
"694 88 CURVE SMOOTH",
"419 88 OFFCURVE",
"249 303 OFFCURVE",
"249 650 CURVE SMOOTH",
"249 808 LINE SMOOTH",
"249 1152 OFFCURVE",
"417 1368 OFFCURVE",
"692 1368 CURVE SMOOTH",
"975 1368 OFFCURVE",
"1138 1152 OFFCURVE",
"1138 808 CURVE SMOOTH",
"1138 650 LINE SMOOTH"
);
},
{
closed = 1;
nodes = (
"956 1862 LINE",
"811 1862 LINE",
"620 1583 LINE",
"724 1583 LINE"
);
}
);
width = 1387;
},
{
layerId = "EFC0C7B3-D173-4BF6-BF18-C95D96D5B447";
paths = (
{
closed = 1;
nodes = (
"1286 1214 OFFCURVE",
"1056 1476 OFFCURVE",
"704 1476 CURVE SMOOTH",
"359 1476 OFFCURVE",
"119 1210 OFFCURVE",
"119 774 CURVE SMOOTH",
"119 682 LINE SMOOTH",
"119 245 OFFCURVE",
"361 -20 OFFCURVE",
"706 -20 CURVE SMOOTH",
"1061 -20 OFFCURVE",
"1290 245 OFFCURVE",
"1290 682 CURVE SMOOTH",
"1290 786 LINE"
);
},
{
closed = 1;
nodes = (
"1099 333 OFFCURVE",
"957 143 OFFCURVE",
"706 143 CURVE SMOOTH",
"467 143 OFFCURVE",
"310 333 OFFCURVE",
"310 682 CURVE SMOOTH",
"310 776 LINE SMOOTH",
"310 1123 OFFCURVE",
"465 1312 OFFCURVE",
"704 1312 CURVE SMOOTH",
"953 1312 OFFCURVE",
"1099 1123 OFFCURVE",
"1099 776 CURVE SMOOTH",
"1099 682 LINE SMOOTH"
);
},
{
closed = 1;
nodes = (
"1022 1849 LINE",
"799 1849 LINE",
"605 1555 LINE",
"754 1555 LINE"
);
}
);
width = 1409;
},
{
layerId = "D68CFE38-7B02-4705-B0C1-3A2279678377";
paths = (
{
closed = 1;
nodes = (
"1311 1207 OFFCURVE",
"1069 1476 OFFCURVE",
"706 1476 CURVE SMOOTH",
"351 1476 OFFCURVE",
"102 1207 OFFCURVE",
"102 764 CURVE SMOOTH",
"102 691 LINE SMOOTH",
"102 248 OFFCURVE",
"353 -20 OFFCURVE",
"708 -20 CURVE SMOOTH",
"1071 -20 OFFCURVE",
"1311 248 OFFCURVE",
"1311 691 CURVE SMOOTH",
"1311 764 LINE SMOOTH"
);
},
{
closed = 1;
nodes = (
"1058 364 OFFCURVE",
"932 188 OFFCURVE",
"708 188 CURVE SMOOTH",
"492 188 OFFCURVE",
"355 364 OFFCURVE",
"355 691 CURVE SMOOTH",
"355 766 LINE SMOOTH",
"355 1093 OFFCURVE",
"490 1267 OFFCURVE",
"706 1267 CURVE SMOOTH",
"927 1267 OFFCURVE",
"1058 1093 OFFCURVE",
"1058 766 CURVE SMOOTH",
"1058 691 LINE SMOOTH"
);
},
{
closed = 1;
nodes = (
"1057 1846 LINE",
"780 1846 LINE",
"585 1544 LINE",
"780 1544 LINE"
);
}
);
width = 1414;
},
{
layerId = "8F63CED7-3680-4993-9CF4-CD4CD6484F7E";
paths = (
{
closed = 1;
nodes = (
"1327 1204 OFFCURVE",
"1071 1476 OFFCURVE",
"706 1476 CURVE SMOOTH",
"341 1476 OFFCURVE",
"86 1204 OFFCURVE",
"86 760 CURVE SMOOTH",
"86 695 LINE SMOOTH",
"86 251 OFFCURVE",
"343 -20 OFFCURVE",
"708 -20 CURVE SMOOTH",
"1073 -20 OFFCURVE",
"1327 251 OFFCURVE",
"1327 695 CURVE SMOOTH",
"1327 760 LINE SMOOTH"
);
},
{
closed = 1;
nodes = (
"1022 390 OFFCURVE",
"909 227 OFFCURVE",
"708 227 CURVE SMOOTH",
"505 227 OFFCURVE",
"390 392 OFFCURVE",
"390 695 CURVE SMOOTH",
"390 767 LINE SMOOTH",
"391 1068 OFFCURVE",
"505 1228 OFFCURVE",
"706 1228 CURVE SMOOTH",
"907 1228 OFFCURVE",
"1023 1066 OFFCURVE",
"1023 762 CURVE SMOOTH",
"1023 690 LINE SMOOTH"
);
},
{
closed = 1;
nodes = (
"1079 1846 LINE",
"764 1846 LINE",
"568 1537 LINE",
"802 1537 LINE"
);
}
);
width = 1414;
},
{
layerId = "D40DD59D-1539-4674-98F2-408D5EBDB9DF";
paths = (
{
closed = 1;
nodes = (
"1343 1202 OFFCURVE",
"1078 1476 OFFCURVE",
"706 1476 CURVE SMOOTH",
"331 1476 OFFCURVE",
"70 1202 OFFCURVE",
"70 757 CURVE SMOOTH",
"70 698 LINE SMOOTH",
"70 253 OFFCURVE",
"333 -20 OFFCURVE",
"708 -20 CURVE SMOOTH",
"1080 -20 OFFCURVE",
"1343 253 OFFCURVE",
"1343 698 CURVE SMOOTH",
"1343 757 LINE SMOOTH"
);
},
{
closed = 1;
nodes = (
"986 411 OFFCURVE",
"885 254 OFFCURVE",
"708 254 CURVE SMOOTH",
"521 254 OFFCURVE",
"427 413 OFFCURVE",
"427 698 CURVE SMOOTH",
"428 811 LINE SMOOTH",
"439 1071 OFFCURVE",
"531 1201 OFFCURVE",
"706 1201 CURVE SMOOTH",
"894 1201 OFFCURVE",
"987 1052 OFFCURVE",
"987 759 CURVE SMOOTH",
"987 692 LINE SMOOTH"
);
},
{
closed = 1;
nodes = (
"1104 1846 LINE",
"748 1846 LINE",
"550 1532 LINE",
"825 1532 LINE"
);
}
);
width = 1414;
}
);
leftKerningGroup = C;
note = Oacute;
rightKerningGroup = D;
unicode = 00D3;
},
{
color = 1;
glyphname = Ocircumflex;
layers = (
{
layerId = "E48BBF63-6980-4D0E-B72F-9E9EC78D2D9A";
paths = (
{
closed = 1;
nodes = (
"1231 1217 OFFCURVE",
"1016 1476 OFFCURVE",
"681 1476 CURVE SMOOTH",
"346 1476 OFFCURVE",
"133 1217 OFFCURVE",
"133 837 CURVE SMOOTH",
"133 619 LINE SMOOTH",
"133 239 OFFCURVE",
"348 -20 OFFCURVE",
"683 -20 CURVE SMOOTH",
"1018 -20 OFFCURVE",
"1231 239 OFFCURVE",
"1231 619 CURVE SMOOTH",
"1231 837 LINE SMOOTH"
);
},
{
closed = 1;
nodes = (
"1177 276 OFFCURVE",
"996 34 OFFCURVE",
"683 34 CURVE SMOOTH",
"371 34 OFFCURVE",
"188 276 OFFCURVE",
"188 619 CURVE SMOOTH",
"188 839 LINE SMOOTH",
"188 1180 OFFCURVE",
"369 1422 OFFCURVE",
"681 1422 CURVE SMOOTH",
"994 1422 OFFCURVE",
"1177 1180 OFFCURVE",
"1177 839 CURVE SMOOTH",
"1177 619 LINE SMOOTH"
);
},
{
closed = 1;
nodes = (
"426 1618 LINE",
"426 1604 LINE",
"490 1604 LINE",
"675 1800 LINE",
"862 1604 LINE",
"930 1604 LINE",
"930 1614 LINE",
"696 1857 LINE",
"656 1857 LINE"
);
}
);
width = 1364;
},
{
layerId = "10767FFE-EA3C-45A9-8421-483827593C6E";
paths = (
{
closed = 1;
nodes = (
"1260 1213 OFFCURVE",
"1037 1476 OFFCURVE",
"692 1476 CURVE SMOOTH",
"353 1476 OFFCURVE",
"126 1213 OFFCURVE",
"126 806 CURVE SMOOTH",
"126 635 LINE SMOOTH",
"131 236 OFFCURVE",
"359 -20 OFFCURVE",
"694 -20 CURVE SMOOTH",
"1039 -20 OFFCURVE",
"1260 242 OFFCURVE",
"1260 650 CURVE SMOOTH",
"1260 806 LINE SMOOTH"
);
},
{
closed = 1;
nodes = (
"1138 303 OFFCURVE",
"977 88 OFFCURVE",
"694 88 CURVE SMOOTH",
"419 88 OFFCURVE",
"249 303 OFFCURVE",
"249 650 CURVE SMOOTH",
"249 808 LINE SMOOTH",
"249 1152 OFFCURVE",
"417 1368 OFFCURVE",
"692 1368 CURVE SMOOTH",
"975 1368 OFFCURVE",
"1138 1152 OFFCURVE",
"1138 808 CURVE SMOOTH",
"1138 650 LINE SMOOTH"
);
},
{
closed = 1;
nodes = (
"415 1597 LINE",
"415 1585 LINE",
"523 1585 LINE",
"690 1768 LINE",
"859 1585 LINE",
"969 1585 LINE",
"969 1595 LINE",
"729 1852 LINE",
"653 1852 LINE"
);
}
);
width = 1387;
},
{
layerId = "EFC0C7B3-D173-4BF6-BF18-C95D96D5B447";
paths = (
{
closed = 1;
nodes = (
"1286 1214 OFFCURVE",
"1056 1476 OFFCURVE",
"704 1476 CURVE SMOOTH",
"359 1476 OFFCURVE",
"119 1210 OFFCURVE",
"119 774 CURVE SMOOTH",
"119 682 LINE SMOOTH",
"119 245 OFFCURVE",
"361 -20 OFFCURVE",
"706 -20 CURVE SMOOTH",
"1061 -20 OFFCURVE",
"1290 245 OFFCURVE",
"1290 682 CURVE SMOOTH",
"1290 786 LINE"
);
},
{
closed = 1;
nodes = (
"1099 333 OFFCURVE",
"957 143 OFFCURVE",
"706 143 CURVE SMOOTH",
"467 143 OFFCURVE",
"310 333 OFFCURVE",
"310 682 CURVE SMOOTH",
"310 776 LINE SMOOTH",
"310 1123 OFFCURVE",
"465 1312 OFFCURVE",
"704 1312 CURVE SMOOTH",
"953 1312 OFFCURVE",
"1099 1123 OFFCURVE",
"1099 776 CURVE SMOOTH",
"1099 682 LINE SMOOTH"
);
},
{
closed = 1;
nodes = (
"406 1577 LINE",
"406 1566 LINE",
"558 1566 LINE",
"707 1735 LINE",
"857 1566 LINE",
"1011 1566 LINE",
"1011 1576 LINE",
"763 1849 LINE",
"651 1849 LINE"
);
}
);
width = 1409;
},
{
layerId = "D68CFE38-7B02-4705-B0C1-3A2279678377";
paths = (
{
closed = 1;
nodes = (
"1311 1207 OFFCURVE",
"1069 1476 OFFCURVE",
"706 1476 CURVE SMOOTH",
"351 1476 OFFCURVE",
"102 1207 OFFCURVE",
"102 764 CURVE SMOOTH",
"102 691 LINE SMOOTH",
"102 248 OFFCURVE",
"353 -20 OFFCURVE",
"708 -20 CURVE SMOOTH",
"1071 -20 OFFCURVE",
"1311 248 OFFCURVE",
"1311 691 CURVE SMOOTH",
"1311 764 LINE SMOOTH"
);
},
{
closed = 1;
nodes = (
"1058 364 OFFCURVE",
"932 188 OFFCURVE",
"708 188 CURVE SMOOTH",
"492 188 OFFCURVE",
"355 364 OFFCURVE",
"355 691 CURVE SMOOTH",
"355 766 LINE SMOOTH",
"355 1093 OFFCURVE",
"490 1267 OFFCURVE",
"706 1267 CURVE SMOOTH",
"927 1267 OFFCURVE",
"1058 1093 OFFCURVE",
"1058 766 CURVE SMOOTH",
"1058 691 LINE SMOOTH"
);
},
{
closed = 1;
nodes = (
"366 1572 LINE",
"366 1559 LINE",
"558 1559 LINE",
"708 1715 LINE",
"858 1559 LINE",
"1053 1559 LINE",
"1053 1570 LINE",
"779 1847 LINE",
"636 1847 LINE"
);
}
);
width = 1414;
},
{
layerId = "8F63CED7-3680-4993-9CF4-CD4CD6484F7E";
paths = (
{
closed = 1;
nodes = (
"1327 1204 OFFCURVE",
"1071 1476 OFFCURVE",
"706 1476 CURVE SMOOTH",
"341 1476 OFFCURVE",
"86 1204 OFFCURVE",
"86 760 CURVE SMOOTH",
"86 695 LINE SMOOTH",
"86 251 OFFCURVE",
"343 -20 OFFCURVE",
"708 -20 CURVE SMOOTH",
"1073 -20 OFFCURVE",
"1327 251 OFFCURVE",
"1327 695 CURVE SMOOTH",
"1327 760 LINE SMOOTH"
);
},
{
closed = 1;
nodes = (
"1022 390 OFFCURVE",
"909 227 OFFCURVE",
"708 227 CURVE SMOOTH",
"505 227 OFFCURVE",
"390 392 OFFCURVE",
"390 695 CURVE SMOOTH",
"390 767 LINE SMOOTH",
"391 1068 OFFCURVE",
"505 1228 OFFCURVE",
"706 1228 CURVE SMOOTH",
"907 1228 OFFCURVE",
"1023 1066 OFFCURVE",
"1023 762 CURVE SMOOTH",
"1023 690 LINE SMOOTH"
);
},
{
closed = 1;
nodes = (
"327 1570 LINE",
"327 1555 LINE",
"552 1555 LINE",
"706 1699 LINE",
"861 1555 LINE",
"1090 1555 LINE",
"1090 1567 LINE",
"790 1847 LINE",
"623 1847 LINE"
);
}
);
width = 1414;
},
{
layerId = "D40DD59D-1539-4674-98F2-408D5EBDB9DF";
paths = (
{
closed = 1;
nodes = (
"1343 1202 OFFCURVE",
"1078 1476 OFFCURVE",
"706 1476 CURVE SMOOTH",
"331 1476 OFFCURVE",
"70 1202 OFFCURVE",
"70 757 CURVE SMOOTH",
"70 698 LINE SMOOTH",
"70 253 OFFCURVE",
"333 -20 OFFCURVE",
"708 -20 CURVE SMOOTH",
"1080 -20 OFFCURVE",
"1343 253 OFFCURVE",
"1343 698 CURVE SMOOTH",
"1343 757 LINE SMOOTH"
);
},
{
closed = 1;
nodes = (
"986 411 OFFCURVE",
"885 254 OFFCURVE",
"708 254 CURVE SMOOTH",
"521 254 OFFCURVE",
"427 413 OFFCURVE",
"427 698 CURVE SMOOTH",
"428 811 LINE SMOOTH",
"439 1071 OFFCURVE",
"531 1201 OFFCURVE",
"706 1201 CURVE SMOOTH",
"894 1201 OFFCURVE",
"987 1052 OFFCURVE",
"987 759 CURVE SMOOTH",
"987 692 LINE SMOOTH"
);
},
{
closed = 1;
nodes = (
"286 1569 LINE",
"286 1552 LINE",
"546 1552 LINE",
"704 1688 LINE",
"864 1552 LINE",
"1129 1552 LINE",
"1129 1565 LINE",
"801 1846 LINE",
"608 1846 LINE"
);
}
);
width = 1414;
}
);
leftKerningGroup = C;
note = Ocircumflex;
rightKerningGroup = D;
unicode = 00D4;
},
